<svg width="39" height="38" viewBox="0 0 39 38" fill="none" xmlns="http://www.w3.org/2000/svg">
<g filter="url(#filter0_di_728_119)">
<path d="M25.4216 20.9314C25.4216 20.8648 25.3943 20.8009 25.3456 20.7538C25.297 20.7067 25.231 20.6802 25.1623 20.6802C25.0935 20.6802 25.0275 20.7067 24.9789 20.7538C24.9303 20.8009 24.9029 20.8648 24.9029 20.9314V21.173L24.7333 21.0861C24.7032 21.0707 24.6703 21.0612 24.6364 21.0581C24.6025 21.055 24.5683 21.0584 24.5357 21.0681C24.5032 21.0778 24.4729 21.0937 24.4467 21.1147C24.4205 21.1357 24.3988 21.1616 24.3829 21.1907C24.3669 21.2199 24.3571 21.2518 24.3539 21.2846C24.3507 21.3175 24.3543 21.3506 24.3643 21.3821C24.3743 21.4136 24.3907 21.4429 24.4124 21.4683C24.4341 21.4937 24.4608 21.5147 24.4909 21.5302L24.9029 21.7411V22.2189C24.7204 22.2646 24.5542 22.3577 24.4221 22.4881L23.9948 22.249L24.0122 21.7979C24.0147 21.7313 23.9898 21.6665 23.943 21.6177C23.8962 21.5689 23.8313 21.54 23.7626 21.5376C23.6938 21.5351 23.6269 21.5592 23.5765 21.6045C23.5261 21.6499 23.4963 21.7127 23.4938 21.7793L23.4868 21.9649L23.2708 21.8444C23.2412 21.8267 23.2083 21.8149 23.174 21.8098C23.1397 21.8046 23.1047 21.8062 23.0711 21.8144C23.0374 21.8226 23.0058 21.8373 22.9781 21.8575C22.9504 21.8778 22.9271 21.9032 22.9098 21.9323C22.8924 21.9614 22.8813 21.9936 22.877 22.027C22.8727 22.0604 22.8754 22.0942 22.8849 22.1266C22.8943 22.1589 22.9104 22.1891 22.9322 22.2153C22.9539 22.2415 22.9809 22.2632 23.0114 22.2791L23.2274 22.3999L23.0649 22.4989C23.0081 22.535 22.9683 22.5912 22.9539 22.6554C22.9395 22.7196 22.9516 22.7868 22.9877 22.8424C23.0238 22.8981 23.081 22.9378 23.147 22.9531C23.213 22.9684 23.2826 22.958 23.3408 22.9241L23.7355 22.684L24.1626 22.9229C24.1121 23.0989 24.1121 23.2849 24.1626 23.4609L23.7355 23.6995L23.3408 23.4596C23.2826 23.4258 23.213 23.4154 23.147 23.4306C23.081 23.4459 23.0238 23.4856 22.9877 23.5413C22.9516 23.5969 22.9395 23.6641 22.9539 23.7283C22.9683 23.7925 23.0081 23.8487 23.0649 23.8848L23.2274 23.9838L23.0114 24.1043C22.9819 24.1208 22.9561 24.1428 22.9353 24.169C22.9146 24.1951 22.8993 24.225 22.8905 24.2569C22.8817 24.2887 22.8794 24.322 22.8839 24.3547C22.8883 24.3874 22.8994 24.419 22.9164 24.4475C22.9334 24.4761 22.9561 24.5012 22.9831 24.5213C23.0101 24.5414 23.041 24.5561 23.0739 24.5647C23.1068 24.5732 23.1411 24.5754 23.1749 24.5711C23.2087 24.5668 23.2412 24.5561 23.2708 24.5396L23.4865 24.4188L23.4938 24.6047C23.4951 24.6376 23.503 24.67 23.5172 24.7C23.5314 24.73 23.5516 24.757 23.5766 24.7794C23.6015 24.8018 23.6308 24.8193 23.6628 24.8308C23.6947 24.8422 23.7287 24.8475 23.7627 24.8463C23.7967 24.845 23.8302 24.8373 23.8611 24.8236C23.8921 24.8098 23.92 24.7903 23.9431 24.7661C23.9663 24.7419 23.9843 24.7135 23.9962 24.6826C24.008 24.6517 24.0134 24.6188 24.0122 24.5858L23.9948 24.1347L24.4221 23.8956C24.5542 24.026 24.7204 24.1191 24.9029 24.1649V24.6426L24.4909 24.8536C24.4301 24.8847 24.3845 24.938 24.3643 25.0016C24.344 25.0653 24.3507 25.1341 24.3829 25.193C24.415 25.2519 24.47 25.296 24.5357 25.3156C24.6015 25.3352 24.6725 25.3288 24.7333 25.2976L24.9029 25.2107V25.4523C24.9029 25.5189 24.9303 25.5828 24.9789 25.6299C25.0275 25.677 25.0935 25.7035 25.1623 25.7035C25.231 25.7035 25.297 25.677 25.3456 25.6299C25.3943 25.5828 25.4216 25.5189 25.4216 25.4523V25.2107L25.5912 25.2976C25.652 25.3288 25.7231 25.3352 25.7888 25.3156C25.8545 25.296 25.9095 25.2519 25.9417 25.193C25.9738 25.1341 25.9805 25.0653 25.9602 25.0016C25.94 24.938 25.8944 24.8847 25.8336 24.8536L25.4216 24.6426V24.1649C25.6041 24.1192 25.7703 24.0262 25.9024 23.8959L26.3297 24.1347L26.3124 24.5858C26.3111 24.6188 26.3165 24.6517 26.3284 24.6826C26.3402 24.7135 26.3582 24.7419 26.3814 24.7661C26.4046 24.7903 26.4324 24.8098 26.4634 24.8236C26.4943 24.8373 26.5278 24.845 26.5618 24.8463C26.5959 24.8475 26.6298 24.8422 26.6618 24.8308C26.6937 24.8193 26.723 24.8018 26.7479 24.7794C26.7729 24.757 26.7931 24.73 26.8073 24.7C26.8215 24.67 26.8295 24.6376 26.8307 24.6047L26.8377 24.4188L27.0538 24.5396C27.0833 24.5564 27.1159 24.5673 27.1498 24.5718C27.1837 24.5763 27.2181 24.5742 27.2512 24.5657C27.2843 24.5573 27.3153 24.5426 27.3424 24.5224C27.3696 24.5023 27.3924 24.4772 27.4095 24.4485C27.4266 24.4198 27.4377 24.3881 27.4421 24.3553C27.4465 24.3225 27.4441 24.2891 27.4352 24.2571C27.4262 24.2252 27.4108 24.1952 27.3899 24.169C27.3689 24.1429 27.3428 24.121 27.3131 24.1046L27.0973 23.984L27.2597 23.8851C27.3179 23.8496 27.3592 23.7932 27.3746 23.7283C27.3899 23.6633 27.3779 23.5951 27.3413 23.5387C27.3048 23.4823 27.2465 23.4423 27.1795 23.4274C27.1124 23.4126 27.042 23.4242 26.9837 23.4596L26.5891 23.6997L26.1619 23.4611C26.2125 23.285 26.2125 23.0989 26.1619 22.9229L26.5891 22.684L26.9837 22.9241C27.042 22.9596 27.1124 22.9711 27.1795 22.9563C27.2465 22.9415 27.3048 22.9014 27.3413 22.845C27.3779 22.7886 27.3899 22.7204 27.3746 22.6554C27.3592 22.5905 27.3179 22.5341 27.2597 22.4987L27.0971 22.3999L27.3131 22.2791C27.3428 22.2628 27.3689 22.2409 27.3899 22.2147C27.4108 22.1885 27.4262 22.1586 27.4352 22.1266C27.4441 22.0946 27.4465 22.0613 27.4421 22.0284C27.4377 21.9956 27.4266 21.9639 27.4095 21.9352C27.3924 21.9065 27.3696 21.8814 27.3424 21.8613C27.3153 21.8412 27.2843 21.8264 27.2512 21.818C27.2181 21.8095 27.1837 21.8075 27.1498 21.8119C27.1159 21.8164 27.0833 21.8274 27.0538 21.8441L26.8377 21.9647L26.8307 21.7791C26.8295 21.7461 26.8215 21.7137 26.8073 21.6837C26.7931 21.6537 26.7729 21.6268 26.7479 21.6043C26.723 21.5819 26.6937 21.5644 26.6618 21.553C26.6298 21.5415 26.5959 21.5362 26.5618 21.5375C26.5278 21.5387 26.4943 21.5464 26.4634 21.5602C26.4324 21.5739 26.4046 21.5935 26.3814 21.6176C26.3582 21.6418 26.3402 21.6702 26.3284 21.7011C26.3165 21.7321 26.3111 21.7649 26.3124 21.7979L26.3297 22.249L25.9024 22.4879C25.7703 22.3575 25.6041 22.2645 25.4216 22.2189V21.7411L25.8336 21.5302C25.8944 21.499 25.94 21.4458 25.9602 21.3821C25.9805 21.3185 25.9738 21.2496 25.9417 21.1907C25.9095 21.1318 25.8545 21.0877 25.7888 21.0681C25.7231 21.0485 25.652 21.055 25.5912 21.0861L25.4216 21.173V20.9314Z" fill="url(#paint0_linear_728_119)"/>
<path d="M18.6716 24.2279C18.6716 24.1613 18.6443 24.0974 18.5956 24.0503C18.547 24.0032 18.481 23.9767 18.4123 23.9767C18.3435 23.9767 18.2775 24.0032 18.2289 24.0503C18.1803 24.0974 18.1529 24.1613 18.1529 24.2279V24.4695L17.9833 24.3826C17.9532 24.3672 17.9203 24.3577 17.8864 24.3546C17.8525 24.3515 17.8183 24.3549 17.7857 24.3646C17.7532 24.3743 17.7229 24.3902 17.6967 24.4112C17.6705 24.4322 17.6488 24.4581 17.6329 24.4872C17.6169 24.5164 17.6071 24.5483 17.6039 24.5811C17.6007 24.614 17.6043 24.6471 17.6143 24.6786C17.6243 24.7101 17.6407 24.7394 17.6624 24.7648C17.6841 24.7902 17.7108 24.8113 17.7409 24.8267L18.1529 25.0377V25.5154C17.9704 25.5611 17.8042 25.6542 17.6721 25.7846L17.2448 25.5455L17.2622 25.0944C17.2647 25.0278 17.2398 24.963 17.193 24.9142C17.1462 24.8654 17.0813 24.8366 17.0126 24.8341C16.9438 24.8316 16.8769 24.8557 16.8265 24.901C16.7761 24.9464 16.7463 25.0093 16.7438 25.0758L16.7368 25.2614L16.5208 25.1409C16.4912 25.1232 16.4583 25.1114 16.424 25.1063C16.3897 25.1011 16.3547 25.1027 16.3211 25.1109C16.2874 25.1191 16.2558 25.1338 16.2281 25.154C16.2004 25.1743 16.1771 25.1997 16.1598 25.2288C16.1424 25.2579 16.1313 25.2901 16.127 25.3235C16.1227 25.3569 16.1254 25.3907 16.1349 25.4231C16.1443 25.4554 16.1604 25.4856 16.1822 25.5118C16.2039 25.538 16.2309 25.5597 16.2614 25.5756L16.4774 25.6965L16.3149 25.7954C16.2581 25.8315 16.2183 25.8877 16.2039 25.9519C16.1895 26.0162 16.2016 26.0833 16.2377 26.139C16.2738 26.1946 16.331 26.2343 16.397 26.2496C16.463 26.2649 16.5326 26.2545 16.5908 26.2206L16.9855 25.9805L17.4126 26.2194C17.3621 26.3954 17.3621 26.5814 17.4126 26.7574L16.9855 26.996L16.5908 26.7561C16.5326 26.7223 16.463 26.7119 16.397 26.7272C16.331 26.7424 16.2738 26.7821 16.2377 26.8378C16.2016 26.8934 16.1895 26.9606 16.2039 27.0248C16.2183 27.089 16.2581 27.1452 16.3149 27.1813L16.4774 27.2803L16.2614 27.4008C16.2319 27.4173 16.2061 27.4393 16.1853 27.4655C16.1646 27.4916 16.1493 27.5215 16.1405 27.5534C16.1317 27.5853 16.1294 27.6185 16.1339 27.6512C16.1383 27.6839 16.1494 27.7155 16.1664 27.7441C16.1834 27.7726 16.2061 27.7977 16.2331 27.8178C16.2601 27.8379 16.291 27.8526 16.3239 27.8612C16.3568 27.8697 16.3911 27.8719 16.4249 27.8676C16.4587 27.8633 16.4912 27.8526 16.5208 27.8361L16.7365 27.7153L16.7438 27.9012C16.7451 27.9341 16.753 27.9665 16.7672 27.9965C16.7814 28.0265 16.8016 28.0535 16.8266 28.0759C16.8515 28.0984 16.8808 28.1158 16.9128 28.1273C16.9447 28.1388 16.9787 28.144 17.0127 28.1428C17.0467 28.1415 17.0802 28.1338 17.1111 28.1201C17.1421 28.1063 17.17 28.0868 17.1931 28.0626C17.2163 28.0384 17.2343 28.01 17.2462 27.9791C17.258 27.9482 17.2634 27.9153 17.2622 27.8823L17.2448 27.4312L17.6721 27.1921C17.8042 27.3225 17.9704 27.4156 18.1529 27.4614V27.9391L17.7409 28.1501C17.6801 28.1812 17.6345 28.2345 17.6143 28.2981C17.594 28.3618 17.6007 28.4306 17.6329 28.4895C17.665 28.5484 17.72 28.5925 17.7857 28.6121C17.8515 28.6317 17.9225 28.6253 17.9833 28.5941L18.1529 28.5072V28.7488C18.1529 28.8155 18.1803 28.8793 18.2289 28.9264C18.2775 28.9735 18.3435 29 18.4123 29C18.481 29 18.547 28.9735 18.5956 28.9264C18.6443 28.8793 18.6716 28.8155 18.6716 28.7488V28.5072L18.8412 28.5941C18.902 28.6253 18.9731 28.6317 19.0388 28.6121C19.1045 28.5925 19.1595 28.5484 19.1917 28.4895C19.2238 28.4306 19.2305 28.3618 19.2102 28.2981C19.19 28.2345 19.1444 28.1812 19.0836 28.1501L18.6716 27.9391V27.4614C18.8541 27.4157 19.0203 27.3227 19.1524 27.1924L19.5797 27.4312L19.5624 27.8823C19.5611 27.9153 19.5665 27.9482 19.5784 27.9791C19.5902 28.01 19.6082 28.0384 19.6314 28.0626C19.6546 28.0868 19.6824 28.1063 19.7134 28.1201C19.7443 28.1338 19.7778 28.1415 19.8118 28.1428C19.8459 28.144 19.8798 28.1388 19.9117 28.1273C19.9437 28.1158 19.973 28.0984 19.9979 28.0759C20.0229 28.0535 20.0431 28.0265 20.0573 27.9965C20.0715 27.9665 20.0795 27.9341 20.0807 27.9012L20.0877 27.7153L20.3038 27.8361C20.3333 27.8529 20.3659 27.8638 20.3998 27.8683C20.4337 27.8728 20.4681 27.8707 20.5012 27.8623C20.5343 27.8538 20.5653 27.8391 20.5924 27.819C20.6196 27.7988 20.6424 27.7737 20.6595 27.745C20.6766 27.7163 20.6877 27.6847 20.6921 27.6518C20.6965 27.619 20.6941 27.5856 20.6852 27.5536C20.6762 27.5217 20.6608 27.4917 20.6399 27.4656C20.6189 27.4394 20.5928 27.4175 20.5631 27.4011L20.3473 27.2805L20.5097 27.1816C20.5679 27.1461 20.6092 27.0897 20.6246 27.0248C20.6399 26.9598 20.6279 26.8916 20.5913 26.8352C20.5548 26.7788 20.4965 26.7388 20.4295 26.7239C20.3624 26.7091 20.292 26.7207 20.2337 26.7561L19.8391 26.9962L19.4119 26.7576C19.4625 26.5815 19.4625 26.3955 19.4119 26.2194L19.8391 25.9805L20.2337 26.2206C20.292 26.2561 20.3624 26.2676 20.4295 26.2528C20.4965 26.238 20.5548 26.1979 20.5913 26.1415C20.6279 26.0851 20.6399 26.0169 20.6246 25.952C20.6092 25.887 20.5679 25.8306 20.5097 25.7952L20.3471 25.6965L20.5631 25.5756C20.5928 25.5593 20.6189 25.5374 20.6399 25.5112C20.6608 25.485 20.6762 25.4551 20.6852 25.4231C20.6941 25.3911 20.6965 25.3578 20.6921 25.3249C20.6877 25.2921 20.6766 25.2604 20.6595 25.2317C20.6424 25.203 20.6196 25.1779 20.5924 25.1578C20.5653 25.1377 20.5343 25.123 20.5012 25.1145C20.4681 25.106 20.4337 25.104 20.3998 25.1085C20.3659 25.1129 20.3333 25.1239 20.3038 25.1406L20.0877 25.2612L20.0807 25.0756C20.0795 25.0426 20.0715 25.0102 20.0573 24.9802C20.0431 24.9502 20.0229 24.9233 19.9979 24.9008C19.973 24.8784 19.9437 24.8609 19.9117 24.8495C19.8798 24.838 19.8459 24.8327 19.8118 24.834C19.7778 24.8352 19.7443 24.8429 19.7134 24.8567C19.6824 24.8704 19.6546 24.89 19.6314 24.9142C19.6082 24.9383 19.5902 24.9667 19.5784 24.9976C19.5665 25.0286 19.5611 25.0615 19.5624 25.0944L19.5797 25.5455L19.1524 25.7844C19.0203 25.6541 18.8541 25.5611 18.6716 25.5154V25.0377L19.0836 24.8267C19.1444 24.7955 19.19 24.7423 19.2102 24.6786C19.2305 24.615 19.2238 24.5461 19.1917 24.4872C19.1595 24.4283 19.1045 24.3842 19.0388 24.3646C18.9731 24.345 18.902 24.3515 18.8412 24.3826L18.6716 24.4695V24.2279Z" fill="url(#paint1_linear_728_119)"/>
<path d="M13.0466 20.9314C13.0466 20.8648 13.0193 20.8009 12.9706 20.7538C12.922 20.7067 12.856 20.6802 12.7873 20.6802C12.7185 20.6802 12.6525 20.7067 12.6039 20.7538C12.5553 20.8009 12.5279 20.8648 12.5279 20.9314V21.173L12.3583 21.0861C12.3282 21.0707 12.2953 21.0612 12.2614 21.0581C12.2275 21.055 12.1933 21.0584 12.1607 21.0681C12.1282 21.0778 12.0979 21.0937 12.0717 21.1147C12.0455 21.1357 12.0238 21.1616 12.0079 21.1907C11.9919 21.2199 11.9821 21.2518 11.9789 21.2846C11.9757 21.3175 11.9793 21.3506 11.9893 21.3821C11.9993 21.4136 12.0157 21.4429 12.0374 21.4683C12.0591 21.4937 12.0858 21.5147 12.1159 21.5302L12.5279 21.7411V22.2189C12.3454 22.2646 12.1792 22.3577 12.0471 22.4881L11.6198 22.249L11.6372 21.7979C11.6397 21.7313 11.6148 21.6665 11.568 21.6177C11.5212 21.5689 11.4563 21.54 11.3876 21.5376C11.3188 21.5351 11.2519 21.5592 11.2015 21.6045C11.1511 21.6499 11.1213 21.7127 11.1188 21.7793L11.1118 21.9649L10.8958 21.8444C10.8662 21.8267 10.8333 21.8149 10.799 21.8098C10.7647 21.8046 10.7297 21.8062 10.6961 21.8144C10.6624 21.8226 10.6308 21.8373 10.6031 21.8575C10.5754 21.8778 10.5521 21.9032 10.5348 21.9323C10.5174 21.9614 10.5063 21.9936 10.502 22.027C10.4977 22.0604 10.5004 22.0942 10.5099 22.1266C10.5193 22.1589 10.5354 22.1891 10.5572 22.2153C10.5789 22.2415 10.6059 22.2632 10.6364 22.2791L10.8524 22.3999L10.6899 22.4989C10.6331 22.535 10.5933 22.5912 10.5789 22.6554C10.5645 22.7196 10.5766 22.7868 10.6127 22.8424C10.6488 22.8981 10.706 22.9378 10.772 22.9531C10.838 22.9684 10.9076 22.958 10.9658 22.9241L11.3605 22.684L11.7876 22.9229C11.7371 23.0989 11.7371 23.2849 11.7876 23.4609L11.3605 23.6995L10.9658 23.4596C10.9076 23.4258 10.838 23.4154 10.772 23.4306C10.706 23.4459 10.6488 23.4856 10.6127 23.5413C10.5766 23.5969 10.5645 23.6641 10.5789 23.7283C10.5933 23.7925 10.6331 23.8487 10.6899 23.8848L10.8524 23.9838L10.6364 24.1043C10.6069 24.1208 10.5811 24.1428 10.5603 24.169C10.5396 24.1951 10.5243 24.225 10.5155 24.2569C10.5067 24.2887 10.5044 24.322 10.5089 24.3547C10.5133 24.3874 10.5244 24.419 10.5414 24.4475C10.5584 24.4761 10.5811 24.5012 10.6081 24.5213C10.6351 24.5414 10.666 24.5561 10.6989 24.5647C10.7318 24.5732 10.7661 24.5754 10.7999 24.5711C10.8337 24.5668 10.8662 24.5561 10.8958 24.5396L11.1115 24.4188L11.1188 24.6047C11.1201 24.6376 11.128 24.67 11.1422 24.7C11.1564 24.73 11.1766 24.757 11.2016 24.7794C11.2265 24.8018 11.2558 24.8193 11.2878 24.8308C11.3197 24.8422 11.3537 24.8475 11.3877 24.8463C11.4217 24.845 11.4552 24.8373 11.4861 24.8236C11.5171 24.8098 11.545 24.7903 11.5681 24.7661C11.5913 24.7419 11.6093 24.7135 11.6212 24.6826C11.633 24.6517 11.6384 24.6188 11.6372 24.5858L11.6198 24.1347L12.0471 23.8956C12.1792 24.026 12.3454 24.1191 12.5279 24.1649V24.6426L12.1159 24.8536C12.0551 24.8847 12.0095 24.938 11.9893 25.0016C11.969 25.0653 11.9757 25.1341 12.0079 25.193C12.04 25.2519 12.095 25.296 12.1607 25.3156C12.2265 25.3352 12.2975 25.3288 12.3583 25.2976L12.5279 25.2107V25.4523C12.5279 25.5189 12.5553 25.5828 12.6039 25.6299C12.6525 25.677 12.7185 25.7035 12.7873 25.7035C12.856 25.7035 12.922 25.677 12.9706 25.6299C13.0193 25.5828 13.0466 25.5189 13.0466 25.4523V25.2107L13.2162 25.2976C13.277 25.3288 13.3481 25.3352 13.4138 25.3156C13.4795 25.296 13.5345 25.2519 13.5667 25.193C13.5988 25.1341 13.6055 25.0653 13.5852 25.0016C13.565 24.938 13.5194 24.8847 13.4586 24.8536L13.0466 24.6426V24.1649C13.2291 24.1192 13.3953 24.0262 13.5274 23.8959L13.9547 24.1347L13.9374 24.5858C13.9361 24.6188 13.9415 24.6517 13.9534 24.6826C13.9652 24.7135 13.9832 24.7419 14.0064 24.7661C14.0296 24.7903 14.0574 24.8098 14.0884 24.8236C14.1193 24.8373 14.1528 24.845 14.1868 24.8463C14.2209 24.8475 14.2548 24.8422 14.2867 24.8308C14.3187 24.8193 14.348 24.8018 14.3729 24.7794C14.3979 24.757 14.4181 24.73 14.4323 24.7C14.4465 24.67 14.4545 24.6376 14.4557 24.6047L14.4627 24.4188L14.6788 24.5396C14.7083 24.5564 14.7409 24.5673 14.7748 24.5718C14.8087 24.5763 14.8431 24.5742 14.8762 24.5657C14.9093 24.5573 14.9403 24.5426 14.9674 24.5224C14.9946 24.5023 15.0174 24.4772 15.0345 24.4485C15.0516 24.4198 15.0627 24.3881 15.0671 24.3553C15.0715 24.3225 15.0691 24.2891 15.0602 24.2571C15.0512 24.2252 15.0358 24.1952 15.0149 24.169C14.9939 24.1429 14.9678 24.121 14.9381 24.1046L14.7223 23.984L14.8847 23.8851C14.9429 23.8496 14.9842 23.7932 14.9996 23.7283C15.0149 23.6633 15.0029 23.5951 14.9663 23.5387C14.9298 23.4823 14.8715 23.4423 14.8045 23.4274C14.7374 23.4126 14.667 23.4242 14.6087 23.4596L14.2141 23.6997L13.7869 23.4611C13.8375 23.285 13.8375 23.0989 13.7869 22.9229L14.2141 22.684L14.6087 22.9241C14.667 22.9596 14.7374 22.9711 14.8045 22.9563C14.8715 22.9415 14.9298 22.9014 14.9663 22.845C15.0029 22.7886 15.0149 22.7204 14.9996 22.6554C14.9842 22.5905 14.9429 22.5341 14.8847 22.4987L14.7221 22.3999L14.9381 22.2791C14.9678 22.2628 14.9939 22.2409 15.0149 22.2147C15.0358 22.1885 15.0512 22.1586 15.0602 22.1266C15.0691 22.0946 15.0715 22.0613 15.0671 22.0284C15.0627 21.9956 15.0516 21.9639 15.0345 21.9352C15.0174 21.9065 14.9946 21.8814 14.9674 21.8613C14.9403 21.8412 14.9093 21.8264 14.8762 21.818C14.8431 21.8095 14.8087 21.8075 14.7748 21.8119C14.7409 21.8164 14.7083 21.8274 14.6788 21.8441L14.4627 21.9647L14.4557 21.7791C14.4545 21.7461 14.4465 21.7137 14.4323 21.6837C14.4181 21.6537 14.3979 21.6268 14.3729 21.6043C14.348 21.5819 14.3187 21.5644 14.2867 21.553C14.2548 21.5415 14.2209 21.5362 14.1868 21.5375C14.1528 21.5387 14.1193 21.5464 14.0884 21.5602C14.0574 21.5739 14.0296 21.5935 14.0064 21.6176C13.9832 21.6418 13.9652 21.6702 13.9534 21.7011C13.9415 21.7321 13.9361 21.7649 13.9374 21.7979L13.9547 22.249L13.5274 22.4879C13.3953 22.3575 13.2291 22.2645 13.0466 22.2189V21.7411L13.4586 21.5302C13.5194 21.499 13.565 21.4458 13.5852 21.3821C13.6055 21.3185 13.5988 21.2496 13.5667 21.1907C13.5345 21.1318 13.4795 21.0877 13.4138 21.0681C13.3481 21.0485 13.277 21.055 13.2162 21.0861L13.0466 21.173V20.9314Z" fill="url(#paint2_linear_728_119)"/>
<path d="M32.988 9.53488C32.9959 9.39637 33 9.2568 33 9.11628C33 5.18607 29.8384 2 25.9385 2C24.0618 2 22.3561 2.73774 21.0914 3.94114C20.4517 3.7672 19.7789 3.67442 19.0846 3.67442C16.5734 3.67442 14.3436 4.88824 12.9413 6.76543C12.5139 6.66036 12.0672 6.60465 11.6077 6.60465C8.51064 6.60465 6 9.13476 6 12.2558C6 12.2704 6.00005 12.2849 6.00015 12.2995C6.00005 12.3097 6 12.3198 6 12.3301C6 16.1037 9.03557 19.1628 12.7801 19.1628H23.4462C28.7226 19.1628 33 14.8522 33 9.53488H32.988Z" fill="white"/>
<path d="M32.988 9.53488C32.9959 9.39637 33 9.2568 33 9.11628C33 5.18607 29.8384 2 25.9385 2C24.0618 2 22.3561 2.73774 21.0914 3.94114C20.4517 3.7672 19.7789 3.67442 19.0846 3.67442C16.5734 3.67442 14.3436 4.88824 12.9413 6.76543C12.5139 6.66036 12.0672 6.60465 11.6077 6.60465C8.51064 6.60465 6 9.13476 6 12.2558C6 12.2704 6.00005 12.2849 6.00015 12.2995C6.00005 12.3097 6 12.3198 6 12.3301C6 16.1037 9.03557 19.1628 12.7801 19.1628H23.4462C28.7226 19.1628 33 14.8522 33 9.53488H32.988Z" fill="url(#paint3_radial_728_119)" fill-opacity="0.2"/>
</g>
<path d="M9.93579 12.5525H13.5808C13.8581 12.5525 14.1291 12.4686 14.3597 12.3114C14.5902 12.1543 14.7699 11.9309 14.876 11.6695C14.9821 11.4082 15.0099 11.1206 14.9558 10.8431C14.9017 10.5657 14.7682 10.3108 14.5721 10.1108C14.376 9.91076 14.1262 9.77453 13.8543 9.71934C13.5824 9.66416 13.3005 9.69248 13.0443 9.80074C12.7881 9.909 12.5692 10.0923 12.4151 10.3275C12.2611 10.5628 12.1789 10.8393 12.1789 11.1222V11.3264M10.4966 15.9853H18.6277C19.0159 15.9853 19.3954 16.1027 19.7181 16.3227C20.0409 16.5428 20.2925 16.8555 20.441 17.2214C20.5896 17.5873 20.6284 17.9899 20.5527 18.3784C20.477 18.7668 20.29 19.1236 20.0156 19.4037C19.7411 19.6837 19.3914 19.8744 19.0106 19.9517C18.6299 20.029 18.2353 19.9893 17.8766 19.8377C17.518 19.6862 17.2115 19.4295 16.9958 19.1002C16.7801 18.7709 16.665 18.3838 16.665 17.9877V17.7017" stroke="white" stroke-linecap="round"/>
<path opacity="0.5" d="M9.375 14.2689H18.6277C19.0159 14.2689 19.3954 14.1514 19.7181 13.9314C20.0409 13.7114 20.2924 13.3986 20.441 13.0327C20.5895 12.6668 20.6284 12.2642 20.5527 11.8758C20.477 11.4873 20.29 11.1305 20.0155 10.8505C19.741 10.5704 19.3913 10.3797 19.0106 10.3025C18.6299 10.2252 18.2352 10.2649 17.8766 10.4164C17.518 10.568 17.2114 10.8246 16.9958 11.1539C16.7801 11.4832 16.665 11.8704 16.665 12.2664V12.5525" stroke="white" stroke-opacity="0.95" stroke-linecap="round"/>
<defs>
<filter id="filter0_di_728_119" x="0.666673" y="2.38419e-06" width="37.6667" height="37.6667" filterUnits="userSpaceOnUse" color-interpolation-filters="sRGB">
<feFlood flood-opacity="0" result="BackgroundImageFix"/>
<feColorMatrix in="SourceAlpha" type="matrix" values="0 0 0 0 0 0 0 0 0 0 0 0 0 0 0 0 0 0 127 0" result="hardAlpha"/>
<feOffset dy="3.33333"/>
<feGaussianBlur stdDeviation="2.66666"/>
<feComposite in2="hardAlpha" operator="out"/>
<feColorMatrix type="matrix" values="0 0 0 0 0.301961 0 0 0 0 0.368627 0 0 0 0 0.435294 0 0 0 0.08 0"/>
<feBlend mode="normal" in2="BackgroundImageFix" result="effect1_dropShadow_728_119"/>
<feBlend mode="normal" in="SourceGraphic" in2="effect1_dropShadow_728_119" result="shape"/>
<feColorMatrix in="SourceAlpha" type="matrix" values="0 0 0 0 0 0 0 0 0 0 0 0 0 0 0 0 0 0 127 0" result="hardAlpha"/>
<feOffset/>
<feGaussianBlur stdDeviation="4"/>
<feComposite in2="hardAlpha" operator="arithmetic" k2="-1" k3="1"/>
<feColorMatrix type="matrix" values="0 0 0 0 0 0 0 0 0 0 0 0 0 0 0 0 0 0 0.05 0"/>
<feBlend mode="normal" in2="shape" result="effect2_innerShadow_728_119"/>
</filter>
<linearGradient id="paint0_linear_728_119" x1="28.0909" y1="6.5" x2="11.1785" y2="23.7199" gradientUnits="userSpaceOnUse">
<stop stop-color="white" stop-opacity="0.6"/>
<stop offset="1" stop-color="white"/>
</linearGradient>
<linearGradient id="paint1_linear_728_119" x1="28.0909" y1="6.5" x2="11.1785" y2="23.7199" gradientUnits="userSpaceOnUse">
<stop stop-color="white" stop-opacity="0.6"/>
<stop offset="1" stop-color="white"/>
</linearGradient>
<linearGradient id="paint2_linear_728_119" x1="28.0909" y1="6.5" x2="11.1785" y2="23.7199" gradientUnits="userSpaceOnUse">
<stop stop-color="white" stop-opacity="0.6"/>
<stop offset="1" stop-color="white"/>
</linearGradient>
<radialGradient id="paint3_radial_728_119" cx="0" cy="0" r="1" gradientUnits="userSpaceOnUse" gradientTransform="translate(30.75 4.19768) rotate(153.422) scale(25.7876 39.7464)">
<stop stop-color="white"/>
<stop offset="1" stop-color="#909AA3"/>
</radialGradient>
</defs>
</svg>
