<svg width="37" height="35" viewBox="0 0 37 35" fill="none" xmlns="http://www.w3.org/2000/svg">
<g filter="url(#filter0_di_728_83)">
<ellipse cx="14.0769" cy="10.5607" rx="8.07692" ry="7.56073" fill="#FBCA1C"/>
<ellipse cx="14.0769" cy="10.5607" rx="8.07692" ry="7.56073" fill="url(#paint0_radial_728_83)" fill-opacity="0.2"/>
</g>
<g filter="url(#filter1_dii_728_83)">
<path d="M12.9231 25.835C12.9231 25.1541 13.4751 24.6021 14.156 24.6021H15.228V25.4426C15.228 26.17 14.6383 26.7597 13.9109 26.7597H13.8478C13.3371 26.7597 12.9231 26.3457 12.9231 25.835Z" fill="#379ADC"/>
</g>
<g filter="url(#filter2_dii_728_83)">
<path d="M16.3846 29.0753C16.3846 28.3944 16.9366 27.8424 17.6175 27.8424H18.6895V28.6829C18.6895 29.4103 18.0998 30 17.3724 30H17.3093C16.7986 30 16.3846 29.586 16.3846 29.0753Z" fill="#379ADC"/>
</g>
<g filter="url(#filter3_dii_728_83)">
<path d="M22.1539 25.835C22.1539 25.1541 22.7059 24.6021 23.3868 24.6021H24.4587V25.4426C24.4587 26.17 23.8691 26.7597 23.1417 26.7597H23.0785C22.5679 26.7597 22.1539 26.3457 22.1539 25.835Z" fill="#379ADC"/>
</g>
<g filter="url(#filter4_di_728_83)">
<path d="M30.9889 13.8011C30.9962 13.6819 31 13.5619 31 13.441C31 10.0607 28.0726 7.32043 24.4615 7.32043C22.7239 7.32043 21.1446 7.95494 19.9735 8.98997C19.3812 8.84037 18.7582 8.76057 18.1154 8.76057C15.7902 8.76057 13.7256 9.80456 12.4271 11.4191C12.0314 11.3287 11.6178 11.2808 11.1923 11.2808C8.32466 11.2808 6 13.4569 6 16.1413C6 16.1538 6.00005 16.1663 6.00014 16.1788C6.00005 16.1876 6 16.1964 6 16.2052C6 19.4508 8.81072 22.0819 12.2779 22.0819H22.1538C27.0395 22.0819 31 18.3744 31 13.8011H30.9889Z" fill="white"/>
<path d="M30.9889 13.8011C30.9962 13.6819 31 13.5619 31 13.441C31 10.0607 28.0726 7.32043 24.4615 7.32043C22.7239 7.32043 21.1446 7.95494 19.9735 8.98997C19.3812 8.84037 18.7582 8.76057 18.1154 8.76057C15.7902 8.76057 13.7256 9.80456 12.4271 11.4191C12.0314 11.3287 11.6178 11.2808 11.1923 11.2808C8.32466 11.2808 6 13.4569 6 16.1413C6 16.1538 6.00005 16.1663 6.00014 16.1788C6.00005 16.1876 6 16.1964 6 16.2052C6 19.4508 8.81072 22.0819 12.2779 22.0819H22.1538C27.0395 22.0819 31 18.3744 31 13.8011H30.9889Z" fill="url(#paint1_radial_728_83)" fill-opacity="0.2"/>
</g>
<defs>
<filter id="filter0_di_728_83" x="3.33334" y="0.333336" width="21.4872" height="20.4548" filterUnits="userSpaceOnUse" color-interpolation-filters="sRGB">
<feFlood flood-opacity="0" result="BackgroundImageFix"/>
<feColorMatrix in="SourceAlpha" type="matrix" values="0 0 0 0 0 0 0 0 0 0 0 0 0 0 0 0 0 0 127 0" result="hardAlpha"/>
<feMorphology radius="0.999999" operator="dilate" in="SourceAlpha" result="effect1_dropShadow_728_83"/>
<feOffset/>
<feGaussianBlur stdDeviation="0.833332"/>
<feComposite in2="hardAlpha" operator="out"/>
<feColorMatrix type="matrix" values="0 0 0 0 0.984314 0 0 0 0 0.792157 0 0 0 0 0.109804 0 0 0 0.2 0"/>
<feBlend mode="normal" in2="BackgroundImageFix" result="effect1_dropShadow_728_83"/>
<feBlend mode="normal" in="SourceGraphic" in2="effect1_dropShadow_728_83" result="shape"/>
<feColorMatrix in="SourceAlpha" type="matrix" values="0 0 0 0 0 0 0 0 0 0 0 0 0 0 0 0 0 0 127 0" result="hardAlpha"/>
<feOffset/>
<feGaussianBlur stdDeviation="1.5"/>
<feComposite in2="hardAlpha" operator="arithmetic" k2="-1" k3="1"/>
<feColorMatrix type="matrix" values="0 0 0 0 0.984314 0 0 0 0 0.529569 0 0 0 0 0.109804 0 0 0 0.5 0"/>
<feBlend mode="normal" in2="shape" result="effect2_innerShadow_728_83"/>
</filter>
<filter id="filter1_dii_728_83" x="9.72702" y="23.0041" width="8.69703" height="8.54972" filterUnits="userSpaceOnUse" color-interpolation-filters="sRGB">
<feFlood flood-opacity="0" result="BackgroundImageFix"/>
<feColorMatrix in="SourceAlpha" type="matrix" values="0 0 0 0 0 0 0 0 0 0 0 0 0 0 0 0 0 0 127 0" result="hardAlpha"/>
<feOffset dy="1.59804"/>
<feGaussianBlur stdDeviation="1.59804"/>
<feComposite in2="hardAlpha" operator="out"/>
<feColorMatrix type="matrix" values="0 0 0 0 0.282353 0 0 0 0 0.517647 0 0 0 0 0.933333 0 0 0 0.2 0"/>
<feBlend mode="normal" in2="BackgroundImageFix" result="effect1_dropShadow_728_83"/>
<feBlend mode="normal" in="SourceGraphic" in2="effect1_dropShadow_728_83" result="shape"/>
<feColorMatrix in="SourceAlpha" type="matrix" values="0 0 0 0 0 0 0 0 0 0 0 0 0 0 0 0 0 0 127 0" result="hardAlpha"/>
<feOffset/>
<feGaussianBlur stdDeviation="0.39951"/>
<feComposite in2="hardAlpha" operator="arithmetic" k2="-1" k3="1"/>
<feColorMatrix type="matrix" values="0 0 0 0 0 0 0 0 0 0 0 0 0 0 0 0 0 0 0.25 0"/>
<feBlend mode="normal" in2="shape" result="effect2_innerShadow_728_83"/>
<feColorMatrix in="SourceAlpha" type="matrix" values="0 0 0 0 0 0 0 0 0 0 0 0 0 0 0 0 0 0 127 0" result="hardAlpha"/>
<feOffset dy="-0.39951"/>
<feGaussianBlur stdDeviation="0.39951"/>
<feComposite in2="hardAlpha" operator="arithmetic" k2="-1" k3="1"/>
<feColorMatrix type="matrix" values="0 0 0 0 0 0 0 0 0 0 0 0 0 0 0 0 0 0 0.25 0"/>
<feBlend mode="normal" in2="effect2_innerShadow_728_83" result="effect3_innerShadow_728_83"/>
</filter>
<filter id="filter2_dii_728_83" x="13.1886" y="26.2444" width="8.69703" height="8.54972" filterUnits="userSpaceOnUse" color-interpolation-filters="sRGB">
<feFlood flood-opacity="0" result="BackgroundImageFix"/>
<feColorMatrix in="SourceAlpha" type="matrix" values="0 0 0 0 0 0 0 0 0 0 0 0 0 0 0 0 0 0 127 0" result="hardAlpha"/>
<feOffset dy="1.59804"/>
<feGaussianBlur stdDeviation="1.59804"/>
<feComposite in2="hardAlpha" operator="out"/>
<feColorMatrix type="matrix" values="0 0 0 0 0.282353 0 0 0 0 0.517647 0 0 0 0 0.933333 0 0 0 0.2 0"/>
<feBlend mode="normal" in2="BackgroundImageFix" result="effect1_dropShadow_728_83"/>
<feBlend mode="normal" in="SourceGraphic" in2="effect1_dropShadow_728_83" result="shape"/>
<feColorMatrix in="SourceAlpha" type="matrix" values="0 0 0 0 0 0 0 0 0 0 0 0 0 0 0 0 0 0 127 0" result="hardAlpha"/>
<feOffset/>
<feGaussianBlur stdDeviation="0.39951"/>
<feComposite in2="hardAlpha" operator="arithmetic" k2="-1" k3="1"/>
<feColorMatrix type="matrix" values="0 0 0 0 0 0 0 0 0 0 0 0 0 0 0 0 0 0 0.25 0"/>
<feBlend mode="normal" in2="shape" result="effect2_innerShadow_728_83"/>
<feColorMatrix in="SourceAlpha" type="matrix" values="0 0 0 0 0 0 0 0 0 0 0 0 0 0 0 0 0 0 127 0" result="hardAlpha"/>
<feOffset dy="-0.39951"/>
<feGaussianBlur stdDeviation="0.39951"/>
<feComposite in2="hardAlpha" operator="arithmetic" k2="-1" k3="1"/>
<feColorMatrix type="matrix" values="0 0 0 0 0 0 0 0 0 0 0 0 0 0 0 0 0 0 0.25 0"/>
<feBlend mode="normal" in2="effect2_innerShadow_728_83" result="effect3_innerShadow_728_83"/>
</filter>
<filter id="filter3_dii_728_83" x="18.9578" y="23.0041" width="8.69703" height="8.54972" filterUnits="userSpaceOnUse" color-interpolation-filters="sRGB">
<feFlood flood-opacity="0" result="BackgroundImageFix"/>
<feColorMatrix in="SourceAlpha" type="matrix" values="0 0 0 0 0 0 0 0 0 0 0 0 0 0 0 0 0 0 127 0" result="hardAlpha"/>
<feOffset dy="1.59804"/>
<feGaussianBlur stdDeviation="1.59804"/>
<feComposite in2="hardAlpha" operator="out"/>
<feColorMatrix type="matrix" values="0 0 0 0 0.282353 0 0 0 0 0.517647 0 0 0 0 0.933333 0 0 0 0.2 0"/>
<feBlend mode="normal" in2="BackgroundImageFix" result="effect1_dropShadow_728_83"/>
<feBlend mode="normal" in="SourceGraphic" in2="effect1_dropShadow_728_83" result="shape"/>
<feColorMatrix in="SourceAlpha" type="matrix" values="0 0 0 0 0 0 0 0 0 0 0 0 0 0 0 0 0 0 127 0" result="hardAlpha"/>
<feOffset/>
<feGaussianBlur stdDeviation="0.39951"/>
<feComposite in2="hardAlpha" operator="arithmetic" k2="-1" k3="1"/>
<feColorMatrix type="matrix" values="0 0 0 0 0 0 0 0 0 0 0 0 0 0 0 0 0 0 0.25 0"/>
<feBlend mode="normal" in2="shape" result="effect2_innerShadow_728_83"/>
<feColorMatrix in="SourceAlpha" type="matrix" values="0 0 0 0 0 0 0 0 0 0 0 0 0 0 0 0 0 0 127 0" result="hardAlpha"/>
<feOffset dy="-0.39951"/>
<feGaussianBlur stdDeviation="0.39951"/>
<feComposite in2="hardAlpha" operator="arithmetic" k2="-1" k3="1"/>
<feColorMatrix type="matrix" values="0 0 0 0 0 0 0 0 0 0 0 0 0 0 0 0 0 0 0.25 0"/>
<feBlend mode="normal" in2="effect2_innerShadow_728_83" result="effect3_innerShadow_728_83"/>
</filter>
<filter id="filter4_di_728_83" x="0.666673" y="5.32044" width="35.6667" height="25.4281" filterUnits="userSpaceOnUse" color-interpolation-filters="sRGB">
<feFlood flood-opacity="0" result="BackgroundImageFix"/>
<feColorMatrix in="SourceAlpha" type="matrix" values="0 0 0 0 0 0 0 0 0 0 0 0 0 0 0 0 0 0 127 0" result="hardAlpha"/>
<feOffset dy="3.33333"/>
<feGaussianBlur stdDeviation="2.66666"/>
<feComposite in2="hardAlpha" operator="out"/>
<feColorMatrix type="matrix" values="0 0 0 0 0.301961 0 0 0 0 0.368627 0 0 0 0 0.435294 0 0 0 0.08 0"/>
<feBlend mode="normal" in2="BackgroundImageFix" result="effect1_dropShadow_728_83"/>
<feBlend mode="normal" in="SourceGraphic" in2="effect1_dropShadow_728_83" result="shape"/>
<feColorMatrix in="SourceAlpha" type="matrix" values="0 0 0 0 0 0 0 0 0 0 0 0 0 0 0 0 0 0 127 0" result="hardAlpha"/>
<feOffset/>
<feGaussianBlur stdDeviation="0.999999"/>
<feComposite in2="hardAlpha" operator="arithmetic" k2="-1" k3="1"/>
<feColorMatrix type="matrix" values="0 0 0 0 0.301961 0 0 0 0 0.368627 0 0 0 0 0.435294 0 0 0 0.08 0"/>
<feBlend mode="normal" in2="shape" result="effect2_innerShadow_728_83"/>
</filter>
<radialGradient id="paint0_radial_728_83" cx="0" cy="0" r="1" gradientUnits="userSpaceOnUse" gradientTransform="translate(12.1538 7.68045) rotate(48.8452) scale(10.5199 7.43015)">
<stop stop-color="#FBCA1C"/>
<stop offset="1" stop-color="#E4750E"/>
</radialGradient>
<radialGradient id="paint1_radial_728_83" cx="0" cy="0" r="1" gradientUnits="userSpaceOnUse" gradientTransform="translate(23.5 8.76056) rotate(123.547) scale(18.7916 30.6229)">
<stop stop-opacity="0"/>
<stop offset="1" stop-color="#4D5E6F"/>
</radialGradient>
</defs>
</svg>
