<svg width="39" height="41" viewBox="0 0 39 41" fill="none" xmlns="http://www.w3.org/2000/svg">
<g filter="url(#filter0_di_728_127)">
<ellipse cx="13.875" cy="10.5003" rx="7.87499" ry="7.50027" fill="#FBCA1C"/>
<ellipse cx="13.875" cy="10.5003" rx="7.87499" ry="7.50027" fill="url(#paint0_radial_728_127)" fill-opacity="0.2"/>
</g>
<g filter="url(#filter1_di_728_127)">
<path d="M25.4216 23.986C25.4216 23.9199 25.3943 23.8564 25.3456 23.8096C25.297 23.7628 25.231 23.7366 25.1623 23.7366C25.0935 23.7366 25.0275 23.7628 24.9789 23.8096C24.9303 23.8564 24.9029 23.9199 24.9029 23.986V24.226L24.7333 24.1397C24.7032 24.1244 24.6703 24.1149 24.6364 24.1118C24.6025 24.1088 24.5683 24.1122 24.5357 24.1218C24.5032 24.1315 24.4729 24.1472 24.4467 24.1681C24.4205 24.189 24.3988 24.2146 24.3829 24.2436C24.3669 24.2726 24.3571 24.3042 24.3539 24.3369C24.3507 24.3695 24.3543 24.4024 24.3643 24.4337C24.3743 24.465 24.3907 24.4941 24.4124 24.5193C24.4341 24.5446 24.4608 24.5654 24.4909 24.5807L24.9029 24.7903V25.2648C24.7204 25.3102 24.5542 25.4027 24.4221 25.5322L23.9948 25.2947L24.0122 24.8467C24.0147 24.7805 23.9898 24.7161 23.943 24.6677C23.8962 24.6192 23.8313 24.5905 23.7626 24.5881C23.6938 24.5857 23.6269 24.6096 23.5765 24.6546C23.5261 24.6996 23.4963 24.7621 23.4938 24.8282L23.4868 25.0126L23.2708 24.8928C23.2412 24.8752 23.2083 24.8636 23.174 24.8584C23.1397 24.8533 23.1047 24.8549 23.0711 24.863C23.0374 24.8712 23.0058 24.8858 22.9781 24.9059C22.9504 24.926 22.9271 24.9513 22.9098 24.9802C22.8924 25.0091 22.8813 25.0411 22.877 25.0742C22.8727 25.1073 22.8754 25.141 22.8849 25.1731C22.8943 25.2052 22.9104 25.2352 22.9322 25.2612C22.9539 25.2872 22.9809 25.3088 23.0114 25.3246L23.2274 25.4446L23.0649 25.5429C23.0081 25.5788 22.9683 25.6346 22.9539 25.6984C22.9395 25.7622 22.9516 25.8289 22.9877 25.8841C23.0238 25.9394 23.081 25.9789 23.147 25.994C23.213 26.0092 23.2826 25.9989 23.3408 25.9653L23.7355 25.7268L24.1626 25.964C24.1121 26.1388 24.1121 26.3236 24.1626 26.4984L23.7355 26.7353L23.3408 26.4971C23.2826 26.4635 23.213 26.4532 23.147 26.4683C23.081 26.4835 23.0238 26.523 22.9877 26.5782C22.9516 26.6335 22.9395 26.7002 22.9539 26.764C22.9683 26.8278 23.0081 26.8836 23.0649 26.9195L23.2274 27.0177L23.0114 27.1375C22.9819 27.1539 22.9561 27.1757 22.9353 27.2017C22.9146 27.2277 22.8993 27.2573 22.8905 27.289C22.8817 27.3206 22.8794 27.3537 22.8839 27.3862C22.8883 27.4187 22.8994 27.45 22.9164 27.4784C22.9334 27.5068 22.9561 27.5316 22.9831 27.5516C23.0101 27.5716 23.041 27.5862 23.0739 27.5947C23.1068 27.6032 23.1411 27.6053 23.1749 27.6011C23.2087 27.5968 23.2412 27.5862 23.2708 27.5698L23.4865 27.4498L23.4938 27.6344C23.4951 27.6672 23.503 27.6993 23.5172 27.7291C23.5314 27.7589 23.5516 27.7857 23.5766 27.808C23.6015 27.8303 23.6308 27.8476 23.6628 27.859C23.6947 27.8704 23.7287 27.8756 23.7627 27.8744C23.7967 27.8732 23.8302 27.8655 23.8611 27.8518C23.8921 27.8382 23.92 27.8188 23.9431 27.7947C23.9663 27.7707 23.9843 27.7425 23.9962 27.7118C24.008 27.6811 24.0134 27.6484 24.0122 27.6157L23.9948 27.1677L24.4221 26.9302C24.5542 27.0597 24.7204 27.1522 24.9029 27.1976V27.6721L24.4909 27.8816C24.4301 27.9126 24.3845 27.9655 24.3643 28.0287C24.344 28.0919 24.3507 28.1603 24.3829 28.2188C24.415 28.2773 24.47 28.3211 24.5357 28.3406C24.6015 28.36 24.6725 28.3536 24.7333 28.3227L24.9029 28.2364V28.4763C24.9029 28.5425 24.9303 28.606 24.9789 28.6527C25.0275 28.6995 25.0935 28.7258 25.1623 28.7258C25.231 28.7258 25.297 28.6995 25.3456 28.6527C25.3943 28.606 25.4216 28.5425 25.4216 28.4763V28.2364L25.5912 28.3227C25.652 28.3536 25.7231 28.36 25.7888 28.3406C25.8545 28.3211 25.9095 28.2773 25.9417 28.2188C25.9738 28.1603 25.9805 28.0919 25.9602 28.0287C25.94 27.9655 25.8944 27.9126 25.8336 27.8816L25.4216 27.6721V27.1976C25.6041 27.1522 25.7703 27.0599 25.9024 26.9304L26.3297 27.1677L26.3124 27.6157C26.3111 27.6484 26.3165 27.6811 26.3284 27.7118C26.3402 27.7425 26.3582 27.7707 26.3814 27.7947C26.4046 27.8188 26.4324 27.8382 26.4634 27.8518C26.4943 27.8655 26.5278 27.8732 26.5618 27.8744C26.5959 27.8756 26.6298 27.8704 26.6618 27.859C26.6937 27.8476 26.723 27.8303 26.7479 27.808C26.7729 27.7857 26.7931 27.7589 26.8073 27.7291C26.8215 27.6993 26.8295 27.6672 26.8307 27.6344L26.8377 27.4498L27.0538 27.5698C27.0833 27.5864 27.1159 27.5973 27.1498 27.6018C27.1837 27.6062 27.2181 27.6042 27.2512 27.5958C27.2843 27.5874 27.3153 27.5727 27.3424 27.5528C27.3696 27.5328 27.3924 27.5078 27.4095 27.4793C27.4266 27.4508 27.4377 27.4194 27.4421 27.3867C27.4465 27.3541 27.4441 27.321 27.4352 27.2892C27.4262 27.2575 27.4108 27.2277 27.3899 27.2017C27.3689 27.1757 27.3428 27.154 27.3131 27.1377L27.0973 27.018L27.2597 26.9197C27.3179 26.8845 27.3592 26.8285 27.3746 26.764C27.3899 26.6995 27.3779 26.6317 27.3413 26.5757C27.3048 26.5197 27.2465 26.4799 27.1795 26.4652C27.1124 26.4504 27.042 26.4619 26.9837 26.4971L26.5891 26.7356L26.1619 26.4986C26.2125 26.3237 26.2125 26.1389 26.1619 25.964L26.5891 25.7268L26.9837 25.9653C27.042 26.0005 27.1124 26.0119 27.1795 25.9972C27.2465 25.9825 27.3048 25.9427 27.3413 25.8867C27.3779 25.8306 27.3899 25.7629 27.3746 25.6984C27.3592 25.6339 27.3179 25.5779 27.2597 25.5427L27.0971 25.4446L27.3131 25.3246C27.3428 25.3084 27.3689 25.2866 27.3899 25.2606C27.4108 25.2346 27.4262 25.2049 27.4352 25.1731C27.4441 25.1414 27.4465 25.1082 27.4421 25.0756C27.4377 25.043 27.4266 25.0115 27.4095 24.983C27.3924 24.9546 27.3696 24.9296 27.3424 24.9096C27.3153 24.8896 27.2843 24.875 27.2512 24.8666C27.2181 24.8582 27.1837 24.8562 27.1498 24.8606C27.1159 24.8651 27.0833 24.8759 27.0538 24.8926L26.8377 25.0123L26.8307 24.828C26.8295 24.7952 26.8215 24.763 26.8073 24.7333C26.7931 24.7035 26.7729 24.6767 26.7479 24.6544C26.723 24.6321 26.6937 24.6148 26.6618 24.6034C26.6298 24.592 26.5959 24.5867 26.5618 24.588C26.5278 24.5892 26.4943 24.5969 26.4634 24.6105C26.4324 24.6242 26.4046 24.6436 26.3814 24.6676C26.3582 24.6916 26.3402 24.7198 26.3284 24.7505C26.3165 24.7813 26.3111 24.8139 26.3124 24.8467L26.3297 25.2947L25.9024 25.5319C25.7703 25.4025 25.6041 25.3101 25.4216 25.2648V24.7903L25.8336 24.5807C25.8944 24.5498 25.94 24.4969 25.9602 24.4337C25.9805 24.3705 25.9738 24.3021 25.9417 24.2436C25.9095 24.1851 25.8545 24.1413 25.7888 24.1218C25.7231 24.1023 25.652 24.1088 25.5912 24.1397L25.4216 24.226V23.986Z" fill="url(#paint1_linear_728_127)"/>
<path d="M18.6716 27.2602C18.6716 27.1941 18.6443 27.1306 18.5956 27.0838C18.547 27.037 18.481 27.0108 18.4123 27.0108C18.3435 27.0108 18.2775 27.037 18.2289 27.0838C18.1803 27.1306 18.1529 27.1941 18.1529 27.2602V27.5002L17.9833 27.4139C17.9532 27.3986 17.9203 27.3891 17.8864 27.386C17.8525 27.383 17.8183 27.3864 17.7857 27.396C17.7532 27.4057 17.7229 27.4214 17.6967 27.4423C17.6705 27.4632 17.6488 27.4888 17.6329 27.5178C17.6169 27.5467 17.6071 27.5784 17.6039 27.6111C17.6007 27.6437 17.6043 27.6766 17.6143 27.7079C17.6243 27.7392 17.6407 27.7683 17.6624 27.7935C17.6841 27.8187 17.7108 27.8396 17.7409 27.8549L18.1529 28.0645V28.539C17.9704 28.5844 17.8042 28.6769 17.6721 28.8064L17.2448 28.5689L17.2622 28.1209C17.2647 28.0547 17.2398 27.9903 17.193 27.9418C17.1462 27.8934 17.0813 27.8647 17.0126 27.8623C16.9438 27.8598 16.8769 27.8838 16.8265 27.9288C16.7761 27.9738 16.7463 28.0363 16.7438 28.1024L16.7368 28.2868L16.5208 28.167C16.4912 28.1494 16.4583 28.1378 16.424 28.1326C16.3897 28.1275 16.3547 28.1291 16.3211 28.1372C16.2874 28.1454 16.2558 28.1599 16.2281 28.1801C16.2004 28.2002 16.1771 28.2255 16.1598 28.2544C16.1424 28.2833 16.1313 28.3153 16.127 28.3484C16.1227 28.3815 16.1254 28.4152 16.1349 28.4473C16.1443 28.4794 16.1604 28.5094 16.1822 28.5354C16.2039 28.5614 16.2309 28.583 16.2614 28.5988L16.4774 28.7188L16.3149 28.8171C16.2581 28.853 16.2183 28.9088 16.2039 28.9726C16.1895 29.0364 16.2016 29.103 16.2377 29.1583C16.2738 29.2136 16.331 29.253 16.397 29.2682C16.463 29.2834 16.5326 29.2731 16.5908 29.2394L16.9855 29.001L17.4126 29.2382C17.3621 29.413 17.3621 29.5977 17.4126 29.7725L16.9855 30.0095L16.5908 29.7713C16.5326 29.7377 16.463 29.7274 16.397 29.7425C16.331 29.7577 16.2738 29.7972 16.2377 29.8524C16.2016 29.9077 16.1895 29.9744 16.2039 30.0382C16.2183 30.102 16.2581 30.1578 16.3149 30.1936L16.4774 30.2919L16.2614 30.4117C16.2319 30.4281 16.2061 30.4499 16.1853 30.4759C16.1646 30.5019 16.1493 30.5315 16.1405 30.5632C16.1317 30.5948 16.1294 30.6279 16.1339 30.6603C16.1383 30.6928 16.1494 30.7242 16.1664 30.7526C16.1834 30.781 16.2061 30.8058 16.2331 30.8258C16.2601 30.8457 16.291 30.8604 16.3239 30.8689C16.3568 30.8774 16.3911 30.8795 16.4249 30.8753C16.4587 30.871 16.4912 30.8604 16.5208 30.844L16.7365 30.724L16.7438 30.9086C16.7451 30.9413 16.753 30.9735 16.7672 31.0033C16.7814 31.0331 16.8016 31.0599 16.8266 31.0822C16.8515 31.1045 16.8808 31.1218 16.9128 31.1332C16.9447 31.1446 16.9787 31.1498 17.0127 31.1486C17.0467 31.1474 17.0802 31.1397 17.1111 31.126C17.1421 31.1124 17.17 31.093 17.1931 31.0689C17.2163 31.0449 17.2343 31.0167 17.2462 30.986C17.258 30.9553 17.2634 30.9226 17.2622 30.8899L17.2448 30.4419L17.6721 30.2044C17.8042 30.3339 17.9704 30.4263 18.1529 30.4718V30.9463L17.7409 31.1558C17.6801 31.1868 17.6345 31.2396 17.6143 31.3029C17.594 31.3661 17.6007 31.4345 17.6329 31.493C17.665 31.5515 17.72 31.5953 17.7857 31.6147C17.8515 31.6342 17.9225 31.6278 17.9833 31.5969L18.1529 31.5106V31.7505C18.1529 31.8167 18.1803 31.8802 18.2289 31.9269C18.2775 31.9737 18.3435 32 18.4123 32C18.481 32 18.547 31.9737 18.5956 31.9269C18.6443 31.8802 18.6716 31.8167 18.6716 31.7505V31.5106L18.8412 31.5969C18.902 31.6278 18.9731 31.6342 19.0388 31.6147C19.1045 31.5953 19.1595 31.5515 19.1917 31.493C19.2238 31.4345 19.2305 31.3661 19.2102 31.3029C19.19 31.2396 19.1444 31.1868 19.0836 31.1558L18.6716 30.9463V30.4718C18.8541 30.4264 19.0203 30.3341 19.1524 30.2046L19.5797 30.4419L19.5624 30.8899C19.5611 30.9226 19.5665 30.9553 19.5784 30.986C19.5902 31.0167 19.6082 31.0449 19.6314 31.0689C19.6546 31.093 19.6824 31.1124 19.7134 31.126C19.7443 31.1397 19.7778 31.1474 19.8118 31.1486C19.8459 31.1498 19.8798 31.1446 19.9117 31.1332C19.9437 31.1218 19.973 31.1045 19.9979 31.0822C20.0229 31.0599 20.0431 31.0331 20.0573 31.0033C20.0715 30.9735 20.0795 30.9413 20.0807 30.9086L20.0877 30.724L20.3038 30.844C20.3333 30.8606 20.3659 30.8715 20.3998 30.8759C20.4337 30.8804 20.4681 30.8784 20.5012 30.87C20.5343 30.8616 20.5653 30.8469 20.5924 30.827C20.6196 30.807 20.6424 30.782 20.6595 30.7535C20.6766 30.725 20.6877 30.6936 20.6921 30.6609C20.6965 30.6283 20.6941 30.5952 20.6852 30.5634C20.6762 30.5317 20.6608 30.5019 20.6399 30.4759C20.6189 30.4499 20.5928 30.4282 20.5631 30.4119L20.3473 30.2922L20.5097 30.1939C20.5679 30.1587 20.6092 30.1027 20.6246 30.0382C20.6399 29.9736 20.6279 29.9059 20.5913 29.8499C20.5548 29.7938 20.4965 29.7541 20.4295 29.7393C20.3624 29.7246 20.292 29.7361 20.2337 29.7713L19.8391 30.0098L19.4119 29.7728C19.4625 29.5979 19.4625 29.4131 19.4119 29.2382L19.8391 29.001L20.2337 29.2394C20.292 29.2746 20.3624 29.2861 20.4295 29.2714C20.4965 29.2567 20.5548 29.2169 20.5913 29.1609C20.6279 29.1048 20.6399 29.0371 20.6246 28.9726C20.6092 28.9081 20.5679 28.8521 20.5097 28.8169L20.3471 28.7188L20.5631 28.5988C20.5928 28.5826 20.6189 28.5608 20.6399 28.5348C20.6608 28.5088 20.6762 28.4791 20.6852 28.4473C20.6941 28.4156 20.6965 28.3824 20.6921 28.3498C20.6877 28.3172 20.6766 28.2857 20.6595 28.2572C20.6424 28.2287 20.6196 28.2038 20.5924 28.1838C20.5653 28.1638 20.5343 28.1492 20.5012 28.1408C20.4681 28.1324 20.4337 28.1303 20.3998 28.1348C20.3659 28.1393 20.3333 28.1501 20.3038 28.1668L20.0877 28.2865L20.0807 28.1022C20.0795 28.0694 20.0715 28.0372 20.0573 28.0074C20.0431 27.9777 20.0229 27.9509 19.9979 27.9286C19.973 27.9063 19.9437 27.889 19.9117 27.8776C19.8798 27.8662 19.8459 27.8609 19.8118 27.8622C19.7778 27.8634 19.7443 27.8711 19.7134 27.8847C19.6824 27.8984 19.6546 27.9178 19.6314 27.9418C19.6082 27.9658 19.5902 27.994 19.5784 28.0247C19.5665 28.0555 19.5611 28.0881 19.5624 28.1209L19.5797 28.5689L19.1524 28.8061C19.0203 28.6767 18.8541 28.5843 18.6716 28.539V28.0645L19.0836 27.8549C19.1444 27.824 19.19 27.7711 19.2102 27.7079C19.2305 27.6447 19.2238 27.5763 19.1917 27.5178C19.1595 27.4593 19.1045 27.4155 19.0388 27.396C18.9731 27.3765 18.902 27.383 18.8412 27.4139L18.6716 27.5002V27.2602Z" fill="url(#paint2_linear_728_127)"/>
<path d="M13.0466 23.986C13.0466 23.9199 13.0193 23.8564 12.9706 23.8096C12.922 23.7628 12.856 23.7366 12.7873 23.7366C12.7185 23.7366 12.6525 23.7628 12.6039 23.8096C12.5553 23.8564 12.5279 23.9199 12.5279 23.986V24.226L12.3583 24.1397C12.3282 24.1244 12.2953 24.1149 12.2614 24.1118C12.2275 24.1088 12.1933 24.1122 12.1607 24.1218C12.1282 24.1315 12.0979 24.1472 12.0717 24.1681C12.0455 24.189 12.0238 24.2146 12.0079 24.2436C11.9919 24.2726 11.9821 24.3042 11.9789 24.3369C11.9757 24.3695 11.9793 24.4024 11.9893 24.4337C11.9993 24.465 12.0157 24.4941 12.0374 24.5193C12.0591 24.5446 12.0858 24.5654 12.1159 24.5807L12.5279 24.7903V25.2648C12.3454 25.3102 12.1792 25.4027 12.0471 25.5322L11.6198 25.2947L11.6372 24.8467C11.6397 24.7805 11.6148 24.7161 11.568 24.6677C11.5212 24.6192 11.4563 24.5905 11.3876 24.5881C11.3188 24.5857 11.2519 24.6096 11.2015 24.6546C11.1511 24.6996 11.1213 24.7621 11.1188 24.8282L11.1118 25.0126L10.8958 24.8928C10.8662 24.8752 10.8333 24.8636 10.799 24.8584C10.7647 24.8533 10.7297 24.8549 10.6961 24.863C10.6624 24.8712 10.6308 24.8858 10.6031 24.9059C10.5754 24.926 10.5521 24.9513 10.5348 24.9802C10.5174 25.0091 10.5063 25.0411 10.502 25.0742C10.4977 25.1073 10.5004 25.141 10.5099 25.1731C10.5193 25.2052 10.5354 25.2352 10.5572 25.2612C10.5789 25.2872 10.6059 25.3088 10.6364 25.3246L10.8524 25.4446L10.6899 25.5429C10.6331 25.5788 10.5933 25.6346 10.5789 25.6984C10.5645 25.7622 10.5766 25.8289 10.6127 25.8841C10.6488 25.9394 10.706 25.9789 10.772 25.994C10.838 26.0092 10.9076 25.9989 10.9658 25.9653L11.3605 25.7268L11.7876 25.964C11.7371 26.1388 11.7371 26.3236 11.7876 26.4984L11.3605 26.7353L10.9658 26.4971C10.9076 26.4635 10.838 26.4532 10.772 26.4683C10.706 26.4835 10.6488 26.523 10.6127 26.5782C10.5766 26.6335 10.5645 26.7002 10.5789 26.764C10.5933 26.8278 10.6331 26.8836 10.6899 26.9195L10.8524 27.0177L10.6364 27.1375C10.6069 27.1539 10.5811 27.1757 10.5603 27.2017C10.5396 27.2277 10.5243 27.2573 10.5155 27.289C10.5067 27.3206 10.5044 27.3537 10.5089 27.3862C10.5133 27.4187 10.5244 27.45 10.5414 27.4784C10.5584 27.5068 10.5811 27.5316 10.6081 27.5516C10.6351 27.5716 10.666 27.5862 10.6989 27.5947C10.7318 27.6032 10.7661 27.6053 10.7999 27.6011C10.8337 27.5968 10.8662 27.5862 10.8958 27.5698L11.1115 27.4498L11.1188 27.6344C11.1201 27.6672 11.128 27.6993 11.1422 27.7291C11.1564 27.7589 11.1766 27.7857 11.2016 27.808C11.2265 27.8303 11.2558 27.8476 11.2878 27.859C11.3197 27.8704 11.3537 27.8756 11.3877 27.8744C11.4217 27.8732 11.4552 27.8655 11.4861 27.8518C11.5171 27.8382 11.545 27.8188 11.5681 27.7947C11.5913 27.7707 11.6093 27.7425 11.6212 27.7118C11.633 27.6811 11.6384 27.6484 11.6372 27.6157L11.6198 27.1677L12.0471 26.9302C12.1792 27.0597 12.3454 27.1522 12.5279 27.1976V27.6721L12.1159 27.8816C12.0551 27.9126 12.0095 27.9655 11.9893 28.0287C11.969 28.0919 11.9757 28.1603 12.0079 28.2188C12.04 28.2773 12.095 28.3211 12.1607 28.3406C12.2265 28.36 12.2975 28.3536 12.3583 28.3227L12.5279 28.2364V28.4763C12.5279 28.5425 12.5553 28.606 12.6039 28.6527C12.6525 28.6995 12.7185 28.7258 12.7873 28.7258C12.856 28.7258 12.922 28.6995 12.9706 28.6527C13.0193 28.606 13.0466 28.5425 13.0466 28.4763V28.2364L13.2162 28.3227C13.277 28.3536 13.3481 28.36 13.4138 28.3406C13.4795 28.3211 13.5345 28.2773 13.5667 28.2188C13.5988 28.1603 13.6055 28.0919 13.5852 28.0287C13.565 27.9655 13.5194 27.9126 13.4586 27.8816L13.0466 27.6721V27.1976C13.2291 27.1522 13.3953 27.0599 13.5274 26.9304L13.9547 27.1677L13.9374 27.6157C13.9361 27.6484 13.9415 27.6811 13.9534 27.7118C13.9652 27.7425 13.9832 27.7707 14.0064 27.7947C14.0296 27.8188 14.0574 27.8382 14.0884 27.8518C14.1193 27.8655 14.1528 27.8732 14.1868 27.8744C14.2209 27.8756 14.2548 27.8704 14.2867 27.859C14.3187 27.8476 14.348 27.8303 14.3729 27.808C14.3979 27.7857 14.4181 27.7589 14.4323 27.7291C14.4465 27.6993 14.4545 27.6672 14.4557 27.6344L14.4627 27.4498L14.6788 27.5698C14.7083 27.5864 14.7409 27.5973 14.7748 27.6018C14.8087 27.6062 14.8431 27.6042 14.8762 27.5958C14.9093 27.5874 14.9403 27.5727 14.9674 27.5528C14.9946 27.5328 15.0174 27.5078 15.0345 27.4793C15.0516 27.4508 15.0627 27.4194 15.0671 27.3867C15.0715 27.3541 15.0691 27.321 15.0602 27.2892C15.0512 27.2575 15.0358 27.2277 15.0149 27.2017C14.9939 27.1757 14.9678 27.154 14.9381 27.1377L14.7223 27.018L14.8847 26.9197C14.9429 26.8845 14.9842 26.8285 14.9996 26.764C15.0149 26.6995 15.0029 26.6317 14.9663 26.5757C14.9298 26.5197 14.8715 26.4799 14.8045 26.4652C14.7374 26.4504 14.667 26.4619 14.6087 26.4971L14.2141 26.7356L13.7869 26.4986C13.8375 26.3237 13.8375 26.1389 13.7869 25.964L14.2141 25.7268L14.6087 25.9653C14.667 26.0005 14.7374 26.0119 14.8045 25.9972C14.8715 25.9825 14.9298 25.9427 14.9663 25.8867C15.0029 25.8306 15.0149 25.7629 14.9996 25.6984C14.9842 25.6339 14.9429 25.5779 14.8847 25.5427L14.7221 25.4446L14.9381 25.3246C14.9678 25.3084 14.9939 25.2866 15.0149 25.2606C15.0358 25.2346 15.0512 25.2049 15.0602 25.1731C15.0691 25.1414 15.0715 25.1082 15.0671 25.0756C15.0627 25.043 15.0516 25.0115 15.0345 24.983C15.0174 24.9546 14.9946 24.9296 14.9674 24.9096C14.9403 24.8896 14.9093 24.875 14.8762 24.8666C14.8431 24.8582 14.8087 24.8562 14.7748 24.8606C14.7409 24.8651 14.7083 24.8759 14.6788 24.8926L14.4627 25.0123L14.4557 24.828C14.4545 24.7952 14.4465 24.763 14.4323 24.7333C14.4181 24.7035 14.3979 24.6767 14.3729 24.6544C14.348 24.6321 14.3187 24.6148 14.2867 24.6034C14.2548 24.592 14.2209 24.5867 14.1868 24.588C14.1528 24.5892 14.1193 24.5969 14.0884 24.6105C14.0574 24.6242 14.0296 24.6436 14.0064 24.6676C13.9832 24.6916 13.9652 24.7198 13.9534 24.7505C13.9415 24.7813 13.9361 24.8139 13.9374 24.8467L13.9547 25.2947L13.5274 25.5319C13.3953 25.4025 13.2291 25.3101 13.0466 25.2648V24.7903L13.4586 24.5807C13.5194 24.5498 13.565 24.4969 13.5852 24.4337C13.6055 24.3705 13.5988 24.3021 13.5667 24.2436C13.5345 24.1851 13.4795 24.1413 13.4138 24.1218C13.3481 24.1023 13.277 24.1088 13.2162 24.1397L13.0466 24.226V23.986Z" fill="url(#paint3_linear_728_127)"/>
<path d="M32.988 12.6667C32.9959 12.5291 33 12.3905 33 12.2509C33 8.34729 29.8384 5.1828 25.9385 5.1828C24.0618 5.1828 22.3561 5.91554 21.0914 7.11079C20.4517 6.93803 19.7789 6.84588 19.0846 6.84588C16.5734 6.84588 14.3436 8.05148 12.9413 9.91597C12.5139 9.8116 12.0672 9.75627 11.6077 9.75627C8.51064 9.75627 6 12.2693 6 15.3692C6 15.3836 6.00005 15.3981 6.00015 15.4125C6.00005 15.4227 6 15.4328 6 15.4429C6 19.191 9.03557 22.2294 12.7801 22.2294H23.4462C28.7226 22.2294 33 17.948 33 12.6667H32.988Z" fill="white"/>
<path d="M32.988 12.6667C32.9959 12.5291 33 12.3905 33 12.2509C33 8.34729 29.8384 5.1828 25.9385 5.1828C24.0618 5.1828 22.3561 5.91554 21.0914 7.11079C20.4517 6.93803 19.7789 6.84588 19.0846 6.84588C16.5734 6.84588 14.3436 8.05148 12.9413 9.91597C12.5139 9.8116 12.0672 9.75627 11.6077 9.75627C8.51064 9.75627 6 12.2693 6 15.3692C6 15.3836 6.00005 15.3981 6.00015 15.4125C6.00005 15.4227 6 15.4328 6 15.4429C6 19.191 9.03557 22.2294 12.7801 22.2294H23.4462C28.7226 22.2294 33 17.948 33 12.6667H32.988Z" fill="url(#paint4_radial_728_127)" fill-opacity="0.2"/>
</g>
<path d="M9.93579 15.6639H13.5808C13.8581 15.6639 14.1291 15.5805 14.3597 15.4244C14.5902 15.2683 14.7699 15.0465 14.876 14.7869C14.9821 14.5273 15.0099 14.2416 14.9558 13.9661C14.9017 13.6905 14.7682 13.4374 14.5721 13.2387C14.376 13.04 14.1262 12.9047 13.8543 12.8499C13.5824 12.7951 13.3005 12.8232 13.0443 12.9307C12.7881 13.0382 12.5692 13.2203 12.4151 13.454C12.2611 13.6876 12.1789 13.9622 12.1789 14.2432V14.4461M10.4966 19.0734H18.6277C19.0159 19.0734 19.3954 19.19 19.7181 19.4086C20.0409 19.6271 20.2925 19.9377 20.441 20.3012C20.5896 20.6646 20.6284 21.0645 20.5527 21.4503C20.477 21.8361 20.29 22.1905 20.0156 22.4686C19.7411 22.7468 19.3914 22.9362 19.0106 23.0129C18.6299 23.0897 18.2353 23.0503 17.8766 22.8998C17.518 22.7492 17.2115 22.4943 16.9958 22.1672C16.7801 21.8402 16.665 21.4556 16.665 21.0623V20.7781" stroke="white" stroke-linecap="round"/>
<path opacity="0.5" d="M9.375 17.3686H18.6277C19.0159 17.3686 19.3954 17.252 19.7181 17.0334C20.0409 16.8149 20.2924 16.5043 20.441 16.1408C20.5895 15.7774 20.6284 15.3775 20.5527 14.9917C20.477 14.6059 20.29 14.2515 20.0155 13.9734C19.741 13.6952 19.3913 13.5058 19.0106 13.4291C18.6299 13.3523 18.2352 13.3917 17.8766 13.5422C17.518 13.6928 17.2114 13.9477 16.9958 14.2748C16.7801 14.6018 16.665 14.9864 16.665 15.3797V15.6639" stroke="white" stroke-opacity="0.95" stroke-linecap="round"/>
<defs>
<filter id="filter0_di_728_127" x="3.33334" y="0.333336" width="21.0833" height="20.3339" filterUnits="userSpaceOnUse" color-interpolation-filters="sRGB">
<feFlood flood-opacity="0" result="BackgroundImageFix"/>
<feColorMatrix in="SourceAlpha" type="matrix" values="0 0 0 0 0 0 0 0 0 0 0 0 0 0 0 0 0 0 127 0" result="hardAlpha"/>
<feMorphology radius="0.999999" operator="dilate" in="SourceAlpha" result="effect1_dropShadow_728_127"/>
<feOffset/>
<feGaussianBlur stdDeviation="0.833332"/>
<feComposite in2="hardAlpha" operator="out"/>
<feColorMatrix type="matrix" values="0 0 0 0 0.984314 0 0 0 0 0.792157 0 0 0 0 0.109804 0 0 0 0.2 0"/>
<feBlend mode="normal" in2="BackgroundImageFix" result="effect1_dropShadow_728_127"/>
<feBlend mode="normal" in="SourceGraphic" in2="effect1_dropShadow_728_127" result="shape"/>
<feColorMatrix in="SourceAlpha" type="matrix" values="0 0 0 0 0 0 0 0 0 0 0 0 0 0 0 0 0 0 127 0" result="hardAlpha"/>
<feOffset/>
<feGaussianBlur stdDeviation="1.5"/>
<feComposite in2="hardAlpha" operator="arithmetic" k2="-1" k3="1"/>
<feColorMatrix type="matrix" values="0 0 0 0 0.984314 0 0 0 0 0.529569 0 0 0 0 0.109804 0 0 0 0.5 0"/>
<feBlend mode="normal" in2="shape" result="effect2_innerShadow_728_127"/>
</filter>
<filter id="filter1_di_728_127" x="0.666673" y="3.1828" width="37.6667" height="37.4839" filterUnits="userSpaceOnUse" color-interpolation-filters="sRGB">
<feFlood flood-opacity="0" result="BackgroundImageFix"/>
<feColorMatrix in="SourceAlpha" type="matrix" values="0 0 0 0 0 0 0 0 0 0 0 0 0 0 0 0 0 0 127 0" result="hardAlpha"/>
<feOffset dy="3.33333"/>
<feGaussianBlur stdDeviation="2.66666"/>
<feComposite in2="hardAlpha" operator="out"/>
<feColorMatrix type="matrix" values="0 0 0 0 0.301961 0 0 0 0 0.368627 0 0 0 0 0.435294 0 0 0 0.08 0"/>
<feBlend mode="normal" in2="BackgroundImageFix" result="effect1_dropShadow_728_127"/>
<feBlend mode="normal" in="SourceGraphic" in2="effect1_dropShadow_728_127" result="shape"/>
<feColorMatrix in="SourceAlpha" type="matrix" values="0 0 0 0 0 0 0 0 0 0 0 0 0 0 0 0 0 0 127 0" result="hardAlpha"/>
<feOffset/>
<feGaussianBlur stdDeviation="4"/>
<feComposite in2="hardAlpha" operator="arithmetic" k2="-1" k3="1"/>
<feColorMatrix type="matrix" values="0 0 0 0 0 0 0 0 0 0 0 0 0 0 0 0 0 0 0.05 0"/>
<feBlend mode="normal" in2="shape" result="effect2_innerShadow_728_127"/>
</filter>
<radialGradient id="paint0_radial_728_127" cx="0" cy="0" r="1" gradientUnits="userSpaceOnUse" gradientTransform="translate(12 7.64303) rotate(49.3355) scale(10.3586 7.2983)">
<stop stop-color="#FBCA1C"/>
<stop offset="1" stop-color="#E4750E"/>
</radialGradient>
<linearGradient id="paint1_linear_728_127" x1="28.0909" y1="9.65233" x2="11.2954" y2="26.8698" gradientUnits="userSpaceOnUse">
<stop stop-color="white" stop-opacity="0.6"/>
<stop offset="1" stop-color="white"/>
</linearGradient>
<linearGradient id="paint2_linear_728_127" x1="28.0909" y1="9.65233" x2="11.2954" y2="26.8698" gradientUnits="userSpaceOnUse">
<stop stop-color="white" stop-opacity="0.6"/>
<stop offset="1" stop-color="white"/>
</linearGradient>
<linearGradient id="paint3_linear_728_127" x1="28.0909" y1="9.65233" x2="11.2954" y2="26.8698" gradientUnits="userSpaceOnUse">
<stop stop-color="white" stop-opacity="0.6"/>
<stop offset="1" stop-color="white"/>
</linearGradient>
<radialGradient id="paint4_radial_728_127" cx="0" cy="0" r="1" gradientUnits="userSpaceOnUse" gradientTransform="translate(30.75 7.36559) rotate(153.577) scale(25.7527 39.5308)">
<stop stop-color="white"/>
<stop offset="1" stop-color="#909AA3"/>
</radialGradient>
</defs>
</svg>
