<svg width="40" height="36" viewBox="0 0 40 36" fill="none" xmlns="http://www.w3.org/2000/svg">
<g filter="url(#filter0_di_728_106)">
<ellipse cx="14.7333" cy="12.7273" rx="7.93332" ry="7.42423" fill="#FBCA1C"/>
<ellipse cx="14.7333" cy="12.7273" rx="7.93332" ry="7.42423" fill="url(#paint0_radial_728_106)" fill-opacity="0.2"/>
</g>
<path d="M26.3654 27.8182C26.3654 27.7539 26.3379 27.6922 26.2889 27.6468C26.2399 27.6013 26.1735 27.5758 26.1042 27.5758C26.0349 27.5758 25.9685 27.6013 25.9195 27.6468C25.8705 27.6922 25.8429 27.7539 25.8429 27.8182V28.0514L25.6721 27.9675C25.6418 27.9526 25.6086 27.9434 25.5744 27.9405C25.5403 27.9375 25.5058 27.9408 25.473 27.9501C25.4402 27.9595 25.4098 27.9748 25.3833 27.9951C25.3569 28.0154 25.3351 28.0403 25.319 28.0685C25.303 28.0966 25.2931 28.1274 25.2899 28.1591C25.2866 28.1908 25.2902 28.2228 25.3003 28.2532C25.3104 28.2836 25.3269 28.3119 25.3487 28.3364C25.3706 28.361 25.3975 28.3812 25.4278 28.3961L25.8429 28.5998V29.0608C25.659 29.105 25.4916 29.1949 25.3586 29.3207L24.9281 29.0899L24.9456 28.6545C24.9481 28.5903 24.9231 28.5277 24.8759 28.4806C24.8288 28.4335 24.7634 28.4057 24.6941 28.4033C24.6249 28.4009 24.5574 28.4241 24.5067 28.4679C24.4559 28.5117 24.4259 28.5723 24.4233 28.6366L24.4163 28.8158L24.1987 28.6994C24.1689 28.6823 24.1358 28.671 24.1012 28.666C24.0667 28.661 24.0314 28.6625 23.9975 28.6705C23.9636 28.6784 23.9317 28.6925 23.9038 28.7121C23.8759 28.7316 23.8525 28.7562 23.835 28.7843C23.8175 28.8124 23.8063 28.8435 23.802 28.8757C23.7977 28.9079 23.8004 28.9405 23.8099 28.9718C23.8195 29.003 23.8357 29.0321 23.8576 29.0574C23.8795 29.0827 23.9066 29.1037 23.9374 29.119L24.155 29.2356L23.9912 29.3312C23.9341 29.366 23.894 29.4202 23.8795 29.4822C23.8649 29.5442 23.8772 29.609 23.9135 29.6627C23.9499 29.7165 24.0075 29.7548 24.074 29.7695C24.1405 29.7843 24.2106 29.7742 24.2692 29.7416L24.6668 29.5098L25.0971 29.7404C25.0462 29.9102 25.0462 30.0898 25.0971 30.2596L24.6668 30.4899L24.2692 30.2584C24.2106 30.2258 24.1405 30.2157 24.074 30.2305C24.0075 30.2452 23.9499 30.2836 23.9135 30.3373C23.8772 30.391 23.8649 30.4558 23.8795 30.5178C23.894 30.5798 23.9341 30.634 23.9912 30.6688L24.155 30.7644L23.9374 30.8807C23.9077 30.8966 23.8816 30.9178 23.8607 30.9431C23.8398 30.9684 23.8245 30.9972 23.8156 31.028C23.8067 31.0587 23.8045 31.0908 23.8089 31.1224C23.8134 31.154 23.8245 31.1844 23.8417 31.212C23.8588 31.2396 23.8817 31.2638 23.9089 31.2832C23.9361 31.3026 23.9672 31.3168 24.0004 31.325C24.0335 31.3333 24.0681 31.3354 24.1021 31.3312C24.1361 31.3271 24.1689 31.3168 24.1987 31.3008L24.416 31.1842L24.4233 31.3636C24.4246 31.3955 24.4327 31.4267 24.447 31.4557C24.4613 31.4846 24.4816 31.5107 24.5068 31.5323C24.5319 31.554 24.5614 31.5708 24.5936 31.5819C24.6258 31.593 24.66 31.598 24.6943 31.5968C24.7285 31.5957 24.7622 31.5882 24.7934 31.5749C24.8246 31.5616 24.8527 31.5428 24.876 31.5195C24.8994 31.4961 24.9175 31.4687 24.9294 31.4389C24.9414 31.409 24.9469 31.3773 24.9456 31.3455L24.9281 30.9101L25.3586 30.6793C25.4916 30.8051 25.659 30.895 25.8429 30.9392V31.4002L25.4278 31.6039C25.3666 31.6339 25.3207 31.6853 25.3003 31.7468C25.2799 31.8082 25.2866 31.8747 25.319 31.9315C25.3514 31.9884 25.4068 32.0309 25.473 32.0499C25.5392 32.0688 25.6108 32.0625 25.6721 32.0325L25.8429 31.9486V32.1818C25.8429 32.2461 25.8705 32.3078 25.9195 32.3532C25.9685 32.3987 26.0349 32.4242 26.1042 32.4242C26.1735 32.4242 26.2399 32.3987 26.2889 32.3532C26.3379 32.3078 26.3654 32.2461 26.3654 32.1818V31.9486L26.5363 32.0325C26.5975 32.0625 26.6691 32.0688 26.7354 32.0499C26.8016 32.0309 26.857 31.9884 26.8894 31.9315C26.9217 31.8747 26.9285 31.8082 26.9081 31.7468C26.8877 31.6853 26.8418 31.6339 26.7805 31.6039L26.3654 31.4002V30.9392C26.5493 30.8951 26.7168 30.8053 26.8498 30.6795L27.2803 30.9101L27.2628 31.3455C27.2615 31.3773 27.267 31.409 27.2789 31.4389C27.2909 31.4687 27.309 31.4961 27.3324 31.5195C27.3557 31.5428 27.3838 31.5616 27.4149 31.5749C27.4461 31.5882 27.4798 31.5957 27.5141 31.5968C27.5484 31.598 27.5826 31.593 27.6148 31.5819C27.647 31.5708 27.6765 31.554 27.7016 31.5323C27.7268 31.5107 27.7471 31.4846 27.7614 31.4557C27.7757 31.4267 27.7837 31.3955 27.785 31.3636L27.7921 31.1842L28.0097 31.3008C28.0394 31.317 28.0723 31.3276 28.1064 31.3319C28.1406 31.3362 28.1753 31.3343 28.2086 31.3261C28.2419 31.3179 28.2731 31.3037 28.3005 31.2843C28.3279 31.2649 28.3508 31.2406 28.3681 31.2129C28.3853 31.1852 28.3964 31.1547 28.4009 31.123C28.4053 31.0913 28.403 31.0591 28.3939 31.0282C28.3849 30.9973 28.3694 30.9685 28.3483 30.9432C28.3272 30.9179 28.3009 30.8968 28.2709 30.881L28.0536 30.7646L28.2171 30.6691C28.2758 30.6349 28.3175 30.5804 28.3329 30.5178C28.3483 30.4551 28.3363 30.3892 28.2994 30.3348C28.2626 30.2803 28.2039 30.2417 28.1363 30.2274C28.0688 30.213 27.9978 30.2242 27.9392 30.2584L27.5416 30.4902L27.1113 30.2599C27.1622 30.0899 27.1622 29.9103 27.1113 29.7404L27.5416 29.5098L27.9392 29.7416C27.9978 29.7758 28.0688 29.787 28.1363 29.7726C28.2039 29.7583 28.2626 29.7197 28.2994 29.6652C28.3363 29.6108 28.3483 29.5449 28.3329 29.4822C28.3175 29.4196 28.2758 29.3651 28.2171 29.3309L28.0533 29.2356L28.2709 29.119C28.3009 29.1032 28.3272 29.0821 28.3483 29.0568C28.3694 29.0316 28.3849 29.0027 28.3939 28.9718C28.403 28.941 28.4053 28.9087 28.4009 28.877C28.3964 28.8453 28.3853 28.8148 28.3681 28.7871C28.3508 28.7594 28.3279 28.7351 28.3005 28.7157C28.2731 28.6963 28.2419 28.6821 28.2086 28.6739C28.1753 28.6657 28.1406 28.6638 28.1064 28.6681C28.0723 28.6724 28.0394 28.683 28.0097 28.6992L27.7921 28.8155L27.785 28.6364C27.7837 28.6045 27.7757 28.5733 27.7614 28.5443C27.7471 28.5154 27.7268 28.4893 27.7016 28.4677C27.6765 28.446 27.647 28.4292 27.6148 28.4181C27.5826 28.407 27.5484 28.402 27.5141 28.4032C27.4798 28.4043 27.4461 28.4118 27.4149 28.4251C27.3838 28.4384 27.3557 28.4572 27.3324 28.4805C27.309 28.5039 27.2909 28.5313 27.2789 28.5611C27.267 28.591 27.2615 28.6227 27.2628 28.6545L27.2803 29.0899L26.8498 29.3205C26.7168 29.1947 26.5493 29.1049 26.3654 29.0608V28.5998L26.7805 28.3961C26.8418 28.3661 26.8877 28.3147 26.9081 28.2532C26.9285 28.1918 26.9217 28.1253 26.8894 28.0685C26.857 28.0116 26.8016 27.9691 26.7354 27.9501C26.6691 27.9312 26.5975 27.9375 26.5363 27.9675L26.3654 28.0514V27.8182Z" fill="url(#paint1_linear_728_106)"/>
<path d="M19.5654 31C19.5654 30.9357 19.5379 30.874 19.4889 30.8286C19.4399 30.7831 19.3735 30.7576 19.3042 30.7576C19.2349 30.7576 19.1685 30.7831 19.1195 30.8286C19.0705 30.874 19.043 30.9357 19.043 31V31.2332L18.8721 31.1493C18.8418 31.1345 18.8086 31.1253 18.7744 31.1223C18.7403 31.1193 18.7058 31.1226 18.673 31.132C18.6402 31.1413 18.6098 31.1566 18.5833 31.1769C18.5569 31.1972 18.5351 31.2222 18.519 31.2503C18.503 31.2784 18.4931 31.3092 18.4899 31.3409C18.4867 31.3726 18.4902 31.4046 18.5003 31.435C18.5104 31.4655 18.5269 31.4937 18.5488 31.5183C18.5706 31.5428 18.5975 31.5631 18.6278 31.5779L19.043 31.7816V32.2427C18.8591 32.2868 18.6916 32.3767 18.5586 32.5025L18.1281 32.2718L18.1456 31.8364C18.1481 31.7721 18.1231 31.7095 18.0759 31.6624C18.0288 31.6153 17.9634 31.5875 17.8941 31.5851C17.8249 31.5827 17.7575 31.606 17.7067 31.6497C17.6559 31.6935 17.6259 31.7542 17.6234 31.8184L17.6163 31.9976L17.3987 31.8812C17.3689 31.8641 17.3358 31.8528 17.3013 31.8478C17.2667 31.8428 17.2314 31.8444 17.1975 31.8523C17.1636 31.8602 17.1317 31.8743 17.1038 31.8939C17.0759 31.9135 17.0525 31.938 17.035 31.9661C17.0175 31.9942 17.0063 32.0253 17.002 32.0575C16.9977 32.0897 17.0004 32.1224 17.0099 32.1536C17.0195 32.1848 17.0357 32.2139 17.0576 32.2392C17.0795 32.2645 17.1067 32.2855 17.1374 32.3008L17.3551 32.4175L17.1913 32.513C17.1341 32.5478 17.094 32.6021 17.0795 32.664C17.0649 32.726 17.0772 32.7908 17.1136 32.8446C17.1499 32.8983 17.2076 32.9366 17.274 32.9513C17.3405 32.9661 17.4106 32.9561 17.4692 32.9234L17.8668 32.6916L18.2971 32.9222C18.2462 33.0921 18.2462 33.2716 18.2971 33.4415L17.8668 33.6718L17.4692 33.4402C17.4106 33.4076 17.3405 33.3975 17.274 33.4123C17.2076 33.427 17.1499 33.4654 17.1136 33.5191C17.0772 33.5728 17.0649 33.6376 17.0795 33.6996C17.094 33.7616 17.1341 33.8158 17.1913 33.8507L17.3551 33.9462L17.1374 34.0625C17.1077 34.0785 17.0817 34.0997 17.0608 34.1249C17.0399 34.1502 17.0245 34.179 17.0156 34.2098C17.0067 34.2405 17.0045 34.2726 17.0089 34.3042C17.0134 34.3358 17.0245 34.3662 17.0417 34.3938C17.0589 34.4214 17.0817 34.4456 17.1089 34.465C17.1361 34.4844 17.1672 34.4986 17.2004 34.5069C17.2335 34.5151 17.2681 34.5172 17.3021 34.5131C17.3361 34.5089 17.369 34.4986 17.3987 34.4827L17.616 34.3661L17.6234 34.5455C17.6246 34.5773 17.6327 34.6085 17.647 34.6375C17.6613 34.6664 17.6816 34.6925 17.7068 34.7141C17.7319 34.7358 17.7614 34.7526 17.7936 34.7637C17.8258 34.7748 17.86 34.7799 17.8943 34.7787C17.9286 34.7775 17.9623 34.77 17.9934 34.7567C18.0246 34.7435 18.0527 34.7246 18.076 34.7013C18.0994 34.6779 18.1175 34.6505 18.1295 34.6207C18.1414 34.5908 18.1469 34.5591 18.1456 34.5273L18.1281 34.0919L18.5586 33.8611C18.6916 33.987 18.8591 34.0768 19.043 34.121V34.5821L18.6278 34.7857C18.5666 34.8158 18.5207 34.8672 18.5003 34.9286C18.4799 34.99 18.4866 35.0565 18.519 35.1133C18.5514 35.1702 18.6068 35.2127 18.673 35.2317C18.7392 35.2506 18.8109 35.2444 18.8721 35.2143L19.043 35.1304V35.3636C19.043 35.4279 19.0705 35.4896 19.1195 35.5351C19.1685 35.5805 19.2349 35.6061 19.3042 35.6061C19.3735 35.6061 19.4399 35.5805 19.4889 35.5351C19.5379 35.4896 19.5654 35.4279 19.5654 35.3636V35.1304L19.7363 35.2143C19.7975 35.2444 19.8692 35.2506 19.9354 35.2317C20.0016 35.2127 20.057 35.1702 20.0894 35.1133C20.1218 35.0565 20.1285 34.99 20.1081 34.9286C20.0877 34.8672 20.0418 34.8158 19.9806 34.7857L19.5654 34.5821V34.121C19.7493 34.0769 19.9168 33.9871 20.0498 33.8613L20.4803 34.0919L20.4628 34.5273C20.4615 34.5591 20.467 34.5908 20.4789 34.6207C20.4909 34.6505 20.509 34.6779 20.5324 34.7013C20.5557 34.7246 20.5838 34.7435 20.615 34.7567C20.6461 34.77 20.6798 34.7775 20.7141 34.7787C20.7484 34.7799 20.7826 34.7748 20.8148 34.7637C20.847 34.7526 20.8765 34.7358 20.9016 34.7141C20.9268 34.6925 20.9471 34.6664 20.9614 34.6375C20.9757 34.6085 20.9838 34.5773 20.985 34.5455L20.9921 34.3661L21.2097 34.4827C21.2394 34.4988 21.2723 34.5094 21.3064 34.5137C21.3406 34.5181 21.3753 34.5161 21.4086 34.5079C21.4419 34.4997 21.4732 34.4855 21.5005 34.4661C21.5279 34.4467 21.5508 34.4224 21.5681 34.3947C21.5853 34.3671 21.5965 34.3365 21.6009 34.3048C21.6053 34.2731 21.603 34.2409 21.594 34.21C21.5849 34.1792 21.5694 34.1503 21.5483 34.125C21.5272 34.0997 21.5009 34.0786 21.471 34.0628L21.2536 33.9464L21.4171 33.8509C21.4758 33.8167 21.5175 33.7623 21.5329 33.6996C21.5483 33.6369 21.5363 33.5711 21.4994 33.5166C21.4626 33.4621 21.4039 33.4235 21.3363 33.4092C21.2688 33.3949 21.1979 33.406 21.1392 33.4402L20.7416 33.672L20.3113 33.4417C20.3622 33.2717 20.3622 33.0921 20.3113 32.9222L20.7416 32.6916L21.1392 32.9234C21.1979 32.9576 21.2688 32.9688 21.3363 32.9544C21.4039 32.9401 21.4626 32.9015 21.4994 32.847C21.5363 32.7926 21.5483 32.7268 21.5329 32.6641C21.5175 32.6014 21.4758 32.5469 21.4171 32.5127L21.2533 32.4175L21.471 32.3008C21.5009 32.285 21.5272 32.2639 21.5483 32.2386C21.5694 32.2134 21.5849 32.1845 21.594 32.1536C21.603 32.1228 21.6053 32.0906 21.6009 32.0589C21.5965 32.0272 21.5853 31.9966 21.5681 31.9689C21.5508 31.9412 21.5279 31.917 21.5005 31.8975C21.4732 31.8781 21.4419 31.8639 21.4086 31.8557C21.3753 31.8476 21.3406 31.8456 21.3064 31.8499C21.2723 31.8542 21.2394 31.8648 21.2097 31.881L20.9921 31.9973L20.985 31.8182C20.9838 31.7864 20.9757 31.7551 20.9614 31.7261C20.9471 31.6972 20.9268 31.6712 20.9016 31.6495C20.8765 31.6279 20.847 31.611 20.8148 31.5999C20.7826 31.5889 20.7484 31.5838 20.7141 31.585C20.6798 31.5862 20.6461 31.5936 20.615 31.6069C20.5838 31.6202 20.5557 31.639 20.5324 31.6624C20.509 31.6857 20.4909 31.7131 20.4789 31.7429C20.467 31.7728 20.4615 31.8045 20.4628 31.8364L20.4803 32.2718L20.0498 32.5023C19.9168 32.3765 19.7493 32.2868 19.5654 32.2427V31.7816L19.9806 31.5779C20.0418 31.5479 20.0877 31.4965 20.1081 31.435C20.1285 31.3736 20.1218 31.3071 20.0894 31.2503C20.057 31.1935 20.0016 31.1509 19.9354 31.132C19.8692 31.113 19.7975 31.1193 19.7363 31.1493L19.5654 31.2332V31Z" fill="url(#paint2_linear_728_106)"/>
<path d="M13.8988 27.8182C13.8988 27.7539 13.8712 27.6922 13.8222 27.6468C13.7732 27.6013 13.7068 27.5758 13.6375 27.5758C13.5682 27.5758 13.5018 27.6013 13.4528 27.6468C13.4038 27.6922 13.3763 27.7539 13.3763 27.8182V28.0514L13.2054 27.9675C13.1751 27.9526 13.1419 27.9434 13.1077 27.9405C13.0736 27.9375 13.0391 27.9408 13.0063 27.9501C12.9736 27.9595 12.9431 27.9748 12.9167 27.9951C12.8902 28.0154 12.8684 28.0403 12.8523 28.0685C12.8363 28.0966 12.8264 28.1274 12.8232 28.1591C12.82 28.1908 12.8235 28.2228 12.8336 28.2532C12.8437 28.2836 12.8602 28.3119 12.8821 28.3364C12.904 28.361 12.9308 28.3812 12.9612 28.3961L13.3763 28.5998V29.0608C13.1924 29.105 13.0249 29.1949 12.8919 29.3207L12.4614 29.0899L12.4789 28.6545C12.4815 28.5903 12.4564 28.5277 12.4093 28.4806C12.3621 28.4335 12.2967 28.4057 12.2275 28.4033C12.1582 28.4009 12.0908 28.4241 12.04 28.4679C11.9892 28.5117 11.9592 28.5723 11.9567 28.6366L11.9496 28.8158L11.732 28.6994C11.7023 28.6823 11.6691 28.671 11.6346 28.666C11.6 28.661 11.5647 28.6625 11.5308 28.6705C11.4969 28.6784 11.4651 28.6925 11.4371 28.7121C11.4092 28.7316 11.3858 28.7562 11.3683 28.7843C11.3509 28.8124 11.3396 28.8435 11.3353 28.8757C11.331 28.9079 11.3337 28.9405 11.3432 28.9718C11.3528 29.003 11.369 29.0321 11.3909 29.0574C11.4128 29.0827 11.44 29.1037 11.4708 29.119L11.6884 29.2356L11.5246 29.3312C11.4674 29.366 11.4273 29.4202 11.4128 29.4822C11.3982 29.5442 11.4105 29.609 11.4469 29.6627C11.4832 29.7165 11.5409 29.7548 11.6074 29.7695C11.6739 29.7843 11.7439 29.7742 11.8025 29.7416L12.2002 29.5098L12.6304 29.7404C12.5795 29.9102 12.5795 30.0898 12.6304 30.2596L12.2002 30.4899L11.8025 30.2584C11.7439 30.2258 11.6739 30.2157 11.6074 30.2305C11.5409 30.2452 11.4832 30.2836 11.4469 30.3373C11.4105 30.391 11.3982 30.4558 11.4128 30.5178C11.4273 30.5798 11.4674 30.634 11.5246 30.6688L11.6884 30.7644L11.4708 30.8807C11.441 30.8966 11.415 30.9178 11.3941 30.9431C11.3732 30.9684 11.3578 30.9972 11.3489 31.028C11.3401 31.0587 11.3378 31.0908 11.3423 31.1224C11.3467 31.154 11.3579 31.1844 11.375 31.212C11.3922 31.2396 11.415 31.2638 11.4422 31.2832C11.4695 31.3026 11.5005 31.3168 11.5337 31.325C11.5668 31.3333 11.6014 31.3354 11.6354 31.3312C11.6695 31.3271 11.7023 31.3168 11.732 31.3008L11.9494 31.1842L11.9567 31.3636C11.958 31.3955 11.966 31.4267 11.9803 31.4557C11.9946 31.4846 12.0149 31.5107 12.0401 31.5323C12.0652 31.554 12.0947 31.5708 12.1269 31.5819C12.1591 31.593 12.1933 31.598 12.2276 31.5968C12.2619 31.5957 12.2956 31.5882 12.3268 31.5749C12.3579 31.5616 12.386 31.5428 12.4093 31.5195C12.4327 31.4961 12.4508 31.4687 12.4628 31.4389C12.4747 31.409 12.4802 31.3773 12.4789 31.3455L12.4614 30.9101L12.8919 30.6793C13.0249 30.8051 13.1924 30.895 13.3763 30.9392V31.4002L12.9612 31.6039C12.8999 31.6339 12.854 31.6853 12.8336 31.7468C12.8132 31.8082 12.82 31.8747 12.8523 31.9315C12.8847 31.9884 12.9401 32.0309 13.0063 32.0499C13.0726 32.0688 13.1442 32.0625 13.2054 32.0325L13.3763 31.9486V32.1818C13.3763 32.2461 13.4038 32.3078 13.4528 32.3532C13.5018 32.3987 13.5682 32.4242 13.6375 32.4242C13.7068 32.4242 13.7732 32.3987 13.8222 32.3532C13.8712 32.3078 13.8988 32.2461 13.8988 32.1818V31.9486L14.0696 32.0325C14.1309 32.0625 14.2025 32.0688 14.2687 32.0499C14.3349 32.0309 14.3903 31.9884 14.4227 31.9315C14.4551 31.8747 14.4618 31.8082 14.4414 31.7468C14.421 31.6853 14.3751 31.6339 14.3139 31.6039L13.8988 31.4002V30.9392C14.0826 30.8951 14.2501 30.8053 14.3831 30.6795L14.8136 30.9101L14.7961 31.3455C14.7948 31.3773 14.8003 31.409 14.8123 31.4389C14.8242 31.4687 14.8423 31.4961 14.8657 31.5195C14.889 31.5428 14.9171 31.5616 14.9483 31.5749C14.9795 31.5882 15.0132 31.5957 15.0474 31.5968C15.0817 31.598 15.1159 31.593 15.1481 31.5819C15.1803 31.5708 15.2098 31.554 15.2349 31.5323C15.2601 31.5107 15.2804 31.4846 15.2947 31.4557C15.309 31.4267 15.3171 31.3955 15.3184 31.3636L15.3254 31.1842L15.543 31.3008C15.5727 31.317 15.6056 31.3276 15.6398 31.3319C15.6739 31.3362 15.7086 31.3343 15.7419 31.3261C15.7752 31.3179 15.8065 31.3037 15.8338 31.2843C15.8612 31.2649 15.8842 31.2406 15.9014 31.2129C15.9186 31.1852 15.9298 31.1547 15.9342 31.123C15.9387 31.0913 15.9363 31.0591 15.9273 31.0282C15.9182 30.9973 15.9027 30.9685 15.8816 30.9432C15.8605 30.9179 15.8342 30.8968 15.8043 30.881L15.5869 30.7646L15.7505 30.6691C15.8091 30.6349 15.8508 30.5804 15.8662 30.5178C15.8816 30.4551 15.8696 30.3892 15.8327 30.3348C15.7959 30.2803 15.7372 30.2417 15.6697 30.2274C15.6021 30.213 15.5312 30.2242 15.4725 30.2584L15.0749 30.4902L14.6446 30.2599C14.6955 30.0899 14.6955 29.9103 14.6446 29.7404L15.0749 29.5098L15.4725 29.7416C15.5312 29.7758 15.6021 29.787 15.6697 29.7726C15.7372 29.7583 15.7959 29.7197 15.8327 29.6652C15.8696 29.6108 15.8816 29.5449 15.8662 29.4822C15.8508 29.4196 15.8091 29.3651 15.7505 29.3309L15.5867 29.2356L15.8043 29.119C15.8342 29.1032 15.8605 29.0821 15.8816 29.0568C15.9027 29.0316 15.9182 29.0027 15.9273 28.9718C15.9363 28.941 15.9387 28.9087 15.9342 28.877C15.9298 28.8453 15.9186 28.8148 15.9014 28.7871C15.8842 28.7594 15.8612 28.7351 15.8338 28.7157C15.8065 28.6963 15.7752 28.6821 15.7419 28.6739C15.7086 28.6657 15.6739 28.6638 15.6398 28.6681C15.6056 28.6724 15.5727 28.683 15.543 28.6992L15.3254 28.8155L15.3184 28.6364C15.3171 28.6045 15.309 28.5733 15.2947 28.5443C15.2804 28.5154 15.2601 28.4893 15.2349 28.4677C15.2098 28.446 15.1803 28.4292 15.1481 28.4181C15.1159 28.407 15.0817 28.402 15.0474 28.4032C15.0132 28.4043 14.9795 28.4118 14.9483 28.4251C14.9171 28.4384 14.889 28.4572 14.8657 28.4805C14.8423 28.5039 14.8242 28.5313 14.8123 28.5611C14.8003 28.591 14.7948 28.6227 14.7961 28.6545L14.8136 29.0899L14.3831 29.3205C14.2501 29.1947 14.0826 29.1049 13.8988 29.0608V28.5998L14.3139 28.3961C14.3751 28.3661 14.421 28.3147 14.4414 28.2532C14.4618 28.1918 14.4551 28.1253 14.4227 28.0685C14.3903 28.0116 14.3349 27.9691 14.2687 27.9501C14.2025 27.9312 14.1309 27.9375 14.0696 27.9675L13.8988 28.0514V27.8182Z" fill="url(#paint3_linear_728_106)"/>
<g filter="url(#filter1_di_728_106)">
<path d="M33.9879 16.8182C33.9959 16.6845 34 16.5498 34 16.4141C34 12.6207 30.815 9.54545 26.8861 9.54545C24.9956 9.54545 23.2773 10.2575 22.0032 11.4191C21.3587 11.2512 20.681 11.1616 19.9815 11.1616C17.4518 11.1616 15.2054 12.3332 13.7927 14.1451C13.3621 14.0437 12.9122 13.9899 12.4492 13.9899C9.32922 13.9899 6.79999 16.432 6.79999 19.4444C6.79999 19.4585 6.80004 19.4725 6.80014 19.4866C6.80004 19.4964 6.79999 19.5062 6.79999 19.5161C6.79999 23.1584 9.85805 26.1111 13.6304 26.1111H24.3754C29.6909 26.1111 34 21.9505 34 16.8182H33.9879Z" fill="white"/>
<path d="M33.9879 16.8182C33.9959 16.6845 34 16.5498 34 16.4141C34 12.6207 30.815 9.54545 26.8861 9.54545C24.9956 9.54545 23.2773 10.2575 22.0032 11.4191C21.3587 11.2512 20.681 11.1616 19.9815 11.1616C17.4518 11.1616 15.2054 12.3332 13.7927 14.1451C13.3621 14.0437 12.9122 13.9899 12.4492 13.9899C9.32922 13.9899 6.79999 16.432 6.79999 19.4444C6.79999 19.4585 6.80004 19.4725 6.80014 19.4866C6.80004 19.4964 6.79999 19.5062 6.79999 19.5161C6.79999 23.1584 9.85805 26.1111 13.6304 26.1111H24.3754C29.6909 26.1111 34 21.9505 34 16.8182H33.9879Z" fill="url(#paint4_radial_728_106)" fill-opacity="0.2"/>
</g>
<defs>
<filter id="filter0_di_728_106" x="4.13332" y="2.63637" width="21.2" height="20.1818" filterUnits="userSpaceOnUse" color-interpolation-filters="sRGB">
<feFlood flood-opacity="0" result="BackgroundImageFix"/>
<feColorMatrix in="SourceAlpha" type="matrix" values="0 0 0 0 0 0 0 0 0 0 0 0 0 0 0 0 0 0 127 0" result="hardAlpha"/>
<feMorphology radius="0.999999" operator="dilate" in="SourceAlpha" result="effect1_dropShadow_728_106"/>
<feOffset/>
<feGaussianBlur stdDeviation="0.833332"/>
<feComposite in2="hardAlpha" operator="out"/>
<feColorMatrix type="matrix" values="0 0 0 0 0.984314 0 0 0 0 0.792157 0 0 0 0 0.109804 0 0 0 0.2 0"/>
<feBlend mode="normal" in2="BackgroundImageFix" result="effect1_dropShadow_728_106"/>
<feBlend mode="normal" in="SourceGraphic" in2="effect1_dropShadow_728_106" result="shape"/>
<feColorMatrix in="SourceAlpha" type="matrix" values="0 0 0 0 0 0 0 0 0 0 0 0 0 0 0 0 0 0 127 0" result="hardAlpha"/>
<feOffset/>
<feGaussianBlur stdDeviation="1.5"/>
<feComposite in2="hardAlpha" operator="arithmetic" k2="-1" k3="1"/>
<feColorMatrix type="matrix" values="0 0 0 0 0.984314 0 0 0 0 0.529569 0 0 0 0 0.109804 0 0 0 0.5 0"/>
<feBlend mode="normal" in2="shape" result="effect2_innerShadow_728_106"/>
</filter>
<filter id="filter1_di_728_106" x="1.46666" y="7.54546" width="37.8667" height="27.2323" filterUnits="userSpaceOnUse" color-interpolation-filters="sRGB">
<feFlood flood-opacity="0" result="BackgroundImageFix"/>
<feColorMatrix in="SourceAlpha" type="matrix" values="0 0 0 0 0 0 0 0 0 0 0 0 0 0 0 0 0 0 127 0" result="hardAlpha"/>
<feOffset dy="3.33333"/>
<feGaussianBlur stdDeviation="2.66666"/>
<feComposite in2="hardAlpha" operator="out"/>
<feColorMatrix type="matrix" values="0 0 0 0 0.301961 0 0 0 0 0.368627 0 0 0 0 0.435294 0 0 0 0.08 0"/>
<feBlend mode="normal" in2="BackgroundImageFix" result="effect1_dropShadow_728_106"/>
<feBlend mode="normal" in="SourceGraphic" in2="effect1_dropShadow_728_106" result="shape"/>
<feColorMatrix in="SourceAlpha" type="matrix" values="0 0 0 0 0 0 0 0 0 0 0 0 0 0 0 0 0 0 127 0" result="hardAlpha"/>
<feOffset/>
<feGaussianBlur stdDeviation="4"/>
<feComposite in2="hardAlpha" operator="arithmetic" k2="-1" k3="1"/>
<feColorMatrix type="matrix" values="0 0 0 0 0 0 0 0 0 0 0 0 0 0 0 0 0 0 0.05 0"/>
<feBlend mode="normal" in2="shape" result="effect2_innerShadow_728_106"/>
</filter>
<radialGradient id="paint0_radial_728_106" cx="0" cy="0" r="1" gradientUnits="userSpaceOnUse" gradientTransform="translate(12.8444 9.89898) rotate(48.8373) scale(10.3312 7.29716)">
<stop stop-color="#FBCA1C"/>
<stop offset="1" stop-color="#E4750E"/>
</radialGradient>
<linearGradient id="paint1_linear_728_106" x1="27.5661" y1="28.3838" x2="24.5304" y2="31.3184" gradientUnits="userSpaceOnUse">
<stop stop-color="white" stop-opacity="0.6"/>
<stop offset="1" stop-color="white"/>
</linearGradient>
<linearGradient id="paint2_linear_728_106" x1="20.7662" y1="31.5657" x2="17.7304" y2="34.5002" gradientUnits="userSpaceOnUse">
<stop stop-color="white" stop-opacity="0.6"/>
<stop offset="1" stop-color="white"/>
</linearGradient>
<linearGradient id="paint3_linear_728_106" x1="15.0995" y1="28.3838" x2="12.0637" y2="31.3184" gradientUnits="userSpaceOnUse">
<stop stop-color="white" stop-opacity="0.6"/>
<stop offset="1" stop-color="white"/>
</linearGradient>
<radialGradient id="paint4_radial_728_106" cx="0" cy="0" r="1" gradientUnits="userSpaceOnUse" gradientTransform="translate(31.7333 11.6667) rotate(154.39) scale(25.7644 38.6824)">
<stop stop-color="white"/>
<stop offset="1" stop-color="#909AA3"/>
</radialGradient>
</defs>
</svg>
