<svg width="49" height="44" viewBox="0 0 49 44" fill="none" xmlns="http://www.w3.org/2000/svg">
<g filter="url(#filter0_di_728_113)">
<ellipse cx="26.083" cy="10.2924" rx="7.84232" ry="7.29241" fill="#C5C7C8"/>
<ellipse cx="26.083" cy="10.2924" rx="7.84232" ry="7.29241" fill="url(#paint0_radial_728_113)"/>
</g>
<g filter="url(#filter1_di_728_113)">
<path d="M43.6241 13.4177C43.6312 13.3028 43.6349 13.187 43.6349 13.0705C43.6349 9.81012 40.7925 7.16709 37.2863 7.16709C35.5991 7.16709 34.0657 7.77909 32.9287 8.77738C32.3535 8.63309 31.7487 8.55612 31.1245 8.55612C28.8669 8.55612 26.8622 9.56306 25.6015 11.1203C25.2172 11.0331 24.8157 10.9869 24.4025 10.9869C21.6182 10.9869 19.361 13.0858 19.361 15.6749C19.361 15.687 19.3611 15.699 19.3612 15.7111C19.3611 15.7196 19.361 15.728 19.361 15.7365C19.361 18.8669 22.0901 21.4046 25.4566 21.4046H35.0457C39.7894 21.4046 43.6349 17.8288 43.6349 13.4177H43.6241Z" fill="#FDFDFD"/>
<path d="M43.6241 13.4177C43.6312 13.3028 43.6349 13.187 43.6349 13.0705C43.6349 9.81012 40.7925 7.16709 37.2863 7.16709C35.5991 7.16709 34.0657 7.77909 32.9287 8.77738C32.3535 8.63309 31.7487 8.55612 31.1245 8.55612C28.8669 8.55612 26.8622 9.56306 25.6015 11.1203C25.2172 11.0331 24.8157 10.9869 24.4025 10.9869C21.6182 10.9869 19.361 13.0858 19.361 15.6749C19.361 15.687 19.3611 15.699 19.3612 15.7111C19.3611 15.7196 19.361 15.728 19.361 15.7365C19.361 18.8669 22.0901 21.4046 25.4566 21.4046H35.0457C39.7894 21.4046 43.6349 17.8288 43.6349 13.4177H43.6241Z" fill="url(#paint1_radial_728_113)" fill-opacity="0.4"/>
<path d="M43.4993 13.41L43.491 13.5427H43.5088C43.4369 17.819 39.6839 21.2796 35.0457 21.2796H25.4566C22.1504 21.2796 19.486 18.7895 19.486 15.7365L19.4862 15.7124L19.4862 15.7124L19.4862 15.7102L19.486 15.6749C19.486 13.1632 21.6785 11.1119 24.4025 11.1119C24.8063 11.1119 25.1986 11.1571 25.5738 11.2422L25.6497 11.2594L25.6986 11.199C26.9354 9.67134 28.9042 8.68112 31.1245 8.68112C31.7384 8.68112 32.333 8.75682 32.8983 8.89862L32.9619 8.91458L33.0111 8.87131C34.1254 7.89299 35.6296 7.29209 37.2863 7.29209C40.7322 7.29209 43.5099 9.88756 43.5099 13.0705C43.5099 13.1844 43.5063 13.2976 43.4993 13.41Z" stroke="url(#paint2_linear_728_113)" stroke-width="0.25"/>
</g>
<g filter="url(#filter2_i_728_113)">
<path d="M35.0457 17.8531C35.0457 14.8282 37.4979 12.376 40.5228 12.376H41.7704C44.1064 12.376 46 14.2696 46 16.6056V16.6056C46 18.9415 44.1064 20.8352 41.7704 20.8352H37.8654C36.3081 20.8352 35.0457 19.5727 35.0457 18.0154V17.8531Z" fill="white"/>
<path d="M35.0457 17.8531C35.0457 14.8282 37.4979 12.376 40.5228 12.376H41.7704C44.1064 12.376 46 14.2696 46 16.6056V16.6056C46 18.9415 44.1064 20.8352 41.7704 20.8352H37.8654C36.3081 20.8352 35.0457 19.5727 35.0457 18.0154V17.8531Z" fill="url(#paint3_radial_728_113)" fill-opacity="0.3"/>
</g>
<g filter="url(#filter3_di_728_113)">
<path d="M24.2158 20.5712C24.2158 18.3465 22.4123 16.543 20.1876 16.543H19.0211C17.3526 16.543 16 17.8957 16 19.5642V19.5642C16 21.2327 17.3526 22.5853 19.0211 22.5853H22.2017C23.314 22.5853 24.2158 21.6836 24.2158 20.5712V20.5712Z" fill="white"/>
<path d="M24.2158 20.5712C24.2158 18.3465 22.4123 16.543 20.1876 16.543H19.0211C17.3526 16.543 16 17.8957 16 19.5642V19.5642C16 21.2327 17.3526 22.5853 19.0211 22.5853H22.2017C23.314 22.5853 24.2158 21.6836 24.2158 20.5712V20.5712Z" fill="url(#paint4_radial_728_113)" fill-opacity="0.2"/>
</g>
<defs>
<filter id="filter0_di_728_113" x="15.5707" y="0.33" width="21.0246" height="19.9248" filterUnits="userSpaceOnUse" color-interpolation-filters="sRGB">
<feFlood flood-opacity="0" result="BackgroundImageFix"/>
<feColorMatrix in="SourceAlpha" type="matrix" values="0 0 0 0 0 0 0 0 0 0 0 0 0 0 0 0 0 0 127 0" result="hardAlpha"/>
<feMorphology radius="1" operator="dilate" in="SourceAlpha" result="effect1_dropShadow_728_113"/>
<feOffset/>
<feGaussianBlur stdDeviation="0.835"/>
<feComposite in2="hardAlpha" operator="out"/>
<feColorMatrix type="matrix" values="0 0 0 0 1 0 0 0 0 1 0 0 0 0 1 0 0 0 0.08 0"/>
<feBlend mode="normal" in2="BackgroundImageFix" result="effect1_dropShadow_728_113"/>
<feBlend mode="normal" in="SourceGraphic" in2="effect1_dropShadow_728_113" result="shape"/>
<feColorMatrix in="SourceAlpha" type="matrix" values="0 0 0 0 0 0 0 0 0 0 0 0 0 0 0 0 0 0 127 0" result="hardAlpha"/>
<feOffset dy="2"/>
<feGaussianBlur stdDeviation="1.5"/>
<feComposite in2="hardAlpha" operator="arithmetic" k2="-1" k3="1"/>
<feColorMatrix type="matrix" values="0 0 0 0 0 0 0 0 0 0 0 0 0 0 0 0 0 0 0.25 0"/>
<feBlend mode="normal" in2="shape" result="effect2_innerShadow_728_113"/>
</filter>
<filter id="filter1_di_728_113" x="14.0277" y="5.16709" width="34.9405" height="24.9042" filterUnits="userSpaceOnUse" color-interpolation-filters="sRGB">
<feFlood flood-opacity="0" result="BackgroundImageFix"/>
<feColorMatrix in="SourceAlpha" type="matrix" values="0 0 0 0 0 0 0 0 0 0 0 0 0 0 0 0 0 0 127 0" result="hardAlpha"/>
<feOffset dy="3.33333"/>
<feGaussianBlur stdDeviation="2.66666"/>
<feComposite in2="hardAlpha" operator="out"/>
<feColorMatrix type="matrix" values="0 0 0 0 0.301961 0 0 0 0 0.368627 0 0 0 0 0.435294 0 0 0 0.08 0"/>
<feBlend mode="normal" in2="BackgroundImageFix" result="effect1_dropShadow_728_113"/>
<feBlend mode="normal" in="SourceGraphic" in2="effect1_dropShadow_728_113" result="shape"/>
<feColorMatrix in="SourceAlpha" type="matrix" values="0 0 0 0 0 0 0 0 0 0 0 0 0 0 0 0 0 0 127 0" result="hardAlpha"/>
<feOffset/>
<feGaussianBlur stdDeviation="0.999999"/>
<feComposite in2="hardAlpha" operator="arithmetic" k2="-1" k3="1"/>
<feColorMatrix type="matrix" values="0 0 0 0 0.301961 0 0 0 0 0.368627 0 0 0 0 0.435294 0 0 0 0.08 0"/>
<feBlend mode="normal" in2="shape" result="effect2_innerShadow_728_113"/>
</filter>
<filter id="filter2_i_728_113" x="35.0457" y="12.376" width="10.9543" height="8.4592" filterUnits="userSpaceOnUse" color-interpolation-filters="sRGB">
<feFlood flood-opacity="0" result="BackgroundImageFix"/>
<feBlend mode="normal" in="SourceGraphic" in2="BackgroundImageFix" result="shape"/>
<feColorMatrix in="SourceAlpha" type="matrix" values="0 0 0 0 0 0 0 0 0 0 0 0 0 0 0 0 0 0 127 0" result="hardAlpha"/>
<feOffset/>
<feGaussianBlur stdDeviation="5.5"/>
<feComposite in2="hardAlpha" operator="arithmetic" k2="-1" k3="1"/>
<feColorMatrix type="matrix" values="0 0 0 0 0.301961 0 0 0 0 0.368627 0 0 0 0 0.435294 0 0 0 0.08 0"/>
<feBlend mode="normal" in2="shape" result="effect1_innerShadow_728_113"/>
</filter>
<filter id="filter3_di_728_113" x="0" y="5.54305" width="40.2158" height="38.0423" filterUnits="userSpaceOnUse" color-interpolation-filters="sRGB">
<feFlood flood-opacity="0" result="BackgroundImageFix"/>
<feColorMatrix in="SourceAlpha" type="matrix" values="0 0 0 0 0 0 0 0 0 0 0 0 0 0 0 0 0 0 127 0" result="hardAlpha"/>
<feOffset dy="5"/>
<feGaussianBlur stdDeviation="8"/>
<feComposite in2="hardAlpha" operator="out"/>
<feColorMatrix type="matrix" values="0 0 0 0 0 0 0 0 0 0 0 0 0 0 0 0 0 0 0.14 0"/>
<feBlend mode="normal" in2="BackgroundImageFix" result="effect1_dropShadow_728_113"/>
<feBlend mode="normal" in="SourceGraphic" in2="effect1_dropShadow_728_113" result="shape"/>
<feColorMatrix in="SourceAlpha" type="matrix" values="0 0 0 0 0 0 0 0 0 0 0 0 0 0 0 0 0 0 127 0" result="hardAlpha"/>
<feOffset/>
<feGaussianBlur stdDeviation="5.5"/>
<feComposite in2="hardAlpha" operator="arithmetic" k2="-1" k3="1"/>
<feColorMatrix type="matrix" values="0 0 0 0 0.301961 0 0 0 0 0.368627 0 0 0 0 0.435294 0 0 0 0.08 0"/>
<feBlend mode="normal" in2="shape" result="effect2_innerShadow_728_113"/>
</filter>
<radialGradient id="paint0_radial_728_113" cx="0" cy="0" r="1" gradientUnits="userSpaceOnUse" gradientTransform="translate(28.3236 3.52089) rotate(95.121) scale(12.5514 13.4833)">
<stop stop-color="#CACED1"/>
<stop offset="1" stop-color="#8A8484"/>
</radialGradient>
<radialGradient id="paint1_radial_728_113" cx="0" cy="0" r="1" gradientUnits="userSpaceOnUse" gradientTransform="translate(28.3237 9.25064) rotate(48.6909) scale(14.929 23.9518)">
<stop stop-color="white"/>
<stop offset="1" stop-color="#4D5E6F"/>
</radialGradient>
<linearGradient id="paint2_linear_728_113" x1="25.5228" y1="9.25064" x2="35.8094" y2="21.9723" gradientUnits="userSpaceOnUse">
<stop stop-color="white"/>
<stop offset="1" stop-color="#C2C5C8"/>
</linearGradient>
<radialGradient id="paint3_radial_728_113" cx="0" cy="0" r="1" gradientUnits="userSpaceOnUse" gradientTransform="translate(35.0457 14.7929) rotate(22.5537) scale(12.6029 7.7572)">
<stop stop-color="white"/>
<stop offset="0.989393" stop-color="#4D5E6F"/>
</radialGradient>
<radialGradient id="paint4_radial_728_113" cx="0" cy="0" r="1" gradientUnits="userSpaceOnUse" gradientTransform="translate(29.8287 16.1834) rotate(133.825) scale(11.8647 8.12013)">
<stop stop-color="#4D5E6F" stop-opacity="0"/>
<stop offset="1" stop-color="#4D5E6F" stop-opacity="0.54"/>
</radialGradient>
</defs>
</svg>
