<svg width="62" height="58" viewBox="0 0 62 58" fill="none" xmlns="http://www.w3.org/2000/svg">
<g filter="url(#filter0_di_921_91)">
<path d="M29.444 36.0725C29.444 35.3895 30.0165 34.8358 30.7228 34.8358H31.6819V35.7633C31.6819 36.4463 31.1094 37 30.4031 37C29.8734 37 29.444 36.5847 29.444 36.0725Z" fill="#379ADC"/>
<path d="M26.083 33.9056C26.083 33.2226 26.6555 32.6689 27.3618 32.6689H28.3209V33.5964C28.3209 34.2794 27.7484 34.8331 27.0421 34.8331C26.5124 34.8331 26.083 34.4178 26.083 33.9056Z" fill="#379ADC"/>
<path d="M33.9253 33.9056C33.9253 33.2226 34.4979 32.6689 35.2041 32.6689H36.1632V33.5964C36.1632 34.2794 35.5907 34.8331 34.8844 34.8331C34.3547 34.8331 33.9253 34.4178 33.9253 33.9056Z" fill="#379ADC"/>
<path d="M33.9253 18.5841C33.9253 22.7727 30.4142 26.1682 26.083 26.1682C21.7518 26.1682 18.2407 22.7727 18.2407 18.5841C18.2407 14.3955 21.7518 11 26.083 11C30.4142 11 33.9253 14.3955 33.9253 18.5841Z" fill="#C5C7C8"/>
<path d="M33.9253 18.5841C33.9253 22.7727 30.4142 26.1682 26.083 26.1682C21.7518 26.1682 18.2407 22.7727 18.2407 18.5841C18.2407 14.3955 21.7518 11 26.083 11C30.4142 11 33.9253 14.3955 33.9253 18.5841Z" fill="url(#paint0_radial_921_91)"/>
<path d="M43.624 21.8344C43.6312 21.7149 43.6348 21.5945 43.6348 21.4733C43.6348 18.0825 40.7925 15.3338 37.2863 15.3338C35.5991 15.3338 34.0657 15.9703 32.9286 17.0085C32.3535 16.8584 31.7487 16.7784 31.1245 16.7784C28.8668 16.7784 26.8622 17.8256 25.6015 19.4451C25.2172 19.3545 24.8156 19.3064 24.4025 19.3064C21.6181 19.3064 19.361 21.4892 19.361 24.1819C19.361 24.1945 19.361 24.207 19.3611 24.2195C19.361 24.2284 19.361 24.2371 19.361 24.246C19.361 27.5016 22.0901 30.1408 25.4566 30.1408H35.0456C39.7893 30.1408 43.6348 26.4219 43.6348 21.8344H43.624Z" fill="#FDFDFD"/>
<path d="M43.624 21.8344C43.6312 21.7149 43.6348 21.5945 43.6348 21.4733C43.6348 18.0825 40.7925 15.3338 37.2863 15.3338C35.5991 15.3338 34.0657 15.9703 32.9286 17.0085C32.3535 16.8584 31.7487 16.7784 31.1245 16.7784C28.8668 16.7784 26.8622 17.8256 25.6015 19.4451C25.2172 19.3545 24.8156 19.3064 24.4025 19.3064C21.6181 19.3064 19.361 21.4892 19.361 24.1819C19.361 24.1945 19.361 24.207 19.3611 24.2195C19.361 24.2284 19.361 24.2371 19.361 24.246C19.361 27.5016 22.0901 30.1408 25.4566 30.1408H35.0456C39.7893 30.1408 43.6348 26.4219 43.6348 21.8344H43.624Z" fill="url(#paint1_radial_921_91)" fill-opacity="0.4"/>
<path d="M35.0456 26.0478C35.0456 23.1225 37.4979 20.751 40.5228 20.751H41.4515C43.9635 20.751 46 22.7204 46 25.1498C46 27.5792 43.9635 29.5486 41.4515 29.5486H38.078C36.4033 29.5486 35.0456 28.2356 35.0456 26.616V26.0478Z" fill="white"/>
<path d="M35.0456 26.0478C35.0456 23.1225 37.4979 20.751 40.5228 20.751H41.4515C43.9635 20.751 46 22.7204 46 25.1498C46 27.5792 43.9635 29.5486 41.4515 29.5486H38.078C36.4033 29.5486 35.0456 28.2356 35.0456 26.616V26.0478Z" fill="url(#paint2_radial_921_91)" fill-opacity="0.3"/>
<path d="M24.2158 29.0574C24.2158 26.8634 22.3766 25.0848 20.1079 25.0848H19.249C17.4546 25.0848 16 26.4915 16 28.2268C16 29.962 17.4546 31.3687 19.249 31.3687H22.0498C23.246 31.3687 24.2158 30.4309 24.2158 29.2741V29.0574Z" fill="white"/>
<path d="M24.2158 29.0574C24.2158 26.8634 22.3766 25.0848 20.1079 25.0848H19.249C17.4546 25.0848 16 26.4915 16 28.2268C16 29.962 17.4546 31.3687 19.249 31.3687H22.0498C23.246 31.3687 24.2158 30.4309 24.2158 29.2741V29.0574Z" fill="url(#paint3_radial_921_91)" fill-opacity="0.2"/>
</g>
<defs>
<filter id="filter0_di_921_91" x="0" y="0" width="62" height="58" filterUnits="userSpaceOnUse" color-interpolation-filters="sRGB">
<feFlood flood-opacity="0" result="BackgroundImageFix"/>
<feColorMatrix in="SourceAlpha" type="matrix" values="0 0 0 0 0 0 0 0 0 0 0 0 0 0 0 0 0 0 127 0" result="hardAlpha"/>
<feOffset dy="5"/>
<feGaussianBlur stdDeviation="8"/>
<feComposite in2="hardAlpha" operator="out"/>
<feColorMatrix type="matrix" values="0 0 0 0 0 0 0 0 0 0 0 0 0 0 0 0 0 0 0.14 0"/>
<feBlend mode="normal" in2="BackgroundImageFix" result="effect1_dropShadow_921_91"/>
<feBlend mode="normal" in="SourceGraphic" in2="effect1_dropShadow_921_91" result="shape"/>
<feColorMatrix in="SourceAlpha" type="matrix" values="0 0 0 0 0 0 0 0 0 0 0 0 0 0 0 0 0 0 127 0" result="hardAlpha"/>
<feOffset/>
<feGaussianBlur stdDeviation="5.5"/>
<feComposite in2="hardAlpha" operator="arithmetic" k2="-1" k3="1"/>
<feColorMatrix type="matrix" values="0 0 0 0 0.301961 0 0 0 0 0.368627 0 0 0 0 0.435294 0 0 0 0.08 0"/>
<feBlend mode="normal" in2="shape" result="effect2_innerShadow_921_91"/>
</filter>
<radialGradient id="paint0_radial_921_91" cx="0" cy="0" r="1" gradientUnits="userSpaceOnUse" gradientTransform="translate(35.2857 11.9286) rotate(95.4923) scale(22.3885 25.774)">
<stop stop-color="#CACED1"/>
<stop offset="1" stop-color="#8A8484"/>
</radialGradient>
<radialGradient id="paint1_radial_921_91" cx="0" cy="0" r="1" gradientUnits="userSpaceOnUse" gradientTransform="translate(27.0769 14.8049) rotate(59.2578) scale(23.8269 33.8706)">
<stop stop-color="white"/>
<stop offset="1" stop-color="#4D5E6F"/>
</radialGradient>
<radialGradient id="paint2_radial_921_91" cx="0" cy="0" r="1" gradientUnits="userSpaceOnUse" gradientTransform="translate(16 18.4286) rotate(24.9905) scale(35.1675 23.3998)">
<stop stop-color="white"/>
<stop offset="0.989393" stop-color="#4D5E6F"/>
</radialGradient>
<radialGradient id="paint3_radial_921_91" cx="0" cy="0" r="1" gradientUnits="userSpaceOnUse" gradientTransform="translate(29.8287 24.7107) rotate(132.703) scale(12.114 8.27112)">
<stop stop-color="#4D5E6F" stop-opacity="0"/>
<stop offset="1" stop-color="#4D5E6F" stop-opacity="0.54"/>
</radialGradient>
</defs>
</svg>
