<svg width="39" height="34" viewBox="0 0 39 34" fill="none" xmlns="http://www.w3.org/2000/svg">
<g filter="url(#filter0_di_728_100)">
<ellipse cx="12.84" cy="10.5" rx="7.84" ry="7.5" fill="#C5C7C8"/>
<ellipse cx="12.84" cy="10.5" rx="7.84" ry="7.5" fill="url(#paint0_radial_728_100)"/>
</g>
<path d="M25.4552 25.7449C25.4552 25.6799 25.428 25.6177 25.3796 25.5717C25.3312 25.5258 25.2655 25.5 25.1971 25.5C25.1286 25.5 25.0629 25.5258 25.0145 25.5717C24.9661 25.6177 24.9389 25.6799 24.9389 25.7449V25.9805L24.7701 25.8958C24.7401 25.8807 24.7073 25.8714 24.6735 25.8684C24.6398 25.8654 24.6057 25.8687 24.5733 25.8782C24.5409 25.8877 24.5108 25.9031 24.4847 25.9236C24.4586 25.9441 24.437 25.9693 24.4211 25.9978C24.4053 26.0262 24.3955 26.0573 24.3923 26.0893C24.3892 26.1213 24.3927 26.1536 24.4026 26.1844C24.4126 26.2151 24.4289 26.2437 24.4505 26.2684C24.4721 26.2932 24.4987 26.3137 24.5287 26.3287L24.9389 26.5344V27.0002C24.7572 27.0449 24.5917 27.1356 24.4603 27.2628L24.0348 27.0296L24.0521 26.5898C24.0546 26.5249 24.0299 26.4617 23.9833 26.4141C23.9367 26.3665 23.872 26.3384 23.8036 26.336C23.7352 26.3336 23.6685 26.357 23.6183 26.4012C23.5682 26.4454 23.5385 26.5068 23.536 26.5717L23.529 26.7527L23.314 26.6351C23.2846 26.6179 23.2519 26.6064 23.2177 26.6014C23.1835 26.5963 23.1487 26.5979 23.1152 26.6059C23.0817 26.6139 23.0502 26.6282 23.0226 26.6479C22.995 26.6677 22.9719 26.6925 22.9546 26.7209C22.9373 26.7492 22.9262 26.7806 22.922 26.8132C22.9177 26.8457 22.9204 26.8787 22.9298 26.9102C22.9392 26.9418 22.9553 26.9712 22.9769 26.9968C22.9985 27.0223 23.0254 27.0435 23.0558 27.059L23.2709 27.1768L23.109 27.2733C23.0525 27.3085 23.0129 27.3633 22.9985 27.4259C22.9842 27.4885 22.9963 27.554 23.0322 27.6083C23.0682 27.6625 23.1251 27.7013 23.1908 27.7162C23.2565 27.731 23.3258 27.7209 23.3837 27.6879L23.7766 27.4538L24.2018 27.6867C24.1516 27.8583 24.1516 28.0397 24.2018 28.2113L23.7766 28.4439L23.3837 28.21C23.3258 28.177 23.2565 28.1669 23.1908 28.1818C23.1251 28.1967 23.0682 28.2354 23.0322 28.2897C22.9963 28.3439 22.9842 28.4094 22.9985 28.472C23.0129 28.5347 23.0525 28.5895 23.109 28.6247L23.2709 28.7211L23.0558 28.8387C23.0264 28.8548 23.0007 28.8762 22.98 28.9017C22.9594 28.9272 22.9442 28.9564 22.9354 28.9874C22.9266 29.0185 22.9244 29.0509 22.9288 29.0828C22.9332 29.1147 22.9442 29.1455 22.9612 29.1733C22.9781 29.2012 23.0007 29.2256 23.0276 29.2452C23.0545 29.2648 23.0852 29.2792 23.118 29.2875C23.1507 29.2959 23.1849 29.298 23.2185 29.2938C23.2522 29.2896 23.2846 29.2792 23.314 29.2631L23.5288 29.1453L23.536 29.3265C23.5373 29.3587 23.5452 29.3903 23.5594 29.4195C23.5735 29.4487 23.5936 29.475 23.6184 29.4969C23.6433 29.5188 23.6725 29.5358 23.7042 29.547C23.736 29.5582 23.7698 29.5633 23.8037 29.5621C23.8376 29.5609 23.8709 29.5534 23.9017 29.54C23.9326 29.5266 23.9603 29.5075 23.9834 29.4839C24.0064 29.4604 24.0244 29.4327 24.0362 29.4025C24.0479 29.3724 24.0534 29.3403 24.0521 29.3082L24.0348 28.8683L24.4603 28.6352C24.5917 28.7623 24.7572 28.8531 24.9389 28.8977V29.3635L24.5287 29.5692C24.4681 29.5996 24.4228 29.6515 24.4026 29.7136C24.3825 29.7757 24.3891 29.8428 24.4211 29.9002C24.4532 29.9576 24.5079 30.0006 24.5733 30.0198C24.6388 30.0389 24.7095 30.0326 24.7701 30.0022L24.9389 29.9175V30.1531C24.9389 30.218 24.9661 30.2803 25.0145 30.3262C25.0629 30.3722 25.1286 30.398 25.1971 30.398C25.2655 30.398 25.3312 30.3722 25.3796 30.3262C25.428 30.2803 25.4552 30.218 25.4552 30.1531V29.9175L25.6241 30.0022C25.6846 30.0326 25.7554 30.0389 25.8208 30.0198C25.8863 30.0006 25.941 29.9576 25.973 29.9002C26.005 29.8428 26.0117 29.7757 25.9915 29.7136C25.9713 29.6515 25.926 29.5996 25.8655 29.5692L25.4552 29.3635V28.8977C25.637 28.8532 25.8024 28.7625 25.9339 28.6354L26.3594 28.8683L26.3421 29.3082C26.3408 29.3403 26.3462 29.3724 26.358 29.4025C26.3698 29.4327 26.3877 29.4604 26.4108 29.4839C26.4339 29.5075 26.4616 29.5266 26.4924 29.54C26.5232 29.5534 26.5565 29.5609 26.5904 29.5621C26.6243 29.5633 26.6581 29.5582 26.6899 29.547C26.7217 29.5358 26.7509 29.5188 26.7757 29.4969C26.8006 29.475 26.8207 29.4487 26.8348 29.4195C26.8489 29.3903 26.8569 29.3587 26.8581 29.3265L26.8651 29.1453L27.0802 29.2631C27.1095 29.2794 27.142 29.2901 27.1758 29.2945C27.2095 29.2988 27.2438 29.2968 27.2767 29.2886C27.3096 29.2803 27.3405 29.266 27.3676 29.2464C27.3946 29.2268 27.4173 29.2023 27.4343 29.1743C27.4513 29.1463 27.4624 29.1154 27.4668 29.0834C27.4711 29.0514 27.4688 29.0188 27.4599 28.9877C27.451 28.9565 27.4356 28.9273 27.4148 28.9018C27.3939 28.8763 27.3679 28.8549 27.3383 28.8389L27.1235 28.7214L27.2852 28.6249C27.3431 28.5903 27.3843 28.5353 27.3995 28.472C27.4148 28.4087 27.4029 28.3422 27.3665 28.2872C27.3301 28.2322 27.2721 28.1931 27.2053 28.1787C27.1385 28.1642 27.0685 28.1755 27.0105 28.21L26.6175 28.4442L26.1923 28.2115C26.2426 28.0398 26.2426 27.8584 26.1923 27.6867L26.6175 27.4538L27.0105 27.6879C27.0685 27.7225 27.1385 27.7338 27.2053 27.7193C27.2721 27.7048 27.3301 27.6658 27.3665 27.6108C27.4029 27.5558 27.4148 27.4893 27.3995 27.4259C27.3843 27.3626 27.3431 27.3076 27.2852 27.2731L27.1233 27.1768L27.3383 27.059C27.3679 27.0431 27.3939 27.0217 27.4148 26.9962C27.4356 26.9706 27.451 26.9415 27.4599 26.9103C27.4688 26.8791 27.4711 26.8466 27.4668 26.8146C27.4624 26.7825 27.4513 26.7516 27.4343 26.7237C27.4173 26.6957 27.3946 26.6712 27.3676 26.6516C27.3405 26.632 27.3096 26.6176 27.2767 26.6094C27.2438 26.6011 27.2095 26.5991 27.1758 26.6035C27.142 26.6079 27.1095 26.6185 27.0802 26.6349L26.8651 26.7524L26.8581 26.5714C26.8569 26.5393 26.8489 26.5077 26.8348 26.4785C26.8207 26.4492 26.8006 26.4229 26.7757 26.401C26.7509 26.3792 26.7217 26.3621 26.6899 26.351C26.6581 26.3398 26.6243 26.3346 26.5904 26.3358C26.5565 26.337 26.5232 26.3446 26.4924 26.358C26.4616 26.3714 26.4339 26.3904 26.4108 26.414C26.3877 26.4376 26.3698 26.4653 26.358 26.4954C26.3462 26.5256 26.3408 26.5577 26.3421 26.5898L26.3594 27.0296L25.9339 27.2625C25.8024 27.1355 25.637 27.0448 25.4552 27.0002V26.5344L25.8655 26.3287C25.926 26.2984 25.9713 26.2464 25.9915 26.1844C26.0117 26.1223 26.005 26.0552 25.973 25.9978C25.941 25.9403 25.8863 25.8973 25.8208 25.8782C25.7554 25.8591 25.6846 25.8654 25.6241 25.8958L25.4552 25.9805V25.7449Z" fill="url(#paint1_linear_728_100)"/>
<path d="M18.7353 28.9592C18.7353 28.8942 18.7081 28.8319 18.6597 28.786C18.6112 28.7401 18.5456 28.7143 18.4771 28.7143C18.4086 28.7143 18.343 28.7401 18.2945 28.786C18.2461 28.8319 18.2189 28.8942 18.2189 28.9592V29.1948L18.0501 29.11C18.0201 29.095 17.9873 29.0857 17.9536 29.0827C17.9198 29.0797 17.8858 29.083 17.8534 29.0925C17.821 29.102 17.7908 29.1174 17.7647 29.1379C17.7386 29.1584 17.717 29.1836 17.7012 29.212C17.6853 29.2405 17.6755 29.2716 17.6724 29.3036C17.6692 29.3356 17.6727 29.3679 17.6827 29.3987C17.6927 29.4294 17.7089 29.458 17.7306 29.4827C17.7522 29.5075 17.7787 29.528 17.8087 29.543L18.2189 29.7487V30.2145C18.0372 30.2591 17.8717 30.3499 17.7403 30.4771L17.3148 30.2439L17.3321 29.8041C17.3347 29.7392 17.3099 29.6759 17.2633 29.6283C17.2167 29.5807 17.1521 29.5526 17.0836 29.5502C17.0152 29.5478 16.9486 29.5713 16.8984 29.6155C16.8482 29.6597 16.8186 29.721 16.816 29.786L16.8091 29.9669L16.594 29.8494C16.5646 29.8321 16.5319 29.8207 16.4977 29.8156C16.4636 29.8106 16.4287 29.8122 16.3952 29.8202C16.3617 29.8282 16.3302 29.8424 16.3026 29.8622C16.275 29.882 16.2519 29.9068 16.2346 29.9351C16.2173 29.9635 16.2062 29.9949 16.202 30.0275C16.1977 30.06 16.2004 30.093 16.2098 30.1245C16.2193 30.1561 16.2353 30.1855 16.2569 30.211C16.2786 30.2366 16.3054 30.2578 16.3358 30.2733L16.5509 30.3911L16.389 30.4876C16.3326 30.5228 16.2929 30.5776 16.2785 30.6402C16.2642 30.7028 16.2763 30.7683 16.3122 30.8226C16.3482 30.8768 16.4051 30.9156 16.4708 30.9304C16.5365 30.9453 16.6058 30.9352 16.6637 30.9022L17.0567 30.6681L17.4819 30.901C17.4316 31.0726 17.4316 31.2539 17.4819 31.4256L17.0567 31.6582L16.6637 31.4243C16.6058 31.3913 16.5365 31.3812 16.4708 31.3961C16.4051 31.411 16.3482 31.4497 16.3122 31.504C16.2763 31.5582 16.2642 31.6237 16.2785 31.6863C16.2929 31.7489 16.3326 31.8037 16.389 31.8389L16.5509 31.9354L16.3358 32.053C16.3065 32.0691 16.2807 32.0905 16.2601 32.116C16.2394 32.1415 16.2243 32.1706 16.2155 32.2017C16.2067 32.2328 16.2044 32.2652 16.2089 32.2971C16.2133 32.329 16.2243 32.3598 16.2412 32.3876C16.2582 32.4155 16.2807 32.4399 16.3076 32.4595C16.3346 32.4791 16.3653 32.4935 16.398 32.5018C16.4308 32.5102 16.4649 32.5123 16.4986 32.5081C16.5322 32.5039 16.5646 32.4935 16.594 32.4774L16.8088 32.3596L16.816 32.5408C16.8173 32.573 16.8252 32.6046 16.8394 32.6338C16.8535 32.663 16.8736 32.6893 16.8985 32.7112C16.9233 32.7331 16.9525 32.7501 16.9843 32.7613C17.0161 32.7725 17.0499 32.7776 17.0838 32.7764C17.1176 32.7752 17.1509 32.7677 17.1818 32.7543C17.2126 32.7408 17.2403 32.7218 17.2634 32.6982C17.2864 32.6746 17.3044 32.647 17.3162 32.6168C17.328 32.5867 17.3334 32.5546 17.3321 32.5224L17.3148 32.0826L17.7403 31.8495C17.8717 31.9766 18.0372 32.0674 18.2189 32.112V32.5778L17.8087 32.7835C17.7482 32.8139 17.7028 32.8658 17.6827 32.9279C17.6625 32.9899 17.6692 33.0571 17.7012 33.1145C17.7332 33.1719 17.7879 33.2149 17.8534 33.234C17.9188 33.2532 17.9896 33.2469 18.0501 33.2165L18.2189 33.1318V33.3673C18.2189 33.4323 18.2461 33.4946 18.2945 33.5405C18.343 33.5864 18.4086 33.6122 18.4771 33.6122C18.5456 33.6122 18.6112 33.5864 18.6597 33.5405C18.7081 33.4946 18.7353 33.4323 18.7353 33.3673V33.1318L18.9041 33.2165C18.9646 33.2469 19.0354 33.2532 19.1008 33.234C19.1663 33.2149 19.221 33.1719 19.253 33.1145C19.285 33.0571 19.2917 32.9899 19.2715 32.9279C19.2514 32.8658 19.206 32.8139 19.1455 32.7835L18.7353 32.5778V32.112C18.917 32.0675 19.0825 31.9768 19.2139 31.8497L19.6394 32.0826L19.6221 32.5224C19.6208 32.5546 19.6262 32.5867 19.638 32.6168C19.6498 32.647 19.6678 32.6746 19.6908 32.6982C19.7139 32.7218 19.7416 32.7408 19.7724 32.7543C19.8033 32.7677 19.8366 32.7752 19.8704 32.7764C19.9043 32.7776 19.9381 32.7725 19.9699 32.7613C20.0017 32.7501 20.0309 32.7331 20.0557 32.7112C20.0806 32.6893 20.1007 32.663 20.1148 32.6338C20.129 32.6046 20.1369 32.573 20.1382 32.5408L20.1451 32.3596L20.3602 32.4774C20.3896 32.4937 20.4221 32.5044 20.4558 32.5088C20.4895 32.5131 20.5238 32.5111 20.5568 32.5029C20.5897 32.4946 20.6205 32.4803 20.6476 32.4607C20.6746 32.441 20.6973 32.4165 20.7143 32.3886C20.7314 32.3606 20.7424 32.3297 20.7468 32.2977C20.7512 32.2657 20.7488 32.2331 20.7399 32.202C20.731 32.1708 20.7157 32.1416 20.6948 32.1161C20.6739 32.0905 20.648 32.0692 20.6184 32.0532L20.4036 31.9357L20.5652 31.8392C20.6232 31.8046 20.6643 31.7496 20.6796 31.6863C20.6948 31.623 20.6829 31.5565 20.6465 31.5015C20.6101 31.4465 20.5521 31.4074 20.4853 31.393C20.4186 31.3785 20.3485 31.3898 20.2905 31.4243L19.8976 31.6584L19.4723 31.4258C19.5227 31.2541 19.5227 31.0727 19.4723 30.901L19.8976 30.6681L20.2905 30.9022C20.3485 30.9368 20.4186 30.948 20.4853 30.9336C20.5521 30.9191 20.6101 30.8801 20.6465 30.8251C20.6829 30.77 20.6948 30.7036 20.6796 30.6402C20.6643 30.5769 20.6232 30.5219 20.5652 30.4873L20.4033 30.3911L20.6184 30.2733C20.648 30.2573 20.6739 30.236 20.6948 30.2105C20.7157 30.1849 20.731 30.1557 20.7399 30.1246C20.7488 30.0934 20.7512 30.0609 20.7468 30.0288C20.7424 29.9968 20.7314 29.9659 20.7143 29.938C20.6973 29.91 20.6746 29.8855 20.6476 29.8659C20.6205 29.8463 20.5897 29.8319 20.5568 29.8236C20.5238 29.8154 20.4895 29.8134 20.4558 29.8178C20.4221 29.8221 20.3896 29.8328 20.3602 29.8491L20.1451 29.9667L20.1382 29.7857C20.1369 29.7536 20.129 29.722 20.1148 29.6927C20.1007 29.6635 20.0806 29.6372 20.0557 29.6153C20.0309 29.5934 20.0017 29.5764 19.9699 29.5652C19.9381 29.5541 19.9043 29.5489 19.8704 29.5501C19.8366 29.5513 19.8033 29.5589 19.7724 29.5723C19.7416 29.5857 19.7139 29.6047 19.6908 29.6283C19.6678 29.6519 19.6498 29.6796 19.638 29.7097C19.6262 29.7399 19.6208 29.7719 19.6221 29.8041L19.6394 30.2439L19.2139 30.4768C19.0825 30.3498 18.917 30.2591 18.7353 30.2145V29.7487L19.1455 29.543C19.206 29.5127 19.2514 29.4607 19.2715 29.3987C19.2917 29.3366 19.285 29.2695 19.253 29.212C19.221 29.1546 19.1663 29.1116 19.1008 29.0925C19.0354 29.0734 18.9646 29.0797 18.9041 29.11L18.7353 29.1948V28.9592Z" fill="url(#paint2_linear_728_100)"/>
<path d="M13.1352 25.7449C13.1352 25.6799 13.108 25.6177 13.0596 25.5717C13.0112 25.5258 12.9455 25.5 12.8771 25.5C12.8086 25.5 12.7429 25.5258 12.6945 25.5717C12.6461 25.6177 12.6189 25.6799 12.6189 25.7449V25.9805L12.4501 25.8958C12.4201 25.8807 12.3873 25.8714 12.3535 25.8684C12.3198 25.8654 12.2857 25.8687 12.2533 25.8782C12.2209 25.8877 12.1908 25.9031 12.1647 25.9236C12.1386 25.9441 12.117 25.9693 12.1011 25.9978C12.0853 26.0262 12.0755 26.0573 12.0723 26.0893C12.0691 26.1213 12.0727 26.1536 12.0826 26.1844C12.0926 26.2151 12.1089 26.2437 12.1305 26.2684C12.1521 26.2932 12.1787 26.3137 12.2087 26.3287L12.6189 26.5344V27.0002C12.4372 27.0449 12.2717 27.1356 12.1402 27.2628L11.7148 27.0296L11.7321 26.5898C11.7346 26.5249 11.7099 26.4617 11.6633 26.4141C11.6167 26.3665 11.552 26.3384 11.4836 26.336C11.4152 26.3336 11.3485 26.357 11.2983 26.4012C11.2481 26.4454 11.2185 26.5068 11.216 26.5717L11.209 26.7527L10.994 26.6351C10.9646 26.6179 10.9318 26.6064 10.8977 26.6014C10.8635 26.5963 10.8287 26.5979 10.7952 26.6059C10.7616 26.6139 10.7302 26.6282 10.7026 26.6479C10.675 26.6677 10.6519 26.6925 10.6346 26.7209C10.6173 26.7492 10.6062 26.7806 10.6019 26.8132C10.5977 26.8457 10.6004 26.8787 10.6098 26.9102C10.6192 26.9418 10.6352 26.9712 10.6569 26.9968C10.6785 27.0223 10.7054 27.0435 10.7358 27.059L10.9509 27.1768L10.789 27.2733C10.7325 27.3085 10.6929 27.3633 10.6785 27.4259C10.6641 27.4885 10.6762 27.554 10.7122 27.6083C10.7481 27.6625 10.8051 27.7013 10.8708 27.7162C10.9365 27.731 11.0058 27.7209 11.0637 27.6879L11.4566 27.4538L11.8818 27.6867C11.8315 27.8583 11.8315 28.0397 11.8818 28.2113L11.4566 28.4439L11.0637 28.21C11.0058 28.177 10.9365 28.1669 10.8708 28.1818C10.8051 28.1967 10.7481 28.2354 10.7122 28.2897C10.6762 28.3439 10.6641 28.4094 10.6785 28.472C10.6929 28.5347 10.7325 28.5895 10.789 28.6247L10.9509 28.7211L10.7358 28.8387C10.7064 28.8548 10.6807 28.8762 10.66 28.9017C10.6394 28.9272 10.6242 28.9564 10.6154 28.9874C10.6066 29.0185 10.6044 29.0509 10.6088 29.0828C10.6132 29.1147 10.6242 29.1455 10.6412 29.1733C10.6581 29.2012 10.6807 29.2256 10.7076 29.2452C10.7345 29.2648 10.7652 29.2792 10.798 29.2875C10.8307 29.2959 10.8649 29.298 10.8985 29.2938C10.9322 29.2896 10.9646 29.2792 10.994 29.2631L11.2088 29.1453L11.216 29.3265C11.2173 29.3587 11.2252 29.3903 11.2393 29.4195C11.2535 29.4487 11.2736 29.475 11.2984 29.4969C11.3233 29.5188 11.3524 29.5358 11.3842 29.547C11.416 29.5582 11.4498 29.5633 11.4837 29.5621C11.5176 29.5609 11.5509 29.5534 11.5817 29.54C11.6126 29.5266 11.6403 29.5075 11.6633 29.4839C11.6864 29.4604 11.7044 29.4327 11.7161 29.4025C11.7279 29.3724 11.7334 29.3403 11.7321 29.3082L11.7148 28.8683L12.1402 28.6352C12.2717 28.7623 12.4372 28.8531 12.6189 28.8977V29.3635L12.2087 29.5692C12.1481 29.5996 12.1028 29.6515 12.0826 29.7136C12.0625 29.7757 12.0691 29.8428 12.1011 29.9002C12.1331 29.9576 12.1879 30.0006 12.2533 30.0198C12.3188 30.0389 12.3895 30.0326 12.4501 30.0022L12.6189 29.9175V30.1531C12.6189 30.218 12.6461 30.2803 12.6945 30.3262C12.7429 30.3722 12.8086 30.398 12.8771 30.398C12.9455 30.398 13.0112 30.3722 13.0596 30.3262C13.108 30.2803 13.1352 30.218 13.1352 30.1531V29.9175L13.3041 30.0022C13.3646 30.0326 13.4354 30.0389 13.5008 30.0198C13.5662 30.0006 13.621 29.9576 13.653 29.9002C13.685 29.8428 13.6917 29.7757 13.6715 29.7136C13.6513 29.6515 13.606 29.5996 13.5455 29.5692L13.1352 29.3635V28.8977C13.3169 28.8532 13.4824 28.7625 13.6139 28.6354L14.0393 28.8683L14.0221 29.3082C14.0208 29.3403 14.0262 29.3724 14.038 29.4025C14.0498 29.4327 14.0677 29.4604 14.0908 29.4839C14.1138 29.5075 14.1416 29.5266 14.1724 29.54C14.2032 29.5534 14.2365 29.5609 14.2704 29.5621C14.3043 29.5633 14.3381 29.5582 14.3699 29.547C14.4017 29.5358 14.4308 29.5188 14.4557 29.4969C14.4806 29.475 14.5006 29.4487 14.5148 29.4195C14.5289 29.3903 14.5369 29.3587 14.5381 29.3265L14.5451 29.1453L14.7602 29.2631C14.7895 29.2794 14.822 29.2901 14.8558 29.2945C14.8895 29.2988 14.9238 29.2968 14.9567 29.2886C14.9896 29.2803 15.0205 29.266 15.0475 29.2464C15.0746 29.2268 15.0973 29.2023 15.1143 29.1743C15.1313 29.1463 15.1424 29.1154 15.1467 29.0834C15.1511 29.0514 15.1488 29.0188 15.1399 28.9877C15.131 28.9565 15.1156 28.9273 15.0948 28.9018C15.0739 28.8763 15.0479 28.8549 15.0183 28.8389L14.8035 28.7214L14.9651 28.6249C15.0231 28.5903 15.0643 28.5353 15.0795 28.472C15.0948 28.4087 15.0829 28.3422 15.0465 28.2872C15.01 28.2322 14.9521 28.1931 14.8853 28.1787C14.8185 28.1642 14.7484 28.1755 14.6905 28.21L14.2975 28.4442L13.8723 28.2115C13.9226 28.0398 13.9226 27.8584 13.8723 27.6867L14.2975 27.4538L14.6905 27.6879C14.7484 27.7225 14.8185 27.7338 14.8853 27.7193C14.9521 27.7048 15.01 27.6658 15.0465 27.6108C15.0829 27.5558 15.0948 27.4893 15.0795 27.4259C15.0643 27.3626 15.0231 27.3076 14.9651 27.2731L14.8033 27.1768L15.0183 27.059C15.0479 27.0431 15.0739 27.0217 15.0948 26.9962C15.1156 26.9706 15.131 26.9415 15.1399 26.9103C15.1488 26.8791 15.1511 26.8466 15.1467 26.8146C15.1424 26.7825 15.1313 26.7516 15.1143 26.7237C15.0973 26.6957 15.0746 26.6712 15.0475 26.6516C15.0205 26.632 14.9896 26.6176 14.9567 26.6094C14.9238 26.6011 14.8895 26.5991 14.8558 26.6035C14.822 26.6079 14.7895 26.6185 14.7602 26.6349L14.5451 26.7524L14.5381 26.5714C14.5369 26.5393 14.5289 26.5077 14.5148 26.4785C14.5006 26.4492 14.4806 26.4229 14.4557 26.401C14.4308 26.3792 14.4017 26.3621 14.3699 26.351C14.3381 26.3398 14.3043 26.3346 14.2704 26.3358C14.2365 26.337 14.2032 26.3446 14.1724 26.358C14.1416 26.3714 14.1138 26.3904 14.0908 26.414C14.0677 26.4376 14.0498 26.4653 14.038 26.4954C14.0262 26.5256 14.0208 26.5577 14.0221 26.5898L14.0393 27.0296L13.6139 27.2625C13.4824 27.1355 13.3169 27.0448 13.1352 27.0002V26.5344L13.5455 26.3287C13.606 26.2984 13.6513 26.2464 13.6715 26.1844C13.6917 26.1223 13.685 26.0552 13.653 25.9978C13.621 25.9403 13.5662 25.8973 13.5008 25.8782C13.4354 25.8591 13.3646 25.8654 13.3041 25.8958L13.1352 25.9805V25.7449Z" fill="url(#paint3_linear_728_100)"/>
<g filter="url(#filter1_di_728_100)">
<path d="M32.988 14.6327C32.996 14.4976 33 14.3615 33 14.2245C33 10.3923 29.8525 7.28571 25.9698 7.28571C24.1015 7.28571 22.4034 8.00505 21.1443 9.17843C20.5074 9.00884 19.8377 8.91837 19.1465 8.91837C16.6464 8.91837 14.4265 10.1019 13.0305 11.9323C12.6049 11.8298 12.1603 11.7755 11.7028 11.7755C8.61947 11.7755 6.12 14.2425 6.12 17.2857C6.12 17.2999 6.12005 17.3141 6.12015 17.3283C6.12005 17.3382 6.12 17.3481 6.12 17.3581C6.12 21.0376 9.14208 24.0204 12.87 24.0204H23.4886C28.7416 24.0204 33 19.8174 33 14.6327H32.988Z" fill="white"/>
<path d="M32.988 14.6327C32.996 14.4976 33 14.3615 33 14.2245C33 10.3923 29.8525 7.28571 25.9698 7.28571C24.1015 7.28571 22.4034 8.00505 21.1443 9.17843C20.5074 9.00884 19.8377 8.91837 19.1465 8.91837C16.6464 8.91837 14.4265 10.1019 13.0305 11.9323C12.6049 11.8298 12.1603 11.7755 11.7028 11.7755C8.61947 11.7755 6.12 14.2425 6.12 17.2857C6.12 17.2999 6.12005 17.3141 6.12015 17.3283C6.12005 17.3382 6.12 17.3481 6.12 17.3581C6.12 21.0376 9.14208 24.0204 12.87 24.0204H23.4886C28.7416 24.0204 33 19.8174 33 14.6327H32.988Z" fill="url(#paint4_radial_728_100)" fill-opacity="0.4"/>
</g>
<defs>
<filter id="filter0_di_728_100" x="2.33" y="0.33" width="21.02" height="20.34" filterUnits="userSpaceOnUse" color-interpolation-filters="sRGB">
<feFlood flood-opacity="0" result="BackgroundImageFix"/>
<feColorMatrix in="SourceAlpha" type="matrix" values="0 0 0 0 0 0 0 0 0 0 0 0 0 0 0 0 0 0 127 0" result="hardAlpha"/>
<feMorphology radius="1" operator="dilate" in="SourceAlpha" result="effect1_dropShadow_728_100"/>
<feOffset/>
<feGaussianBlur stdDeviation="0.835"/>
<feComposite in2="hardAlpha" operator="out"/>
<feColorMatrix type="matrix" values="0 0 0 0 1 0 0 0 0 1 0 0 0 0 1 0 0 0 0.08 0"/>
<feBlend mode="normal" in2="BackgroundImageFix" result="effect1_dropShadow_728_100"/>
<feBlend mode="normal" in="SourceGraphic" in2="effect1_dropShadow_728_100" result="shape"/>
<feColorMatrix in="SourceAlpha" type="matrix" values="0 0 0 0 0 0 0 0 0 0 0 0 0 0 0 0 0 0 127 0" result="hardAlpha"/>
<feOffset dy="2"/>
<feGaussianBlur stdDeviation="1.5"/>
<feComposite in2="hardAlpha" operator="arithmetic" k2="-1" k3="1"/>
<feColorMatrix type="matrix" values="0 0 0 0 0 0 0 0 0 0 0 0 0 0 0 0 0 0 0.25 0"/>
<feBlend mode="normal" in2="shape" result="effect2_innerShadow_728_100"/>
</filter>
<filter id="filter1_di_728_100" x="0.786668" y="5.28572" width="37.5467" height="27.4013" filterUnits="userSpaceOnUse" color-interpolation-filters="sRGB">
<feFlood flood-opacity="0" result="BackgroundImageFix"/>
<feColorMatrix in="SourceAlpha" type="matrix" values="0 0 0 0 0 0 0 0 0 0 0 0 0 0 0 0 0 0 127 0" result="hardAlpha"/>
<feOffset dy="3.33333"/>
<feGaussianBlur stdDeviation="2.66666"/>
<feComposite in2="hardAlpha" operator="out"/>
<feColorMatrix type="matrix" values="0 0 0 0 0.301961 0 0 0 0 0.368627 0 0 0 0 0.435294 0 0 0 0.08 0"/>
<feBlend mode="normal" in2="BackgroundImageFix" result="effect1_dropShadow_728_100"/>
<feBlend mode="normal" in="SourceGraphic" in2="effect1_dropShadow_728_100" result="shape"/>
<feColorMatrix in="SourceAlpha" type="matrix" values="0 0 0 0 0 0 0 0 0 0 0 0 0 0 0 0 0 0 127 0" result="hardAlpha"/>
<feOffset/>
<feGaussianBlur stdDeviation="4"/>
<feComposite in2="hardAlpha" operator="arithmetic" k2="-1" k3="1"/>
<feColorMatrix type="matrix" values="0 0 0 0 0 0 0 0 0 0 0 0 0 0 0 0 0 0 0.05 0"/>
<feBlend mode="normal" in2="shape" result="effect2_innerShadow_728_100"/>
</filter>
<radialGradient id="paint0_radial_728_100" cx="0" cy="0" r="1" gradientUnits="userSpaceOnUse" gradientTransform="translate(15.08 3.53571) rotate(94.9785) scale(12.9058 13.4823)">
<stop stop-color="#CACED1"/>
<stop offset="1" stop-color="#8A8484"/>
</radialGradient>
<linearGradient id="paint1_linear_728_100" x1="26.6418" y1="26.3163" x2="23.5781" y2="29.2135" gradientUnits="userSpaceOnUse">
<stop stop-color="white" stop-opacity="0.6"/>
<stop offset="1" stop-color="white"/>
</linearGradient>
<linearGradient id="paint2_linear_728_100" x1="19.9219" y1="29.5306" x2="16.8581" y2="32.4277" gradientUnits="userSpaceOnUse">
<stop stop-color="white" stop-opacity="0.6"/>
<stop offset="1" stop-color="white"/>
</linearGradient>
<linearGradient id="paint3_linear_728_100" x1="14.3218" y1="26.3163" x2="11.2581" y2="29.2135" gradientUnits="userSpaceOnUse">
<stop stop-color="white" stop-opacity="0.6"/>
<stop offset="1" stop-color="white"/>
</linearGradient>
<radialGradient id="paint4_radial_728_100" cx="0" cy="0" r="1" gradientUnits="userSpaceOnUse" gradientTransform="translate(13.96 11.5714) rotate(47.9247) scale(15.8781 24.9527)">
<stop stop-color="white"/>
<stop offset="1" stop-color="#4D5E6F"/>
</radialGradient>
</defs>
</svg>
