<svg width="39" height="42" viewBox="0 0 39 42" fill="none" xmlns="http://www.w3.org/2000/svg">
<g filter="url(#filter0_di_728_124)">
<path d="M21.75 10.6166C21.75 14.8231 18.2242 18.2332 13.875 18.2332C9.52576 18.2332 6 14.8231 6 10.6166C6 6.41006 9.52576 3 13.875 3C18.2242 3 21.75 6.41006 21.75 10.6166Z" fill="#C5C7C8"/>
<path d="M21.75 10.6166C21.75 14.8231 18.2242 18.2332 13.875 18.2332C9.52576 18.2332 6 14.8231 6 10.6166C6 6.41006 9.52576 3 13.875 3C18.2242 3 21.75 6.41006 21.75 10.6166Z" fill="url(#paint0_radial_728_124)"/>
</g>
<g filter="url(#filter1_di_728_124)">
<path d="M25.4216 25.0104C25.4216 24.9444 25.3943 24.8811 25.3456 24.8345C25.297 24.7879 25.231 24.7617 25.1623 24.7617C25.0935 24.7617 25.0275 24.7879 24.9789 24.8345C24.9303 24.8811 24.9029 24.9444 24.9029 25.0104V25.2496L24.7333 25.1636C24.7032 25.1483 24.6703 25.1389 24.6364 25.1358C24.6025 25.1327 24.5683 25.1361 24.5357 25.1457C24.5032 25.1554 24.4729 25.171 24.4467 25.1919C24.4205 25.2127 24.3988 25.2383 24.3829 25.2671C24.3669 25.296 24.3571 25.3276 24.3539 25.3601C24.3507 25.3927 24.3543 25.4255 24.3643 25.4567C24.3743 25.4879 24.3907 25.5169 24.4124 25.542C24.4341 25.5672 24.4608 25.588 24.4909 25.6033L24.9029 25.8122V26.2852C24.7204 26.3305 24.5542 26.4227 24.4221 26.5518L23.9948 26.3151L24.0122 25.8684C24.0147 25.8025 23.9898 25.7383 23.943 25.6899C23.8962 25.6416 23.8313 25.6131 23.7626 25.6106C23.6938 25.6082 23.6269 25.632 23.5765 25.6769C23.5261 25.7218 23.4963 25.7841 23.4938 25.85L23.4868 26.0338L23.2708 25.9144C23.2412 25.8969 23.2083 25.8852 23.174 25.8801C23.1397 25.875 23.1047 25.8766 23.0711 25.8847C23.0374 25.8928 23.0058 25.9074 22.9781 25.9274C22.9504 25.9475 22.9271 25.9727 22.9098 26.0015C22.8924 26.0303 22.8813 26.0622 22.877 26.0952C22.8727 26.1283 22.8754 26.1618 22.8849 26.1938C22.8943 26.2259 22.9104 26.2557 22.9322 26.2817C22.9539 26.3076 22.9809 26.3291 23.0114 26.3449L23.2274 26.4645L23.0649 26.5625C23.0081 26.5983 22.9683 26.6539 22.9539 26.7175C22.9395 26.7811 22.9516 26.8476 22.9877 26.9027C23.0238 26.9578 23.081 26.9971 23.147 27.0123C23.213 27.0274 23.2826 27.0171 23.3408 26.9836L23.7355 26.7458L24.1626 26.9823C24.1121 27.1566 24.1121 27.3408 24.1626 27.5151L23.7355 27.7513L23.3408 27.5138C23.2826 27.4803 23.213 27.47 23.147 27.4851C23.081 27.5003 23.0238 27.5396 22.9877 27.5947C22.9516 27.6498 22.9395 27.7163 22.9539 27.7799C22.9683 27.8435 23.0081 27.8991 23.0649 27.9349L23.2274 28.0329L23.0114 28.1523C22.9819 28.1686 22.9561 28.1903 22.9353 28.2162C22.9146 28.2422 22.8993 28.2717 22.8905 28.3033C22.8817 28.3349 22.8794 28.3678 22.8839 28.4002C22.8883 28.4326 22.8994 28.4638 22.9164 28.4921C22.9334 28.5204 22.9561 28.5452 22.9831 28.5651C23.0101 28.585 23.041 28.5996 23.0739 28.6081C23.1068 28.6165 23.1411 28.6187 23.1749 28.6144C23.2087 28.6102 23.2412 28.5996 23.2708 28.5833L23.4865 28.4636L23.4938 28.6477C23.4951 28.6803 23.503 28.7124 23.5172 28.7421C23.5314 28.7718 23.5516 28.7985 23.5766 28.8207C23.6015 28.8429 23.6308 28.8602 23.6628 28.8716C23.6947 28.8829 23.7287 28.8881 23.7627 28.8869C23.7967 28.8857 23.8302 28.8781 23.8611 28.8644C23.8921 28.8508 23.92 28.8315 23.9431 28.8075C23.9663 28.7836 23.9843 28.7555 23.9962 28.7249C24.008 28.6942 24.0134 28.6617 24.0122 28.629L23.9948 28.1823L24.4221 27.9456C24.5542 28.0747 24.7204 28.1669 24.9029 28.2122V28.6852L24.4909 28.8941C24.4301 28.925 24.3845 28.9777 24.3643 29.0407C24.344 29.1038 24.3507 29.172 24.3829 29.2303C24.415 29.2886 24.47 29.3322 24.5357 29.3517C24.6015 29.3711 24.6725 29.3647 24.7333 29.3338L24.9029 29.2478V29.487C24.9029 29.553 24.9303 29.6163 24.9789 29.6629C25.0275 29.7095 25.0935 29.7358 25.1623 29.7358C25.231 29.7358 25.297 29.7095 25.3456 29.6629C25.3943 29.6163 25.4216 29.553 25.4216 29.487V29.2478L25.5912 29.3338C25.652 29.3647 25.7231 29.3711 25.7888 29.3517C25.8545 29.3322 25.9095 29.2886 25.9417 29.2303C25.9738 29.172 25.9805 29.1038 25.9602 29.0407C25.94 28.9777 25.8944 28.925 25.8336 28.8941L25.4216 28.6852V28.2122C25.6041 28.1669 25.7703 28.0749 25.9024 27.9458L26.3297 28.1823L26.3124 28.629C26.3111 28.6617 26.3165 28.6942 26.3284 28.7249C26.3402 28.7555 26.3582 28.7836 26.3814 28.8075C26.4046 28.8315 26.4324 28.8508 26.4634 28.8644C26.4943 28.8781 26.5278 28.8857 26.5618 28.8869C26.5959 28.8881 26.6298 28.8829 26.6618 28.8716C26.6937 28.8602 26.723 28.8429 26.7479 28.8207C26.7729 28.7985 26.7931 28.7718 26.8073 28.7421C26.8215 28.7124 26.8295 28.6803 26.8307 28.6477L26.8377 28.4636L27.0538 28.5833C27.0833 28.5998 27.1159 28.6107 27.1498 28.6151C27.1837 28.6196 27.2181 28.6175 27.2512 28.6091C27.2843 28.6008 27.3153 28.5862 27.3424 28.5663C27.3696 28.5463 27.3924 28.5215 27.4095 28.4931C27.4266 28.4647 27.4377 28.4333 27.4421 28.4008C27.4465 28.3682 27.4441 28.3352 27.4352 28.3035C27.4262 28.2719 27.4108 28.2422 27.3899 28.2163C27.3689 28.1904 27.3428 28.1687 27.3131 28.1525L27.0973 28.0331L27.2597 27.9351C27.3179 27.9 27.3592 27.8442 27.3746 27.7799C27.3899 27.7156 27.3779 27.648 27.3413 27.5922C27.3048 27.5363 27.2465 27.4967 27.1795 27.482C27.1124 27.4673 27.042 27.4787 26.9837 27.5138L26.5891 27.7516L26.1619 27.5153C26.2125 27.341 26.2125 27.1567 26.1619 26.9823L26.5891 26.7458L26.9837 26.9836C27.042 27.0187 27.1124 27.0301 27.1795 27.0154C27.2465 27.0008 27.3048 26.9611 27.3413 26.9052C27.3779 26.8494 27.3899 26.7819 27.3746 26.7175C27.3592 26.6532 27.3179 26.5974 27.2597 26.5623L27.0971 26.4645L27.3131 26.3449C27.3428 26.3287 27.3689 26.307 27.3899 26.2811C27.4108 26.2552 27.4262 26.2255 27.4352 26.1939C27.4441 26.1622 27.4465 26.1292 27.4421 26.0967C27.4377 26.0641 27.4266 26.0328 27.4095 26.0044C27.3924 25.976 27.3696 25.9511 27.3424 25.9311C27.3153 25.9112 27.2843 25.8966 27.2512 25.8883C27.2181 25.8799 27.1837 25.8779 27.1498 25.8823C27.1159 25.8867 27.0833 25.8976 27.0538 25.9142L26.8377 26.0335L26.8307 25.8497C26.8295 25.8171 26.8215 25.785 26.8073 25.7553C26.7931 25.7256 26.7729 25.6989 26.7479 25.6767C26.723 25.6545 26.6937 25.6372 26.6618 25.6258C26.6298 25.6145 26.5959 25.6093 26.5618 25.6105C26.5278 25.6117 26.4943 25.6194 26.4634 25.633C26.4324 25.6466 26.4046 25.6659 26.3814 25.6899C26.3582 25.7138 26.3402 25.7419 26.3284 25.7726C26.3165 25.8032 26.3111 25.8357 26.3124 25.8684L26.3297 26.3151L25.9024 26.5516C25.7703 26.4225 25.6041 26.3305 25.4216 26.2852V25.8122L25.8336 25.6033C25.8944 25.5724 25.94 25.5197 25.9602 25.4567C25.9805 25.3936 25.9738 25.3255 25.9417 25.2671C25.9095 25.2088 25.8545 25.1652 25.7888 25.1457C25.7231 25.1263 25.652 25.1327 25.5912 25.1636L25.4216 25.2496V25.0104Z" fill="url(#paint1_linear_728_124)"/>
<path d="M18.6716 28.2746C18.6716 28.2087 18.6443 28.1454 18.5956 28.0988C18.547 28.0521 18.481 28.0259 18.4123 28.0259C18.3435 28.0259 18.2775 28.0521 18.2289 28.0988C18.1803 28.1454 18.1529 28.2087 18.1529 28.2746V28.5139L17.9833 28.4278C17.9532 28.4125 17.9203 28.4031 17.8864 28.4001C17.8525 28.397 17.8183 28.4004 17.7857 28.41C17.7532 28.4196 17.7229 28.4353 17.6967 28.4561C17.6705 28.4769 17.6488 28.5025 17.6329 28.5314C17.6169 28.5603 17.6071 28.5919 17.6039 28.6244C17.6007 28.6569 17.6043 28.6897 17.6143 28.7209C17.6243 28.7521 17.6407 28.7811 17.6624 28.8063C17.6841 28.8314 17.7108 28.8523 17.7409 28.8675L18.1529 29.0764V29.5495C17.9704 29.5948 17.8042 29.687 17.6721 29.8161L17.2448 29.5793L17.2622 29.1326C17.2647 29.0667 17.2398 29.0025 17.193 28.9542C17.1462 28.9058 17.0813 28.8773 17.0126 28.8749C16.9438 28.8724 16.8769 28.8963 16.8265 28.9412C16.7761 28.9861 16.7463 29.0483 16.7438 29.1142L16.7368 29.298L16.5208 29.1787C16.4912 29.1611 16.4583 29.1495 16.424 29.1444C16.3897 29.1393 16.3547 29.1408 16.3211 29.149C16.2874 29.1571 16.2558 29.1716 16.2281 29.1917C16.2004 29.2117 16.1771 29.2369 16.1598 29.2657C16.1424 29.2946 16.1313 29.3264 16.127 29.3595C16.1227 29.3925 16.1254 29.4261 16.1349 29.4581C16.1443 29.4901 16.1604 29.52 16.1822 29.5459C16.2039 29.5719 16.2309 29.5934 16.2614 29.6092L16.4774 29.7288L16.3149 29.8268C16.2581 29.8625 16.2183 29.9182 16.2039 29.9818C16.1895 30.0454 16.2016 30.1118 16.2377 30.167C16.2738 30.2221 16.331 30.2614 16.397 30.2765C16.463 30.2916 16.5326 30.2813 16.5908 30.2478L16.9855 30.0101L17.4126 30.2466C17.3621 30.4209 17.3621 30.605 17.4126 30.7793L16.9855 31.0156L16.5908 30.7781C16.5326 30.7446 16.463 30.7343 16.397 30.7494C16.331 30.7645 16.2738 30.8038 16.2377 30.859C16.2016 30.9141 16.1895 30.9805 16.2039 31.0441C16.2183 31.1077 16.2581 31.1634 16.3149 31.1991L16.4774 31.2971L16.2614 31.4165C16.2319 31.4328 16.2061 31.4546 16.1853 31.4805C16.1646 31.5064 16.1493 31.536 16.1405 31.5675C16.1317 31.5991 16.1294 31.632 16.1339 31.6644C16.1383 31.6968 16.1494 31.7281 16.1664 31.7564C16.1834 31.7847 16.2061 31.8095 16.2331 31.8294C16.2601 31.8493 16.291 31.8639 16.3239 31.8723C16.3568 31.8808 16.3911 31.8829 16.4249 31.8787C16.4587 31.8744 16.4912 31.8638 16.5208 31.8475L16.7365 31.7279L16.7438 31.9119C16.7451 31.9446 16.753 31.9766 16.7672 32.0063C16.7814 32.036 16.8016 32.0627 16.8266 32.085C16.8515 32.1072 16.8808 32.1245 16.9128 32.1358C16.9447 32.1472 16.9787 32.1524 17.0127 32.1512C17.0467 32.1499 17.0802 32.1423 17.1111 32.1287C17.1421 32.1151 17.17 32.0957 17.1931 32.0718C17.2163 32.0478 17.2343 32.0197 17.2462 31.9891C17.258 31.9585 17.2634 31.9259 17.2622 31.8933L17.2448 31.4466L17.6721 31.2098C17.8042 31.339 17.9704 31.4311 18.1529 31.4764V31.9495L17.7409 32.1584C17.6801 32.1892 17.6345 32.242 17.6143 32.305C17.594 32.368 17.6007 32.4362 17.6329 32.4945C17.665 32.5528 17.72 32.5965 17.7857 32.6159C17.8515 32.6353 17.9225 32.6289 17.9833 32.5981L18.1529 32.512V32.7513C18.1529 32.8173 18.1803 32.8805 18.2289 32.9272C18.2775 32.9738 18.3435 33 18.4123 33C18.481 33 18.547 32.9738 18.5956 32.9272C18.6443 32.8805 18.6716 32.8173 18.6716 32.7513V32.512L18.8412 32.5981C18.902 32.6289 18.9731 32.6353 19.0388 32.6159C19.1045 32.5965 19.1595 32.5528 19.1917 32.4945C19.2238 32.4362 19.2305 32.368 19.2102 32.305C19.19 32.242 19.1444 32.1892 19.0836 32.1584L18.6716 31.9495V31.4764C18.8541 31.4312 19.0203 31.3391 19.1524 31.2101L19.5797 31.4466L19.5624 31.8933C19.5611 31.9259 19.5665 31.9585 19.5784 31.9891C19.5902 32.0197 19.6082 32.0478 19.6314 32.0718C19.6546 32.0957 19.6824 32.1151 19.7134 32.1287C19.7443 32.1423 19.7778 32.1499 19.8118 32.1512C19.8459 32.1524 19.8798 32.1472 19.9117 32.1358C19.9437 32.1245 19.973 32.1072 19.9979 32.085C20.0229 32.0627 20.0431 32.036 20.0573 32.0063C20.0715 31.9766 20.0795 31.9446 20.0807 31.9119L20.0877 31.7279L20.3038 31.8475C20.3333 31.8641 20.3659 31.8749 20.3998 31.8794C20.4337 31.8838 20.4681 31.8818 20.5012 31.8734C20.5343 31.865 20.5653 31.8504 20.5924 31.8305C20.6196 31.8106 20.6424 31.7857 20.6595 31.7573C20.6766 31.7289 20.6877 31.6975 20.6921 31.665C20.6965 31.6325 20.6941 31.5994 20.6852 31.5678C20.6762 31.5361 20.6608 31.5065 20.6399 31.4806C20.6189 31.4546 20.5928 31.433 20.5631 31.4167L20.3473 31.2974L20.5097 31.1994C20.5679 31.1643 20.6092 31.1084 20.6246 31.0441C20.6399 30.9798 20.6279 30.9123 20.5913 30.8564C20.5548 30.8005 20.4965 30.7609 20.4295 30.7462C20.3624 30.7315 20.292 30.743 20.2337 30.7781L19.8391 31.0158L19.4119 30.7796C19.4625 30.6052 19.4625 30.4209 19.4119 30.2466L19.8391 30.0101L20.2337 30.2478C20.292 30.2829 20.3624 30.2944 20.4295 30.2797C20.4965 30.265 20.5548 30.2254 20.5913 30.1695C20.6279 30.1136 20.6399 30.0461 20.6246 29.9818C20.6092 29.9175 20.5679 29.8616 20.5097 29.8265L20.3471 29.7288L20.5631 29.6092C20.5928 29.5929 20.6189 29.5713 20.6399 29.5453C20.6608 29.5194 20.6762 29.4898 20.6852 29.4581C20.6941 29.4265 20.6965 29.3934 20.6921 29.3609C20.6877 29.3284 20.6766 29.297 20.6595 29.2686C20.6424 29.2402 20.6196 29.2153 20.5924 29.1954C20.5653 29.1755 20.5343 29.1609 20.5012 29.1525C20.4681 29.1441 20.4337 29.1421 20.3998 29.1465C20.3659 29.151 20.3333 29.1618 20.3038 29.1784L20.0877 29.2978L20.0807 29.114C20.0795 29.0813 20.0715 29.0493 20.0573 29.0196C20.0431 28.9899 20.0229 28.9632 19.9979 28.9409C19.973 28.9187 19.9437 28.9014 19.9117 28.8901C19.8798 28.8787 19.8459 28.8735 19.8118 28.8747C19.7778 28.876 19.7443 28.8836 19.7134 28.8972C19.6824 28.9109 19.6546 28.9302 19.6314 28.9541C19.6082 28.9781 19.5902 29.0062 19.5784 29.0368C19.5665 29.0674 19.5611 29.1 19.5624 29.1326L19.5797 29.5793L19.1524 29.8158C19.0203 29.6868 18.8541 29.5947 18.6716 29.5495V29.0764L19.0836 28.8675C19.1444 28.8367 19.19 28.7839 19.2102 28.7209C19.2305 28.6579 19.2238 28.5897 19.1917 28.5314C19.1595 28.4731 19.1045 28.4294 19.0388 28.41C18.9731 28.3906 18.902 28.397 18.8412 28.4278L18.6716 28.5139V28.2746Z" fill="url(#paint2_linear_728_124)"/>
<path d="M13.0466 25.0104C13.0466 24.9444 13.0193 24.8811 12.9706 24.8345C12.922 24.7879 12.856 24.7617 12.7873 24.7617C12.7185 24.7617 12.6525 24.7879 12.6039 24.8345C12.5553 24.8811 12.5279 24.9444 12.5279 25.0104V25.2496L12.3583 25.1636C12.3282 25.1483 12.2953 25.1389 12.2614 25.1358C12.2275 25.1327 12.1933 25.1361 12.1607 25.1457C12.1282 25.1554 12.0979 25.171 12.0717 25.1919C12.0455 25.2127 12.0238 25.2383 12.0079 25.2671C11.9919 25.296 11.9821 25.3276 11.9789 25.3601C11.9757 25.3927 11.9793 25.4255 11.9893 25.4567C11.9993 25.4879 12.0157 25.5169 12.0374 25.542C12.0591 25.5672 12.0858 25.588 12.1159 25.6033L12.5279 25.8122V26.2852C12.3454 26.3305 12.1792 26.4227 12.0471 26.5518L11.6198 26.3151L11.6372 25.8684C11.6397 25.8025 11.6148 25.7383 11.568 25.6899C11.5212 25.6416 11.4563 25.6131 11.3876 25.6106C11.3188 25.6082 11.2519 25.632 11.2015 25.6769C11.1511 25.7218 11.1213 25.7841 11.1188 25.85L11.1118 26.0338L10.8958 25.9144C10.8662 25.8969 10.8333 25.8852 10.799 25.8801C10.7647 25.875 10.7297 25.8766 10.6961 25.8847C10.6624 25.8928 10.6308 25.9074 10.6031 25.9274C10.5754 25.9475 10.5521 25.9727 10.5348 26.0015C10.5174 26.0303 10.5063 26.0622 10.502 26.0952C10.4977 26.1283 10.5004 26.1618 10.5099 26.1938C10.5193 26.2259 10.5354 26.2557 10.5572 26.2817C10.5789 26.3076 10.6059 26.3291 10.6364 26.3449L10.8524 26.4645L10.6899 26.5625C10.6331 26.5983 10.5933 26.6539 10.5789 26.7175C10.5645 26.7811 10.5766 26.8476 10.6127 26.9027C10.6488 26.9578 10.706 26.9971 10.772 27.0123C10.838 27.0274 10.9076 27.0171 10.9658 26.9836L11.3605 26.7458L11.7876 26.9823C11.7371 27.1566 11.7371 27.3408 11.7876 27.5151L11.3605 27.7513L10.9658 27.5138C10.9076 27.4803 10.838 27.47 10.772 27.4851C10.706 27.5003 10.6488 27.5396 10.6127 27.5947C10.5766 27.6498 10.5645 27.7163 10.5789 27.7799C10.5933 27.8435 10.6331 27.8991 10.6899 27.9349L10.8524 28.0329L10.6364 28.1523C10.6069 28.1686 10.5811 28.1903 10.5603 28.2162C10.5396 28.2422 10.5243 28.2717 10.5155 28.3033C10.5067 28.3349 10.5044 28.3678 10.5089 28.4002C10.5133 28.4326 10.5244 28.4638 10.5414 28.4921C10.5584 28.5204 10.5811 28.5452 10.6081 28.5651C10.6351 28.585 10.666 28.5996 10.6989 28.6081C10.7318 28.6165 10.7661 28.6187 10.7999 28.6144C10.8337 28.6102 10.8662 28.5996 10.8958 28.5833L11.1115 28.4636L11.1188 28.6477C11.1201 28.6803 11.128 28.7124 11.1422 28.7421C11.1564 28.7718 11.1766 28.7985 11.2016 28.8207C11.2265 28.8429 11.2558 28.8602 11.2878 28.8716C11.3197 28.8829 11.3537 28.8881 11.3877 28.8869C11.4217 28.8857 11.4552 28.8781 11.4861 28.8644C11.5171 28.8508 11.545 28.8315 11.5681 28.8075C11.5913 28.7836 11.6093 28.7555 11.6212 28.7249C11.633 28.6942 11.6384 28.6617 11.6372 28.629L11.6198 28.1823L12.0471 27.9456C12.1792 28.0747 12.3454 28.1669 12.5279 28.2122V28.6852L12.1159 28.8941C12.0551 28.925 12.0095 28.9777 11.9893 29.0407C11.969 29.1038 11.9757 29.172 12.0079 29.2303C12.04 29.2886 12.095 29.3322 12.1607 29.3517C12.2265 29.3711 12.2975 29.3647 12.3583 29.3338L12.5279 29.2478V29.487C12.5279 29.553 12.5553 29.6163 12.6039 29.6629C12.6525 29.7095 12.7185 29.7358 12.7873 29.7358C12.856 29.7358 12.922 29.7095 12.9706 29.6629C13.0193 29.6163 13.0466 29.553 13.0466 29.487V29.2478L13.2162 29.3338C13.277 29.3647 13.3481 29.3711 13.4138 29.3517C13.4795 29.3322 13.5345 29.2886 13.5667 29.2303C13.5988 29.172 13.6055 29.1038 13.5852 29.0407C13.565 28.9777 13.5194 28.925 13.4586 28.8941L13.0466 28.6852V28.2122C13.2291 28.1669 13.3953 28.0749 13.5274 27.9458L13.9547 28.1823L13.9374 28.629C13.9361 28.6617 13.9415 28.6942 13.9534 28.7249C13.9652 28.7555 13.9832 28.7836 14.0064 28.8075C14.0296 28.8315 14.0574 28.8508 14.0884 28.8644C14.1193 28.8781 14.1528 28.8857 14.1868 28.8869C14.2209 28.8881 14.2548 28.8829 14.2867 28.8716C14.3187 28.8602 14.348 28.8429 14.3729 28.8207C14.3979 28.7985 14.4181 28.7718 14.4323 28.7421C14.4465 28.7124 14.4545 28.6803 14.4557 28.6477L14.4627 28.4636L14.6788 28.5833C14.7083 28.5998 14.7409 28.6107 14.7748 28.6151C14.8087 28.6196 14.8431 28.6175 14.8762 28.6091C14.9093 28.6008 14.9403 28.5862 14.9674 28.5663C14.9946 28.5463 15.0174 28.5215 15.0345 28.4931C15.0516 28.4647 15.0627 28.4333 15.0671 28.4008C15.0715 28.3682 15.0691 28.3352 15.0602 28.3035C15.0512 28.2719 15.0358 28.2422 15.0149 28.2163C14.9939 28.1904 14.9678 28.1687 14.9381 28.1525L14.7223 28.0331L14.8847 27.9351C14.9429 27.9 14.9842 27.8442 14.9996 27.7799C15.0149 27.7156 15.0029 27.648 14.9663 27.5922C14.9298 27.5363 14.8715 27.4967 14.8045 27.482C14.7374 27.4673 14.667 27.4787 14.6087 27.5138L14.2141 27.7516L13.7869 27.5153C13.8375 27.341 13.8375 27.1567 13.7869 26.9823L14.2141 26.7458L14.6087 26.9836C14.667 27.0187 14.7374 27.0301 14.8045 27.0154C14.8715 27.0008 14.9298 26.9611 14.9663 26.9052C15.0029 26.8494 15.0149 26.7819 14.9996 26.7175C14.9842 26.6532 14.9429 26.5974 14.8847 26.5623L14.7221 26.4645L14.9381 26.3449C14.9678 26.3287 14.9939 26.307 15.0149 26.2811C15.0358 26.2552 15.0512 26.2255 15.0602 26.1939C15.0691 26.1622 15.0715 26.1292 15.0671 26.0967C15.0627 26.0641 15.0516 26.0328 15.0345 26.0044C15.0174 25.976 14.9946 25.9511 14.9674 25.9311C14.9403 25.9112 14.9093 25.8966 14.8762 25.8883C14.8431 25.8799 14.8087 25.8779 14.7748 25.8823C14.7409 25.8867 14.7083 25.8976 14.6788 25.9142L14.4627 26.0335L14.4557 25.8497C14.4545 25.8171 14.4465 25.785 14.4323 25.7553C14.4181 25.7256 14.3979 25.6989 14.3729 25.6767C14.348 25.6545 14.3187 25.6372 14.2867 25.6258C14.2548 25.6145 14.2209 25.6093 14.1868 25.6105C14.1528 25.6117 14.1193 25.6194 14.0884 25.633C14.0574 25.6466 14.0296 25.6659 14.0064 25.6899C13.9832 25.7138 13.9652 25.7419 13.9534 25.7726C13.9415 25.8032 13.9361 25.8357 13.9374 25.8684L13.9547 26.3151L13.5274 26.5516C13.3953 26.4225 13.2291 26.3305 13.0466 26.2852V25.8122L13.4586 25.6033C13.5194 25.5724 13.565 25.5197 13.5852 25.4567C13.6055 25.3936 13.5988 25.3255 13.5667 25.2671C13.5345 25.2088 13.4795 25.1652 13.4138 25.1457C13.3481 25.1263 13.277 25.1327 13.2162 25.1636L13.0466 25.2496V25.0104Z" fill="url(#paint3_linear_728_124)"/>
<path d="M32.988 13.7254C32.9959 13.5882 33 13.45 33 13.3109C33 9.41913 29.8384 6.26425 25.9385 6.26425C24.0618 6.26425 22.3561 6.99477 21.0914 8.18639C20.4517 8.01416 19.7789 7.92228 19.0846 7.92228C16.5734 7.92228 14.3436 9.12422 12.9413 10.983C12.5139 10.879 12.0672 10.8238 11.6077 10.8238C8.51064 10.8238 6 13.3292 6 16.4197C6 16.4341 6.00005 16.4485 6.00015 16.4629C6.00005 16.473 6 16.4831 6 16.4932C6 20.2299 9.03557 23.2591 12.7801 23.2591H23.4462C28.7226 23.2591 33 18.9907 33 13.7254H32.988Z" fill="white"/>
<path d="M32.988 13.7254C32.9959 13.5882 33 13.45 33 13.3109C33 9.41913 29.8384 6.26425 25.9385 6.26425C24.0618 6.26425 22.3561 6.99477 21.0914 8.18639C20.4517 8.01416 19.7789 7.92228 19.0846 7.92228C16.5734 7.92228 14.3436 9.12422 12.9413 10.983C12.5139 10.879 12.0672 10.8238 11.6077 10.8238C8.51064 10.8238 6 13.3292 6 16.4197C6 16.4341 6.00005 16.4485 6.00015 16.4629C6.00005 16.473 6 16.4831 6 16.4932C6 20.2299 9.03557 23.2591 12.7801 23.2591H23.4462C28.7226 23.2591 33 18.9907 33 13.7254H32.988Z" fill="url(#paint4_radial_728_124)" fill-opacity="0.2"/>
</g>
<path d="M9.93579 16.7135H13.5808C13.8581 16.7135 14.1291 16.6304 14.3597 16.4748C14.5902 16.3192 14.7699 16.098 14.876 15.8392C14.9821 15.5804 15.0099 15.2956 14.9558 15.0208C14.9017 14.7461 14.7682 14.4937 14.5721 14.2957C14.376 14.0976 14.1262 13.9627 13.8543 13.908C13.5824 13.8534 13.3005 13.8814 13.0443 13.9886C12.7881 14.0958 12.5692 14.2774 12.4151 14.5103C12.2611 14.7432 12.1789 15.017 12.1789 15.2972V15.4994M10.4966 20.1126H18.6277C19.0159 20.1126 19.3954 20.2289 19.7181 20.4468C20.0409 20.6647 20.2925 20.9744 20.441 21.3367C20.5896 21.699 20.6284 22.0977 20.5527 22.4823C20.477 22.867 20.29 23.2203 20.0156 23.4976C19.7411 23.7749 19.3914 23.9637 19.0106 24.0402C18.6299 24.1168 18.2353 24.0775 17.8766 23.9274C17.518 23.7773 17.2115 23.5232 16.9958 23.1971C16.7801 22.871 16.665 22.4877 16.665 22.0955V21.8122" stroke="white" stroke-linecap="round"/>
<path opacity="0.5" d="M9.375 18.4131H18.6277C19.0159 18.4131 19.3954 18.2968 19.7181 18.0789C20.0409 17.861 20.2924 17.5513 20.441 17.189C20.5895 16.8267 20.6284 16.428 20.5527 16.0434C20.477 15.6587 20.29 15.3054 20.0155 15.0281C19.741 14.7508 19.3913 14.562 19.0106 14.4855C18.6299 14.4089 18.2352 14.4482 17.8766 14.5983C17.518 14.7484 17.2114 15.0025 16.9958 15.3286C16.7801 15.6547 16.665 16.038 16.665 16.4302V16.7135" stroke="white" stroke-opacity="0.95" stroke-linecap="round"/>
<defs>
<filter id="filter0_di_728_124" x="3.33" y="0.33" width="21.09" height="20.5732" filterUnits="userSpaceOnUse" color-interpolation-filters="sRGB">
<feFlood flood-opacity="0" result="BackgroundImageFix"/>
<feColorMatrix in="SourceAlpha" type="matrix" values="0 0 0 0 0 0 0 0 0 0 0 0 0 0 0 0 0 0 127 0" result="hardAlpha"/>
<feMorphology radius="1" operator="dilate" in="SourceAlpha" result="effect1_dropShadow_728_124"/>
<feOffset/>
<feGaussianBlur stdDeviation="0.835"/>
<feComposite in2="hardAlpha" operator="out"/>
<feColorMatrix type="matrix" values="0 0 0 0 1 0 0 0 0 1 0 0 0 0 1 0 0 0 0.2 0"/>
<feBlend mode="normal" in2="BackgroundImageFix" result="effect1_dropShadow_728_124"/>
<feBlend mode="normal" in="SourceGraphic" in2="effect1_dropShadow_728_124" result="shape"/>
<feColorMatrix in="SourceAlpha" type="matrix" values="0 0 0 0 0 0 0 0 0 0 0 0 0 0 0 0 0 0 127 0" result="hardAlpha"/>
<feOffset dy="2"/>
<feGaussianBlur stdDeviation="1.5"/>
<feComposite in2="hardAlpha" operator="arithmetic" k2="-1" k3="1"/>
<feColorMatrix type="matrix" values="0 0 0 0 0 0 0 0 0 0 0 0 0 0 0 0 0 0 0.25 0"/>
<feBlend mode="normal" in2="shape" result="effect2_innerShadow_728_124"/>
</filter>
<filter id="filter1_di_728_124" x="0.666673" y="4.26425" width="37.6667" height="37.4024" filterUnits="userSpaceOnUse" color-interpolation-filters="sRGB">
<feFlood flood-opacity="0" result="BackgroundImageFix"/>
<feColorMatrix in="SourceAlpha" type="matrix" values="0 0 0 0 0 0 0 0 0 0 0 0 0 0 0 0 0 0 127 0" result="hardAlpha"/>
<feOffset dy="3.33333"/>
<feGaussianBlur stdDeviation="2.66666"/>
<feComposite in2="hardAlpha" operator="out"/>
<feColorMatrix type="matrix" values="0 0 0 0 0.301961 0 0 0 0 0.368627 0 0 0 0 0.435294 0 0 0 0.08 0"/>
<feBlend mode="normal" in2="BackgroundImageFix" result="effect1_dropShadow_728_124"/>
<feBlend mode="normal" in="SourceGraphic" in2="effect1_dropShadow_728_124" result="shape"/>
<feColorMatrix in="SourceAlpha" type="matrix" values="0 0 0 0 0 0 0 0 0 0 0 0 0 0 0 0 0 0 127 0" result="hardAlpha"/>
<feOffset/>
<feGaussianBlur stdDeviation="4"/>
<feComposite in2="hardAlpha" operator="arithmetic" k2="-1" k3="1"/>
<feColorMatrix type="matrix" values="0 0 0 0 0 0 0 0 0 0 0 0 0 0 0 0 0 0 0.05 0"/>
<feBlend mode="normal" in2="shape" result="effect2_innerShadow_728_124"/>
</filter>
<radialGradient id="paint0_radial_728_124" cx="0" cy="0" r="1" gradientUnits="userSpaceOnUse" gradientTransform="translate(16.125 3.54404) rotate(94.9245) scale(13.1054 13.5436)">
<stop stop-color="#CACED1"/>
<stop offset="1" stop-color="#8A8484"/>
</radialGradient>
<linearGradient id="paint1_linear_728_124" x1="28.0909" y1="10.7202" x2="11.3478" y2="27.9363" gradientUnits="userSpaceOnUse">
<stop stop-color="white" stop-opacity="0.6"/>
<stop offset="1" stop-color="white"/>
</linearGradient>
<linearGradient id="paint2_linear_728_124" x1="28.0909" y1="10.7202" x2="11.3478" y2="27.9363" gradientUnits="userSpaceOnUse">
<stop stop-color="white" stop-opacity="0.6"/>
<stop offset="1" stop-color="white"/>
</linearGradient>
<linearGradient id="paint3_linear_728_124" x1="28.0909" y1="10.7202" x2="11.3478" y2="27.9363" gradientUnits="userSpaceOnUse">
<stop stop-color="white" stop-opacity="0.6"/>
<stop offset="1" stop-color="white"/>
</linearGradient>
<radialGradient id="paint4_radial_728_124" cx="0" cy="0" r="1" gradientUnits="userSpaceOnUse" gradientTransform="translate(30.75 8.44042) rotate(153.647) scale(25.7373 39.4344)">
<stop stop-color="white"/>
<stop offset="1" stop-color="#909AA3"/>
</radialGradient>
</defs>
</svg>
